<?xml version="1.0" encoding="UTF-8"?>
<!DOCTYPE svg PUBLIC "-//W3C//DTD SVG 1.1//EN" "http://www.w3.org/Graphics/SVG/1.1/DTD/svg11.dtd">
<svg xmlns="http://www.w3.org/2000/svg" version="1.1" width="1761px" height="164px" style="shape-rendering:geometricPrecision; text-rendering:geometricPrecision; image-rendering:optimizeQuality; fill-rule:evenodd; clip-rule:evenodd" xmlns:xlink="http://www.w3.org/1999/xlink">
<g><path style="opacity:0.008" fill="#e4e5e4" d="M 415.5,1.5 C 416.833,2.16667 416.833,2.16667 415.5,1.5 Z"/></g>
<g><path style="opacity:0.99" fill="#353535" d="M 446.5,2.5 C 457.552,2.18914 468.552,2.52247 479.5,3.5C 484.471,34.8006 488.971,66.4673 493,98.5C 497.089,66.7825 501.423,35.1158 506,3.5C 517.438,2.18008 528.938,2.18008 540.5,3.5C 540.931,4.29349 541.265,5.12682 541.5,6C 540.258,8.47178 539.092,10.9718 538,13.5C 537.333,59.1667 537.333,104.833 538,150.5C 540.287,153.072 541.453,156.072 541.5,159.5C 529.495,159.667 517.495,159.5 505.5,159C 507.388,155.379 508.888,151.546 510,147.5C 510.667,121.5 510.667,95.5 510,69.5C 505.432,99.5766 500.432,129.577 495,159.5C 494.667,159.833 494.333,160.167 494,160.5C 488.333,159.833 482.667,159.167 477,158.5C 472.667,130.836 468.334,103.169 464,75.5C 463.333,100.5 463.333,125.5 464,150.5C 467.231,153.477 467.898,156.81 466,160.5C 459.256,159.521 452.422,159.188 445.5,159.5C 445.34,157.801 445.506,156.134 446,154.5C 447.527,152.779 448.527,150.779 449,148.5C 449.667,104.167 449.667,59.8333 449,15.5C 447.85,12.3417 446.683,9.17503 445.5,6C 445.648,4.74407 445.982,3.5774 446.5,2.5 Z"/></g>
<g><path style="opacity:0.994" fill="#343434" d="M 650.5,2.5 C 671.546,2.17817 692.546,2.5115 713.5,3.5C 714.885,14.5346 715.885,25.3679 716.5,36C 713.547,36.8925 710.881,36.3925 708.5,34.5C 706.91,27.6211 703.91,21.4544 699.5,16C 693.363,14.2306 687.197,14.0639 681,15.5C 680.333,33.5 680.333,51.5 681,69.5C 686.446,70.8059 691.946,70.8059 697.5,69.5C 699.766,67.4336 701.433,64.9336 702.5,62C 704.101,61.7266 705.601,61.2266 707,60.5C 708.475,71.0029 708.975,81.6696 708.5,92.5C 706.167,92.5 703.833,92.5 701.5,92.5C 701.411,89.0609 700.078,86.2276 697.5,84C 691.843,83.5006 686.176,83.3339 680.5,83.5C 680.173,105.409 680.506,127.242 681.5,149C 689.18,150.263 696.513,149.263 703.5,146C 707.636,139.342 710.802,132.175 713,124.5C 715.135,122.722 717.635,122.055 720.5,122.5C 720.293,135.193 719.626,147.86 718.5,160.5C 695.5,160.5 672.5,160.5 649.5,160.5C 649.338,158.473 649.505,156.473 650,154.5C 651.74,153.284 652.74,151.618 653,149.5C 653.667,104.833 653.667,60.1667 653,15.5C 652.887,13.0261 651.887,11.0261 650,9.5C 649.297,7.07085 649.463,4.73752 650.5,2.5 Z"/></g>
<g><path style="opacity:0.985" fill="#353535" d="M 725.5,2.5 C 740.17,2.33342 754.837,2.50009 769.5,3C 793.505,3.84668 805.839,16.68 806.5,41.5C 806.749,52.7325 803.416,62.0658 796.5,69.5C 790.959,73.5153 784.959,76.682 778.5,79C 791.441,82.9263 799.275,91.0929 802,103.5C 803.746,117.331 805.58,130.831 807.5,144C 808.206,146.62 809.206,149.12 810.5,151.5C 815.849,151.074 818.349,153.407 818,158.5C 816.829,159.893 815.329,160.727 813.5,161C 807.5,161.667 801.5,161.667 795.5,161C 785.654,158.163 779.82,151.663 778,141.5C 775.854,126.856 773.854,112.189 772,97.5C 771.03,87.3595 765.53,83.0262 755.5,84.5C 755.333,106.169 755.5,127.836 756,149.5C 758.136,152.237 759.136,155.237 759,158.5C 747.754,160.465 736.254,161.132 724.5,160.5C 724.338,158.473 724.505,156.473 725,154.5C 726.527,152.779 727.527,150.779 728,148.5C 728.667,104.5 728.667,60.5 728,16.5C 727.52,12.7211 726.353,9.2211 724.5,6C 724.648,4.74407 724.982,3.5774 725.5,2.5 Z M 756.5,14.5 C 768.794,12.3083 775.96,17.3083 778,29.5C 779.832,39.0202 779.666,48.5202 777.5,58C 776.937,62.6195 774.77,66.7862 771,70.5C 770.667,70.1667 770.333,69.8333 770,69.5C 769.228,70.8491 768.061,71.6824 766.5,72C 762.909,72.7886 759.409,72.6219 756,71.5C 755.18,52.4267 755.347,33.4267 756.5,14.5 Z"/></g>
<g><path style="opacity:0.996" fill="#353535" d="M 962.5,2.5 C 969.833,2.5 977.167,2.5 984.5,2.5C 992.675,51.21 1001.17,99.8766 1010,148.5C 1010.84,150.844 1012.17,152.844 1014,154.5C 1014.67,156.167 1014.67,157.833 1014,159.5C 1002.24,160.654 990.409,160.821 978.5,160C 977.424,158.274 977.257,156.441 978,154.5C 980.38,152.573 981.547,150.073 981.5,147C 980.667,141.167 979.833,135.333 979,129.5C 978.5,129 978,128.5 977.5,128C 970.174,127.5 962.841,127.334 955.5,127.5C 955.246,134.944 954.246,142.277 952.5,149.5C 953.604,151.389 954.937,153.055 956.5,154.5C 957.848,156.611 957.515,158.445 955.5,160C 947.833,160.667 940.167,160.667 932.5,160C 931.426,159.261 930.759,158.261 930.5,157C 932.653,154.178 934.819,151.344 937,148.5C 945.825,99.8766 954.325,51.21 962.5,2.5 Z M 966.5,51.5 C 970.557,72.2538 973.89,93.2538 976.5,114.5C 970.5,114.5 964.5,114.5 958.5,114.5C 961.353,93.5253 964.02,72.5253 966.5,51.5 Z"/></g>
<g><path style="opacity:0.989" fill="#353535" d="M 548.5,3.5 C 559.833,3.5 571.167,3.5 582.5,3.5C 586.436,34.6672 590.936,65.6672 596,96.5C 599.813,65.8077 603.813,35.141 608,4.5C 619.753,3.51185 631.586,3.17851 643.5,3.5C 643.662,5.5273 643.495,7.5273 643,9.5C 641.113,11.0261 640.113,13.0261 640,15.5C 639.333,59.5 639.333,103.5 640,147.5C 640.765,150.854 641.932,154.021 643.5,157C 643.333,158.167 643.167,159.333 643,160.5C 631.709,160.543 620.209,160.543 608.5,160.5C 608.249,156.669 609.416,153.336 612,150.5C 612.667,124.833 612.667,99.1667 612,73.5C 607.275,101.532 602.608,129.866 598,158.5C 597.5,159 597,159.5 596.5,160C 591.136,160.829 585.802,160.663 580.5,159.5C 575.131,130.953 570.298,102.286 566,73.5C 565.333,98.8333 565.333,124.167 566,149.5C 566.26,151.618 567.26,153.284 569,154.5C 569.495,156.473 569.662,158.473 569.5,160.5C 562.825,160.666 556.158,160.5 549.5,160C 548.484,159.481 547.818,158.647 547.5,157.5C 547.92,154.787 549.087,152.454 551,150.5C 551.667,104.833 551.667,59.1667 551,13.5C 550.252,11.6675 549.252,10.0009 548,8.5C 547.36,6.73498 547.527,5.06831 548.5,3.5 Z"/></g>
<g><path style="opacity:0.981" fill="#343434" d="M 892.5,3.5 C 903.833,3.5 915.167,3.5 926.5,3.5C 925.694,7.52472 924.528,11.5247 923,15.5C 922.333,59.8333 922.333,104.167 923,148.5C 923.473,150.779 924.473,152.779 926,154.5C 926.495,156.473 926.662,158.473 926.5,160.5C 915.495,160.667 904.495,160.5 893.5,160C 892.484,159.481 891.818,158.647 891.5,157.5C 891.92,154.787 893.087,152.454 895,150.5C 895.667,104.833 895.667,59.1667 895,13.5C 894.252,11.6675 893.252,10.0009 892,8.5C 891.36,6.73498 891.527,5.06831 892.5,3.5 Z"/></g>
<g><path style="opacity:0.998" fill="#343434" d="M 1017.5,3.5 C 1028.85,3.16782 1040.19,3.50115 1051.5,4.5C 1052.58,7.41136 1051.75,9.74469 1049,11.5C 1048.33,56.8333 1048.33,102.167 1049,147.5C 1055.84,148.903 1062.67,148.736 1069.5,147C 1071,145.5 1072.5,144 1074,142.5C 1076.4,136.637 1078.4,130.637 1080,124.5C 1082.33,121.209 1085,121.209 1088,124.5C 1087.72,135.16 1087.05,145.826 1086,156.5C 1085.69,157.766 1085.19,158.933 1084.5,160C 1073.33,160.167 1062.17,160.333 1051,160.5C 1039.44,160.489 1028.11,159.822 1017,158.5C 1016.97,155.969 1017.8,153.636 1019.5,151.5C 1020.67,105.504 1020.83,59.5036 1020,13.5C 1017.37,10.4854 1016.54,7.15206 1017.5,3.5 Z"/></g>
<g><path style="opacity:0.008" fill="#e4e5e4" d="M 542.5,4.5 C 543.833,5.16667 543.833,5.16667 542.5,4.5 Z"/></g>
<g><path style="opacity:0.016" fill="#e3e4e3" d="M 1053.5,4.5 C 1054.83,5.16667 1054.83,5.16667 1053.5,4.5 Z"/></g>
<g><path style="opacity:0.008" fill="#e4e5e4" d="M 1133.5,4.5 C 1134.83,5.16667 1134.83,5.16667 1133.5,4.5 Z"/></g>
<g><path style="opacity:0.055" fill="#dbdcdb" d="M 420.5,5.5 C 421.833,6.16667 421.833,6.16667 420.5,5.5 Z"/></g>
<g><path style="opacity:0.031" fill="#dfe0df" d="M 443.5,7.5 C 444.833,8.16667 444.833,8.16667 443.5,7.5 Z"/></g>
<g><path style="opacity:0.016" fill="#e2e3e2" d="M 1492.5,7.5 C 1493.83,8.16667 1493.83,8.16667 1492.5,7.5 Z"/></g>
<g><path style="opacity:0.995" fill="#343434" d="M 315.5,23.5 C 312.942,31.5022 311.442,39.8356 311,48.5C 310.333,69.1667 310.333,89.8333 311,110.5C 311.223,122.998 313.556,134.998 318,146.5C 328.956,154.411 337.29,152.078 343,139.5C 344.678,132.199 345.845,124.532 346.5,116.5C 354.014,114.517 357.347,117.351 356.5,125C 356.568,134.896 354.235,144.063 349.5,152.5C 336.289,163.748 321.955,165.248 306.5,157C 296.593,148.702 290.093,138.202 287,125.5C 280.932,99.0399 279.932,72.3733 284,45.5C 286.876,30.2466 294.042,17.4133 305.5,7C 317.508,-0.296847 330.175,-1.46351 343.5,3.5C 346.028,2.05847 348.695,1.55847 351.5,2C 353.269,13.4002 354.102,24.9002 354,36.5C 351.601,39.0009 349.101,39.0009 346.5,36.5C 344.39,29.3386 341.223,22.672 337,16.5C 330.561,10.4106 324.227,10.4106 318,16.5C 316.864,18.743 316.03,21.0763 315.5,23.5 Z"/></g>
<g><path style="opacity:0.993" fill="#353535" d="M 855.5,150.5 C 865.936,152.284 872.769,147.951 876,137.5C 876.786,130.722 877.953,124.055 879.5,117.5C 882.086,116.52 884.753,116.187 887.5,116.5C 890.382,130.294 887.882,142.961 880,154.5C 871.169,161.674 861.002,164.174 849.5,162C 835.229,156.393 825.729,146.226 821,131.5C 811.979,99.688 811.312,67.688 819,35.5C 823.093,22.1218 830.926,11.6218 842.5,4C 853.918,-0.654596 865.252,-0.487929 876.5,4.5C 879.418,1.88729 882.251,1.88729 885,4.5C 885.5,13 886,21.5 886.5,30C 886.625,33.3552 886.125,36.5219 885,39.5C 883.667,38.1667 882.333,38.1667 881,39.5C 877.497,32.6996 874.164,25.6996 871,18.5C 864.264,11.0291 857.264,10.6958 850,17.5C 845.389,29.7008 843.056,42.3675 843,55.5C 842.209,76.5189 842.542,97.5189 844,118.5C 844.309,128.675 846.642,138.341 851,147.5C 852.129,149.141 853.629,150.141 855.5,150.5 Z"/></g>
<g><path style="opacity:0.039" fill="#dddedd" d="M 1733.5,9.5 C 1734.83,10.1667 1734.83,10.1667 1733.5,9.5 Z"/></g>
<g><path style="opacity:0.998" fill="#343434" d="M -0.5,19.5 C -0.5,19.1667 -0.5,18.8333 -0.5,18.5C 0.117425,18.3893 0.617425,18.056 1,17.5C 1.23154,13.4452 1.73154,9.44522 2.5,5.5C 28.827,4.33349 55.1603,4.16683 81.5,5C 82.7201,6.52532 83.3868,8.35866 83.5,10.5C 84.0722,17.8448 84.7389,25.1781 85.5,32.5C 84.9319,34.2044 84.9319,35.7044 85.5,37C 85,37.5 84.5,38 84,38.5C 82,37.8333 80,37.1667 78,36.5C 75.8483,30.0294 73.015,23.8627 69.5,18C 65.1156,15.7922 60.449,14.9589 55.5,15.5C 55.3333,59.5013 55.5,103.501 56,147.5C 56.2453,149.663 57.2453,151.33 59,152.5C 59.6667,154.5 59.6667,156.5 59,158.5C 47.5425,159.782 36.0425,159.782 24.5,158.5C 24.67,157.178 24.3366,156.011 23.5,155C 25.2429,153.89 26.5762,152.39 27.5,150.5C 28.6666,105.837 28.8333,61.1704 28,16.5C 21.9139,14.7742 16.9139,16.4409 13,21.5C 12.0922,26.2057 10.4255,30.8724 8,35.5C 5.90306,36.991 3.56972,37.991 1,38.5C 0.827935,31.9867 0.327935,25.6534 -0.5,19.5 Z"/></g>
<g><path style="opacity:0.993" fill="#343434" d="M 89.5,4.5 C 100.187,4.16797 110.854,4.5013 121.5,5.5C 121.931,6.29349 122.265,7.12682 122.5,8C 120.915,9.92461 119.748,12.0913 119,14.5C 118.333,32.8333 118.333,51.1667 119,69.5C 126.333,70.8333 133.667,70.8333 141,69.5C 141.667,51.5 141.667,33.5 141,15.5C 138.792,12.4463 137.792,9.11293 138,5.5C 148.757,4.34711 159.59,4.18044 170.5,5C 172.211,6.13318 172.711,7.63318 172,9.5C 170.26,10.7158 169.26,12.3825 169,14.5C 168.333,59.1667 168.333,103.833 169,148.5C 170.358,151.381 171.858,154.214 173.5,157C 172.667,157.833 171.833,158.667 171,159.5C 160.705,159.616 150.205,159.45 139.5,159C 137.789,157.867 137.289,156.367 138,154.5C 139,152.833 140,151.167 141,149.5C 141.5,127.503 141.667,105.503 141.5,83.5C 133.833,83.5 126.167,83.5 118.5,83.5C 118.333,105.503 118.5,127.503 119,149.5C 120.122,151.624 121.622,153.457 123.5,155C 122.663,156.011 122.33,157.178 122.5,158.5C 111.2,159.601 99.8667,159.767 88.5,159C 87.5914,155.245 88.4248,151.745 91,148.5C 91.6667,103.833 91.6667,59.1667 91,14.5C 87.5216,11.3403 87.0216,8.00692 89.5,4.5 Z"/></g>
<g><path style="opacity:0.983" fill="#353535" d="M 180.5,4.5 C 200.836,4.33338 221.169,4.50004 241.5,5C 242.967,6.09754 243.801,7.59754 244,9.5C 244.434,18.4245 245.267,27.2579 246.5,36C 243.782,37.7677 240.949,37.9344 238,36.5C 236.333,31.8333 234.667,27.1667 233,22.5C 231.878,20.3762 230.378,18.5429 228.5,17C 222.593,15.6392 216.593,15.1392 210.5,15.5C 210.5,34.1667 210.5,52.8333 210.5,71.5C 215.844,71.666 221.177,71.4994 226.5,71C 229.338,68.8473 231.338,66.0139 232.5,62.5C 234.167,61.1667 235.833,61.1667 237.5,62.5C 238.499,72.4778 238.832,82.4778 238.5,92.5C 236.533,92.2606 234.699,92.5939 233,93.5C 231.673,90.8685 230.34,88.2019 229,85.5C 228.25,84.8742 227.416,84.3742 226.5,84C 221.177,83.5006 215.844,83.334 210.5,83.5C 210.5,104.833 210.5,126.167 210.5,147.5C 216.842,147.666 223.175,147.5 229.5,147C 234.052,145.412 236.885,142.245 238,137.5C 239.438,132.805 240.938,128.139 242.5,123.5C 244.833,122.167 247.167,122.167 249.5,123.5C 249.758,135.159 249.092,146.826 247.5,158.5C 245.876,158.36 244.71,159.027 244,160.5C 222.876,159.806 201.709,159.139 180.5,158.5C 180.565,154.472 181.732,150.805 184,147.5C 184.667,104.5 184.667,61.5 184,18.5C 182.441,13.8394 181.275,9.17271 180.5,4.5 Z"/></g>
<g><path style="opacity:0.996" fill="#353535" d="M 420.5,6.5 C 431.514,17.1904 438.347,30.1904 441,45.5C 445.882,75.3603 443.882,104.694 435,133.5C 430.26,146.237 421.76,155.404 409.5,161C 396.473,164.451 385.307,161.285 376,151.5C 364.14,135.258 357.806,116.925 357,96.5C 355.939,79.0908 356.606,61.7575 359,44.5C 361.885,28.2051 369.719,15.0384 382.5,5C 395.526,-1.37671 408.193,-0.876707 420.5,6.5 Z M 397.5,11.5 C 404.146,11.639 408.313,14.9724 410,21.5C 412.198,29.3543 413.531,37.3543 414,45.5C 415.347,68.1334 415.347,90.8001 414,113.5C 413.792,125.304 411.459,136.637 407,147.5C 399.939,153.517 394.439,152.184 390.5,143.5C 390.709,142.914 391.043,142.414 391.5,142C 390.107,140.829 389.273,139.329 389,137.5C 387.159,129.996 386.659,122.496 387.5,115C 387,114.5 386.5,114 386,113.5C 385.113,86.8646 385.446,60.5313 387,34.5C 387.713,28.6927 389.046,23.0261 391,17.5C 392.494,14.6865 394.66,12.6865 397.5,11.5 Z"/></g>
<g><path style="opacity:0.986" fill="#353535" d="M 1270.5,62.5 C 1267.7,64.795 1265.04,67.295 1262.5,70C 1259.4,72.2147 1256.07,73.8814 1252.5,75C 1266.32,79.4857 1275.15,88.319 1279,101.5C 1280.02,107.793 1280.69,114.126 1281,120.5C 1283.33,119.167 1285.67,119.167 1288,120.5C 1289.97,125.728 1291.64,131.062 1293,136.5C 1296.09,145.133 1302.25,149.467 1311.5,149.5C 1318.44,149.531 1323.78,146.698 1327.5,141C 1327.04,140.586 1326.71,140.086 1326.5,139.5C 1328.09,137.077 1329.09,134.41 1329.5,131.5C 1328.45,120.738 1324.62,111.071 1318,102.5C 1307.49,88.6871 1297.33,74.5204 1287.5,60C 1281.59,47.5617 1280.42,34.7284 1284,21.5C 1291.42,8.86595 1302.59,2.53262 1317.5,2.5C 1324.24,2.98121 1330.91,3.98121 1337.5,5.5C 1340.01,3.48423 1342.68,3.1509 1345.5,4.5C 1346.83,14.8049 1347.83,25.1382 1348.5,35.5C 1348.32,36.5539 1347.99,37.5539 1347.5,38.5C 1345.17,39.8333 1342.83,39.8333 1340.5,38.5C 1338,32.4941 1335.5,26.4941 1333,20.5C 1325.92,12.7945 1317.75,11.6278 1308.5,17C 1303.97,22.8687 1303.63,28.8687 1307.5,35C 1307.17,35.3333 1306.83,35.6667 1306.5,36C 1316.45,52.0404 1327.28,67.5404 1339,82.5C 1346.14,92.45 1350.81,103.45 1353,115.5C 1354.88,146.286 1340.38,161.453 1309.5,161C 1302.84,160.403 1297,158.569 1292,155.5C 1289.69,156.806 1287.69,158.473 1286,160.5C 1283.94,159.417 1282.61,157.75 1282,155.5C 1281.67,144.479 1281,133.479 1280,122.5C 1279.09,137.485 1271.59,148.318 1257.5,155C 1251.09,157.603 1244.42,158.936 1237.5,159C 1223.79,159.906 1210.12,159.573 1196.5,158C 1197.09,154.968 1198.43,152.302 1200.5,150C 1200.17,149.667 1199.83,149.333 1199.5,149C 1200.83,127.216 1201.49,105.216 1201.5,83C 1201.33,61.1667 1201.17,39.3333 1201,17.5C 1200.75,14.8232 1199.75,12.4899 1198,10.5C 1197.2,8.74117 1197.37,7.0745 1198.5,5.5C 1215.16,4.11315 1231.82,4.27982 1248.5,6C 1271.44,12.7175 1280.27,27.8841 1275,51.5C 1274.36,55.6103 1272.86,59.277 1270.5,62.5 Z M 1228.5,15.5 C 1234.18,15.6996 1239.51,17.033 1244.5,19.5C 1247.28,24.0266 1248.78,29.0266 1249,34.5C 1249.93,43.6194 1249.27,52.6194 1247,61.5C 1243.39,69.3915 1237.22,72.7248 1228.5,71.5C 1228.5,52.8333 1228.5,34.1667 1228.5,15.5 Z M 1229.5,82.5 C 1243.72,82.8815 1251.22,90.2148 1252,104.5C 1253.81,117.404 1252.14,129.737 1247,141.5C 1241.9,146.49 1235.73,148.49 1228.5,147.5C 1228.18,125.758 1228.51,104.091 1229.5,82.5 Z"/></g>
<g><path style="opacity:0.039" fill="#dddedd" d="M 1261.5,9.5 C 1262.83,10.1667 1262.83,10.1667 1261.5,9.5 Z"/></g>
<g><path style="opacity:0.983" fill="#343434" d="M 1357.5,4.5 C 1377.5,4.33338 1397.5,4.50005 1417.5,5C 1418.13,5.75044 1418.63,6.58377 1419,7.5C 1419.72,17.4001 1420.55,27.2334 1421.5,37C 1421,37.5 1420.5,38 1420,38.5C 1417.39,37.9294 1414.89,37.0961 1412.5,36C 1412.83,35.6667 1413.17,35.3333 1413.5,35C 1411.23,31.5222 1409.73,27.6889 1409,23.5C 1406.77,19.2063 1403.6,16.7063 1399.5,16C 1395.18,15.501 1390.85,15.3343 1386.5,15.5C 1386.5,34.1667 1386.5,52.8333 1386.5,71.5C 1391.98,72.0807 1397.14,71.4141 1402,69.5C 1402.33,69.8333 1402.67,70.1667 1403,70.5C 1404.83,67.6855 1406.66,64.8522 1408.5,62C 1409.83,61.3333 1411.17,61.3333 1412.5,62C 1413.49,72.0842 1413.82,82.2509 1413.5,92.5C 1411.17,92.5 1408.83,92.5 1406.5,92.5C 1406.65,88.9746 1405.32,86.1413 1402.5,84C 1397.18,83.5006 1391.84,83.334 1386.5,83.5C 1386.5,104.833 1386.5,126.167 1386.5,147.5C 1393.62,147.925 1400.62,147.425 1407.5,146C 1412.78,139.842 1415.95,132.675 1417,124.5C 1419.59,121.713 1422.26,121.38 1425,123.5C 1425.18,135.108 1424.35,146.608 1422.5,158C 1411.57,159.133 1400.57,159.633 1389.5,159.5C 1379.5,159.333 1369.5,159.167 1359.5,159C 1355.96,158.671 1354.79,156.838 1356,153.5C 1357.74,152.284 1358.74,150.618 1359,148.5C 1359.67,104.5 1359.67,60.5 1359,16.5C 1357.95,13.5673 1356.78,10.7339 1355.5,8C 1355.86,6.56573 1356.53,5.39907 1357.5,4.5 Z"/></g>
<g><path style="opacity:0.991" fill="#353535" d="M 1431.5,4.5 C 1448.87,4.12194 1466.2,4.62194 1483.5,6C 1496.94,9.11002 1505.44,17.2767 1509,30.5C 1514.72,55.4806 1505.55,71.6473 1481.5,79C 1495.46,82.6109 1503.63,91.1109 1506,104.5C 1507.57,120.362 1510.07,135.695 1513.5,150.5C 1516.13,151.092 1518.79,151.425 1521.5,151.5C 1521.95,154.365 1521.28,156.865 1519.5,159C 1508.82,161.719 1498.82,160.219 1489.5,154.5C 1485.87,150.047 1483.37,145.047 1482,139.5C 1480.32,123.398 1477.99,107.398 1475,91.5C 1473.96,90.3774 1473.29,89.0441 1473,87.5C 1469.28,84.9239 1465.12,83.9239 1460.5,84.5C 1460.33,105.836 1460.5,127.169 1461,148.5C 1463.16,150.811 1464.16,153.478 1464,156.5C 1463.23,157.849 1462.06,158.682 1460.5,159C 1450.14,159.733 1439.81,159.567 1429.5,158.5C 1429.34,156.801 1429.51,155.134 1430,153.5C 1431.38,152.449 1432.38,151.116 1433,149.5C 1433.67,104.5 1433.67,59.5 1433,14.5C 1431.37,12.5471 1430.2,10.3804 1429.5,8C 1429.86,6.56573 1430.53,5.39907 1431.5,4.5 Z M 1460.5,15.5 C 1474.71,14.543 1482.21,21.2096 1483,35.5C 1483.87,44.6101 1483.2,53.6101 1481,62.5C 1477.39,71.9055 1470.72,75.2389 1461,72.5C 1460.5,53.5029 1460.33,34.5029 1460.5,15.5 Z"/></g>
<g><path style="opacity:0.991" fill="#343434" d="M 1511.5,4.5 C 1523.17,4.5 1534.83,4.5 1546.5,4.5C 1546.66,6.5273 1546.5,8.5273 1546,10.5C 1543.92,12.1692 1542.75,14.3359 1542.5,17C 1547,46.1642 1551.5,75.3309 1556,104.5C 1560.61,75.1852 1565.11,45.8519 1569.5,16.5C 1568.03,13.7197 1566.69,10.8864 1565.5,8C 1565.75,6.67386 1566.42,5.67386 1567.5,5C 1574.83,4.33333 1582.17,4.33333 1589.5,5C 1590.83,7 1592.17,7 1593.5,5C 1613.84,4.16694 1634.17,4.3336 1654.5,5.5C 1655.9,14.267 1656.9,23.1004 1657.5,32C 1657.42,36.8704 1655.08,38.3704 1650.5,36.5C 1648.17,31.1667 1645.83,25.8333 1643.5,20.5C 1639.89,16.5733 1635.39,14.9067 1630,15.5C 1627.58,15.5296 1625.24,15.8629 1623,16.5C 1622.33,34.5 1622.33,52.5 1623,70.5C 1627.75,71.6349 1632.58,71.8015 1637.5,71C 1638.93,70.5348 1640.1,69.7014 1641,68.5C 1641.91,66.3359 1643.08,64.3359 1644.5,62.5C 1645.77,61.5721 1647.1,61.4054 1648.5,62C 1649.49,72.0842 1649.82,82.2509 1649.5,92.5C 1644.88,93.6913 1642.38,92.0246 1642,87.5C 1641.17,86 1640,84.8333 1638.5,84C 1633.18,83.5006 1627.84,83.334 1622.5,83.5C 1622.5,104.833 1622.5,126.167 1622.5,147.5C 1629.62,147.925 1636.62,147.425 1643.5,146C 1645.45,143.926 1647.29,141.759 1649,139.5C 1650.34,133.991 1652.17,128.657 1654.5,123.5C 1656.39,121.854 1658.39,121.52 1660.5,122.5C 1661.66,127.802 1661.83,133.136 1661,138.5C 1660.99,145.731 1659.99,152.731 1658,159.5C 1635.86,159.82 1613.86,159.487 1592,158.5C 1591.79,154.887 1592.79,151.554 1595,148.5C 1595.67,103.833 1595.67,59.1667 1595,14.5C 1594.1,12.6025 1592.93,10.9358 1591.5,9.5C 1588.49,11.4369 1586.32,14.1036 1585,17.5C 1576.54,64.2267 1568.04,111.227 1559.5,158.5C 1552.83,159.833 1546.17,159.833 1539.5,158.5C 1530.99,110.45 1522.16,62.4502 1513,14.5C 1511.37,12.5471 1510.2,10.3804 1509.5,8C 1509.86,6.56573 1510.53,5.39907 1511.5,4.5 Z"/></g>
<g><path style="opacity:0.999" fill="#353535" d="M 1734.5,71.5 C 1733.83,71.5 1733.5,71.8333 1733.5,72.5C 1728.54,75.3267 1723.21,77.4934 1717.5,79C 1730.63,82.1311 1738.8,90.2978 1742,103.5C 1743.87,118.249 1746.2,132.915 1749,147.5C 1750.93,150.649 1753.77,151.982 1757.5,151.5C 1758.67,157.167 1756.34,160 1750.5,160C 1732.15,163.131 1721.31,155.631 1718,137.5C 1716.4,121.703 1714.07,106.036 1711,90.5C 1707.64,85.3225 1702.97,83.6559 1697,85.5C 1696.33,106.167 1696.33,126.833 1697,147.5C 1698.89,150.493 1700.39,153.66 1701.5,157C 1700.67,157.833 1699.83,158.667 1699,159.5C 1689.04,159.615 1678.87,159.448 1668.5,159C 1666.97,158.3 1665.97,157.134 1665.5,155.5C 1666.67,153.833 1667.83,152.167 1669,150.5C 1669.67,105.167 1669.67,59.8333 1669,14.5C 1668.46,12.1311 1667.3,10.1311 1665.5,8.5C 1666,7.5 1666.5,6.5 1667,5.5C 1682.09,4.3431 1697.26,4.17644 1712.5,5C 1735.41,6.9624 1746.74,19.4624 1746.5,42.5C 1747.15,54.1881 1743.15,63.8547 1734.5,71.5 Z M 1697.5,15.5 C 1710.17,14.3479 1717.34,20.0145 1719,32.5C 1719.78,41.8742 1719.44,51.2075 1718,60.5C 1714.82,71.2559 1707.82,75.2559 1697,72.5C 1696.18,53.4267 1696.35,34.4267 1697.5,15.5 Z"/></g>
<g><path style="opacity:0.996" fill="#353535" d="M 1145.5,2.5 C 1161.21,1.68689 1172.88,7.52023 1180.5,20C 1188.28,32.6858 1192.45,46.5191 1193,61.5C 1195.02,84.4299 1192.86,106.93 1186.5,129C 1182.44,141.805 1174.77,151.805 1163.5,159C 1153.52,162.765 1143.86,162.098 1134.5,157C 1123.16,147.737 1115.99,135.904 1113,121.5C 1111.02,114.286 1109.69,106.953 1109,99.5C 1107.87,81.084 1108.54,62.7507 1111,44.5C 1113.79,31.3996 1119.62,19.8996 1128.5,10C 1133.93,6.68583 1139.59,4.18583 1145.5,2.5 Z M 1149.5,13.5 C 1153.03,13.3459 1155.86,14.6792 1158,17.5C 1159.72,20.674 1161.06,24.0073 1162,27.5C 1166.64,62.8315 1166.64,98.1648 1162,133.5C 1159.77,136.974 1158.77,140.641 1159,144.5C 1154.03,151.917 1148.7,152.25 1143,145.5C 1141.16,140.989 1139.83,136.323 1139,131.5C 1136.11,100.199 1135.78,68.8652 1138,37.5C 1139.54,36.4542 1139.71,35.1209 1138.5,33.5C 1139.67,27.9045 1141,22.7378 1142.5,18C 1144.32,15.4953 1146.66,13.9953 1149.5,13.5 Z"/></g>
<g><path style="opacity:0.016" fill="#e2e3e2" d="M 1271.5,13.5 C 1272.83,14.1667 1272.83,14.1667 1271.5,13.5 Z"/></g>
<g><path style="opacity:0.039" fill="#dddedd" d="M 1431.5,15.5 C 1432.83,16.1667 1432.83,16.1667 1431.5,15.5 Z"/></g>
<g><path style="opacity:0.039" fill="#dddedd" d="M 1511.5,15.5 C 1512.83,16.1667 1512.83,16.1667 1511.5,15.5 Z"/></g>
<g><path style="opacity:0.008" fill="#e4e5e4" d="M 1641.5,21.5 C 1642.83,22.1667 1642.83,22.1667 1641.5,21.5 Z"/></g>
<g><path style="opacity:0.039" fill="#dddedd" d="M 434.5,22.5 C 435.833,23.1667 435.833,23.1667 434.5,22.5 Z"/></g>
<g><path style="opacity:0.039" fill="#dddedd" d="M 231.5,23.5 C 232.833,24.1667 232.833,24.1667 231.5,23.5 Z"/></g>
<g><path style="opacity:0.008" fill="#e4e5e4" d="M 315.5,23.5 C 316.833,24.1667 316.833,24.1667 315.5,23.5 Z"/></g>
<g><path style="opacity:0.039" fill="#dddedd" d="M 871.5,23.5 C 872.833,24.1667 872.833,24.1667 871.5,23.5 Z"/></g>
<g><path style="opacity:0.024" fill="#e1e2e1" d="M 720.5,30.5 C 721.833,31.1667 721.833,31.1667 720.5,30.5 Z"/></g>
<g><path style="opacity:0.008" fill="#e4e5e4" d="M 705.5,32.5 C 706.833,33.1667 706.833,33.1667 705.5,32.5 Z"/></g>
<g><path style="opacity:0.008" fill="#e4e5e4" d="M 1646.5,32.5 C 1647.83,33.1667 1647.83,33.1667 1646.5,32.5 Z"/></g>
<g><path style="opacity:0.008" fill="#e4e5e4" d="M 1645.5,34.5 C 1646.83,35.1667 1646.83,35.1667 1645.5,34.5 Z"/></g>
<g><path style="opacity:0.016" fill="#e3e4e3" d="M 1349.5,35.5 C 1350.83,36.1667 1350.83,36.1667 1349.5,35.5 Z"/></g>
<g><path style="opacity:0.031" fill="#dfe0df" d="M 5.5,41.5 C 6.83333,42.1667 6.83333,42.1667 5.5,41.5 Z"/></g>
<g><path style="opacity:0.008" fill="#e4e5e4" d="M 1510.5,51.5 C 1511.83,52.1667 1511.83,52.1667 1510.5,51.5 Z"/></g>
<g><path style="opacity:0.016" fill="#e2e3e2" d="M 806.5,52.5 C 807.833,53.1667 807.833,53.1667 806.5,52.5 Z"/></g>
<g><path style="opacity:0.024" fill="#e0e1e0" d="M 1643.5,60.5 C 1644.83,61.1667 1644.83,61.1667 1643.5,60.5 Z"/></g>
<g><path style="opacity:0.055" fill="#dbdcdb" d="M 1270.5,62.5 C 1271.83,63.1667 1271.83,63.1667 1270.5,62.5 Z"/></g>
<g><path style="opacity:0.008" fill="#e4e5e4" d="M 795.5,71.5 C 796.833,72.1667 796.833,72.1667 795.5,71.5 Z"/></g>
<g><path style="opacity:0.055" fill="#dbdcdb" d="M 1734.5,71.5 C 1735.83,72.1667 1735.83,72.1667 1734.5,71.5 Z"/></g>
<g><path style="opacity:0.039" fill="#dddedd" d="M 1733.5,72.5 C 1733.83,72.5 1734.17,72.5 1734.5,72.5C 1734.31,73.1701 1733.98,73.1701 1733.5,72.5 Z"/></g>
<g><path style="opacity:0.008" fill="#e4e5e4" d="M 1333.5,73.5 C 1334.83,74.1667 1334.83,74.1667 1333.5,73.5 Z"/></g>
<g><path style="opacity:0.039" fill="#dedfde" d="M 1465.5,86.5 C 1466.83,87.1667 1466.83,87.1667 1465.5,86.5 Z"/></g>
<g><path style="opacity:0.047" fill="#dcdddc" d="M 226.5,88.5 C 227.833,89.1667 227.833,89.1667 226.5,88.5 Z"/></g>
<g><path style="opacity:0.102" fill="#d1d2d1" d="M 1706.5,88.5 C 1707.83,89.1667 1707.83,89.1667 1706.5,88.5 Z"/></g>
<g><path style="opacity:0.016" fill="#e3e4e3" d="M 698.5,89.5 C 699.833,90.1667 699.833,90.1667 698.5,89.5 Z"/></g>
<g><path style="opacity:0.008" fill="#e4e5e4" d="M 1469.5,90.5 C 1470.83,91.1667 1470.83,91.1667 1469.5,90.5 Z"/></g>
<g><path style="opacity:0.008" fill="#e4e5e4" d="M 1278.5,92.5 C 1279.83,93.1667 1279.83,93.1667 1278.5,92.5 Z"/></g>
<g><path style="opacity:0.008" fill="#e4e5e4" d="M 1308.5,93.5 C 1309.83,94.1667 1309.83,94.1667 1308.5,93.5 Z"/></g>
<g><path style="opacity:0.016" fill="#e2e3e2" d="M 1740.5,95.5 C 1741.83,96.1667 1741.83,96.1667 1740.5,95.5 Z"/></g>
<g><path style="opacity:0.039" fill="#dedfde" d="M 1280.5,96.5 C 1281.83,97.1667 1281.83,97.1667 1280.5,96.5 Z"/></g>
<g><path style="opacity:0.063" fill="#d9dad9" d="M 1317.5,106.5 C 1318.83,107.167 1318.83,107.167 1317.5,106.5 Z"/></g>
<g><path style="opacity:0.031" fill="#e0e1e0" d="M 1421.5,118.5 C 1422.83,119.167 1422.83,119.167 1421.5,118.5 Z"/></g>
<g><path style="opacity:0.008" fill="#e4e5e4" d="M 1663.5,121.5 C 1664.83,122.167 1664.83,122.167 1663.5,121.5 Z"/></g>
<g><path style="opacity:0.008" fill="#e4e5e4" d="M 1075.5,128.5 C 1076.83,129.167 1076.83,129.167 1075.5,128.5 Z"/></g>
<g><path style="opacity:0.039" fill="#dedfde" d="M 363.5,135.5 C 364.833,136.167 364.833,136.167 363.5,135.5 Z"/></g>
<g><path style="opacity:0.016" fill="#e2e3e2" d="M 235.5,137.5 C 236.833,138.167 236.833,138.167 235.5,137.5 Z"/></g>
<g><path style="opacity:0.008" fill="#e4e5e4" d="M 434.5,137.5 C 435.833,138.167 435.833,138.167 434.5,137.5 Z"/></g>
<g><path style="opacity:0.047" fill="#dcdddc" d="M 430.5,143.5 C 431.833,144.167 431.833,144.167 430.5,143.5 Z"/></g>
<g><path style="opacity:0.063" fill="#d8d9d8" d="M 429.5,145.5 C 430.833,146.167 430.833,146.167 429.5,145.5 Z"/></g>
<g><path style="opacity:0.039" fill="#dddedd" d="M 332.5,147.5 C 333.833,148.167 333.833,148.167 332.5,147.5 Z"/></g>
<g><path style="opacity:0.031" fill="#e0e1e0" d="M 757.5,147.5 C 758.833,148.167 758.833,148.167 757.5,147.5 Z"/></g>
<g><path style="opacity:0.016" fill="#e3e4e3" d="M 567.5,148.5 C 568.833,149.167 568.833,149.167 567.5,148.5 Z"/></g>
<g><path style="opacity:0.016" fill="#e3e4e3" d="M 650.5,148.5 C 651.833,149.167 651.833,149.167 650.5,148.5 Z"/></g>
<g><path style="opacity:0.008" fill="#e4e5e4" d="M 723.5,148.5 C 724.833,149.167 724.833,149.167 723.5,148.5 Z"/></g>
<g><path style="opacity:0.031" fill="#e0e1e0" d="M 777.5,148.5 C 778.833,149.167 778.833,149.167 777.5,148.5 Z"/></g>
<g><path style="opacity:0.008" fill="#e4e5e4" d="M 926.5,148.5 C 927.833,149.167 927.833,149.167 926.5,148.5 Z"/></g>
<g><path style="opacity:0.039" fill="#dddedd" d="M 1269.5,148.5 C 1270.83,149.167 1270.83,149.167 1269.5,148.5 Z"/></g>
<g><path style="opacity:0.039" fill="#dedfde" d="M 179.5,149.5 C 180.833,150.167 180.833,150.167 179.5,149.5 Z"/></g>
<g><path style="opacity:0.039" fill="#dedfde" d="M 547.5,149.5 C 548.833,150.167 548.833,150.167 547.5,149.5 Z"/></g>
<g><path style="opacity:0.047" fill="#dcdddc" d="M 758.5,149.5 C 759.833,150.167 759.833,150.167 758.5,149.5 Z"/></g>
<g><path style="opacity:0.031" fill="#dfe0df" d="M 855.5,149.5 C 856.833,150.167 856.833,150.167 855.5,149.5 Z"/></g>
<g><path style="opacity:0.039" fill="#dedfde" d="M 891.5,149.5 C 892.833,150.167 892.833,150.167 891.5,149.5 Z"/></g>
<g><path style="opacity:0.024" fill="#e1e2e1" d="M 930.5,149.5 C 931.833,150.167 931.833,150.167 930.5,149.5 Z"/></g>
<g><path style="opacity:0.039" fill="#dddedd" d="M 87.5,150.5 C 88.8333,151.167 88.8333,151.167 87.5,150.5 Z"/></g>
<g><path style="opacity:0.039" fill="#dddedd" d="M 1591.5,150.5 C 1592.83,151.167 1592.83,151.167 1591.5,150.5 Z"/></g>
<g><path style="opacity:0.008" fill="#e4e5e4" d="M 299.5,152.5 C 300.833,153.167 300.833,153.167 299.5,152.5 Z"/></g>
<g><path style="opacity:0.016" fill="#e3e4e3" d="M 349.5,152.5 C 350.833,153.167 350.833,153.167 349.5,152.5 Z"/></g>
<g><path style="opacity:0.008" fill="#e4e5e4" d="M 541.5,153.5 C 542.833,154.167 542.833,154.167 541.5,153.5 Z"/></g>
<g><path style="opacity:0.031" fill="#e0e1e0" d="M 1294.5,158.5 C 1295.83,159.167 1295.83,159.167 1294.5,158.5 Z"/></g>
<g><path style="opacity:0.016" fill="#e2e3e2" d="M 1332.5,158.5 C 1333.83,159.167 1333.83,159.167 1332.5,158.5 Z"/></g>
<g><path style="opacity:0.016" fill="#e2e3e2" d="M 1493.5,158.5 C 1494.83,159.167 1494.83,159.167 1493.5,158.5 Z"/></g>
<g><path style="opacity:0.016" fill="#e2e3e2" d="M 1760.5,158.5 C 1760.5,158.833 1760.5,159.167 1760.5,159.5C 1759.83,159.019 1759.83,158.685 1760.5,158.5 Z"/></g>
<g><path style="opacity:0.031" fill="#dfe0df" d="M 647.5,159.5 C 648.833,160.167 648.833,160.167 647.5,159.5 Z"/></g>
<g><path style="opacity:0.008" fill="#e4e5e4" d="M 875.5,159.5 C 876.833,160.167 876.833,160.167 875.5,159.5 Z"/></g>
</svg>
