<?xml version="1.0" encoding="UTF-8" standalone="no"?>
<!DOCTYPE svg PUBLIC "-//W3C//DTD SVG 1.1//EN" "http://www.w3.org/Graphics/SVG/1.1/DTD/svg11.dtd">
<svg xmlns="http://www.w3.org/2000/svg" version="1.1" viewBox="0.00 0.00 173.00 154.00">
<path fill="#008242" d="
  M 172.61 150.88
  A 1.87 1.87 0.0 0 1 170.74 152.75
  L 2.68 152.75
  A 1.87 1.87 0.0 0 1 0.81 150.88
  L 0.81 2.80
  A 1.87 1.87 0.0 0 1 2.68 0.93
  L 170.74 0.93
  A 1.87 1.87 0.0 0 1 172.61 2.80
  L 172.61 150.88
  Z
  M 156.47 18.20
  A 1.87 1.87 0.0 0 0 154.60 16.33
  L 18.64 16.33
  A 1.87 1.87 0.0 0 0 16.77 18.20
  L 16.77 134.72
  A 1.87 1.87 0.0 0 0 18.64 136.59
  L 154.60 136.59
  A 1.87 1.87 0.0 0 0 156.47 134.72
  L 156.47 18.20
  Z"
/>
<path fill="#214738" d="
  M 128.72 43.24
  Q 128.63 43.41 128.52 43.57
  Q 122.09 53.79 115.00 64.54
  A 0.72 0.71 -73.1 0 0 115.59 65.65
  C 117.95 65.68 120.28 65.54 122.58 66.00
  C 136.56 68.79 143.11 82.17 140.10 95.57
  C 137.73 106.10 128.46 112.77 117.98 114.08
  Q 100.05 116.31 89.87 102.43
  A 0.93 0.91 64.0 0 0 88.88 102.08
  C 87.84 102.37 87.45 103.72 86.72 104.52
  Q 80.26 111.67 70.28 112.51
  C 68.04 112.70 65.85 113.06 63.57 113.07
  Q 49.48 113.14 35.40 113.03
  A 2.04 2.04 0.0 0 1 33.38 111.00
  Q 33.15 73.88 33.59 41.94
  A 1.28 1.28 0.0 0 1 34.86 40.68
  Q 49.08 40.58 66.15 40.72
  C 67.60 40.73 68.81 41.37 70.23 41.34
  Q 71.02 41.32 71.81 41.49
  C 78.30 42.90 84.00 46.01 86.14 52.42
  Q 88.19 58.56 86.38 64.66
  Q 84.75 70.16 79.06 73.76
  A 0.85 0.79 35.3 0 1 78.40 73.85
  Q 77.91 73.70 77.55 74.13
  A 1.00 1.00 0.0 0 0 78.02 75.73
  Q 82.62 77.12 86.28 80.70
  A 0.70 0.69 -56.9 0 0 87.41 80.46
  C 92.08 68.77 99.10 58.92 106.05 48.41
  Q 107.74 45.85 109.42 42.82
  A 4.20 4.20 0.0 0 1 113.09 40.66
  L 128.95 40.65
  A 0.76 0.75 78.0 0 1 129.64 41.10
  Q 130.09 42.13 129.21 42.70
  Q 128.90 42.90 128.72 43.24
  Z
  M 50.02 56.69
  L 50.06 67.61
  A 1.60 1.60 0.0 0 0 51.66 69.20
  L 61.30 69.17
  A 9.26 6.95 -0.2 0 0 70.54 62.18
  L 70.54 61.96
  A 9.26 6.95 -0.2 0 0 61.26 55.05
  L 51.62 55.08
  A 1.60 1.60 0.0 0 0 50.02 56.69
  Z
  M 124.6894 90.5166
  A 11.17 10.95 9.1 0 0 115.3918 77.9378
  A 11.17 10.95 9.1 0 0 102.6306 86.9834
  A 11.17 10.95 9.1 0 0 111.9282 99.5622
  A 11.17 10.95 9.1 0 0 124.6894 90.5166
  Z
  M 50.06 85.62
  L 50.04 97.20
  A 2.00 2.00 0.0 0 0 52.04 99.20
  L 63.29 99.22
  A 10.63 7.33 0.1 0 0 73.93 91.91
  L 73.93 90.99
  A 10.63 7.33 0.1 0 0 63.31 83.64
  L 52.06 83.62
  A 2.00 2.00 0.0 0 0 50.06 85.62
  Z"
/>
</svg>
