<?xml version="1.0" encoding="UTF-8" standalone="no"?>
<!DOCTYPE svg PUBLIC "-//W3C//DTD SVG 1.1//EN" "http://www.w3.org/Graphics/SVG/1.1/DTD/svg11.dtd">
<svg xmlns="http://www.w3.org/2000/svg" version="1.1" viewBox="0.00 0.00 1761.00 164.00">
<path fill="#343534" d="
  M 315.70 160.75
  L 313.72 160.74
  Q 313.33 160.74 313.19 160.37
  Q 312.89 159.58 312.04 159.72
  A 0.92 0.91 68.1 0 1 311.14 159.33
  Q 310.74 158.77 310.03 158.70
  Q 309.50 158.65 309.06 158.35
  C 296.78 150.00 290.51 136.78 286.93 122.52
  C 282.04 103.08 281.50 82.30 282.66 62.41
  Q 283.52 47.57 290.06 29.14
  Q 290.25 28.60 290.70 28.25
  Q 291.29 27.79 291.10 27.02
  Q 290.98 26.54 291.43 26.33
  L 291.84 26.13
  Q 292.37 25.89 292.20 25.33
  Q 291.87 24.25 292.97 24.14
  A 0.39 0.38 74.9 0 0 293.28 23.59
  Q 292.74 22.49 293.90 22.15
  Q 294.30 22.03 294.27 21.61
  Q 294.14 19.98 295.81 19.10
  Q 296.37 18.81 296.28 18.12
  Q 296.22 17.64 296.56 17.30
  L 306.13 7.64
  Q 306.55 7.22 307.13 7.34
  Q 307.98 7.53 308.18 6.70
  A 0.71 0.70 10.8 0 1 308.97 6.17
  Q 309.92 6.32 310.46 5.50
  Q 311.47 3.98 313.16 4.21
  Q 313.76 4.30 314.14 3.82
  Q 314.62 3.21 315.44 3.15
  Q 316.16 3.11 316.95 2.83
  Q 322.91 0.70 329.35 1.35
  Q 332.28 1.65 337.95 2.96
  Q 339.71 3.36 341.32 3.87
  Q 342.90 4.38 344.51 4.69
  Q 345.01 4.78 345.42 4.48
  Q 345.86 4.15 346.10 3.69
  A 0.88 0.88 0.0 0 1 347.17 3.28
  Q 347.70 3.47 348.04 3.03
  A 2.06 2.00 -42.2 0 1 351.39 3.15
  Q 351.76 3.76 352.39 4.14
  A 0.80 0.77 -73.6 0 1 352.77 4.87
  C 352.53 8.74 353.58 12.40 353.66 16.34
  Q 353.84 24.46 354.45 32.75
  Q 354.66 35.55 353.56 38.15
  A 1.20 1.19 8.9 0 1 352.55 38.88
  Q 347.88 39.22 346.37 34.79
  Q 344.19 28.41 341.43 22.09
  Q 338.03 14.34 330.34 12.32
  Q 327.49 11.57 324.89 12.33
  Q 321.17 13.40 319.33 15.54
  C 315.41 20.08 313.54 28.63 312.72 34.45
  C 311.64 42.11 310.80 50.23 310.76 58.45
  Q 310.66 83.66 310.79 108.88
  C 310.80 110.49 311.29 111.92 311.38 113.49
  Q 312.03 124.55 313.96 135.02
  C 314.38 137.27 315.23 139.44 315.85 141.63
  C 317.16 146.24 320.67 151.65 325.78 152.24
  C 337.76 153.61 343.67 144.04 345.32 133.71
  Q 346.31 127.54 346.80 121.24
  Q 347.12 117.02 351.58 117.01
  Q 355.47 117.01 355.97 120.41
  C 357.27 129.32 355.76 138.78 352.54 146.89
  Q 349.56 154.37 341.84 158.75
  Q 336.09 162.02 330.47 161.90
  Q 330.03 161.89 329.86 162.29
  Q 329.81 162.41 329.72 162.53
  Q 329.63 162.66 329.47 162.66
  L 320.99 162.76
  Q 320.50 162.76 320.16 162.40
  Q 319.16 161.35 317.64 161.82
  Q 316.49 162.18 316.14 161.07
  Q 316.04 160.75 315.70 160.75
  Z"
/>
<path fill="#343534" d="
  M 388.50 159.73
  Q 387.57 160.05 387.18 159.21
  Q 386.89 158.58 386.23 158.78
  Q 386.00 158.86 385.76 158.85
  Q 385.18 158.83 385.10 158.26
  Q 385.00 157.53 384.26 157.73
  Q 383.70 157.88 383.31 157.46
  Q 382.20 156.29 380.91 155.03
  Q 380.55 154.67 380.07 154.68
  Q 379.64 154.68 379.33 154.36
  Q 368.47 143.28 363.83 127.62
  Q 359.34 112.46 358.08 99.44
  Q 356.59 84.14 357.55 63.48
  Q 357.87 56.61 358.96 50.84
  Q 360.20 44.32 361.82 38.03
  C 364.71 26.87 370.92 15.66 379.90 8.19
  Q 385.32 3.67 393.41 1.82
  Q 396.46 1.12 399.91 1.14
  Q 403.25 1.16 406.21 1.39
  Q 406.92 1.45 407.45 1.96
  Q 407.96 2.47 408.66 2.29
  Q 410.38 1.85 411.43 3.15
  A 0.65 0.64 -32.8 0 0 412.24 3.32
  Q 413.15 2.83 413.63 3.67
  Q 413.86 4.08 414.32 4.19
  Q 415.83 4.55 417.26 5.41
  C 418.19 5.98 418.89 7.24 419.89 7.38
  Q 420.44 7.45 420.85 7.82
  Q 433.97 19.29 438.78 36.23
  Q 442.51 49.34 443.00 60.83
  Q 443.40 69.93 443.53 79.23
  C 443.77 96.49 442.08 114.23 436.40 130.25
  Q 431.69 143.54 422.76 153.19
  C 421.27 154.80 419.34 155.44 418.03 157.21
  A 1.16 1.15 17.0 0 1 417.14 157.68
  L 416.47 157.70
  Q 415.96 157.71 415.80 158.20
  Q 415.48 159.14 414.48 158.76
  Q 413.99 158.58 413.85 159.08
  Q 413.53 160.15 412.45 159.75
  Q 412.00 159.58 411.88 160.04
  Q 411.55 161.20 410.44 160.74
  Q 409.65 160.42 409.75 161.29
  Q 409.77 161.47 409.64 161.59
  Q 409.28 161.92 408.80 161.80
  Q 407.00 161.34 405.64 162.42
  A 1.91 1.90 -62.8 0 1 404.34 162.84
  Q 400.96 162.64 397.99 162.76
  Q 396.83 162.80 395.76 162.04
  Q 395.34 161.74 394.82 161.75
  L 392.03 161.81
  Q 391.42 161.83 391.15 161.28
  Q 390.86 160.66 390.21 160.81
  Q 389.72 160.92 389.29 160.64
  Q 389.12 160.53 389.17 160.32
  Q 389.37 159.43 388.50 159.73
  Z
  M 403.97 151.50
  Q 406.72 149.94 408.13 147.46
  Q 409.97 144.21 411.11 140.14
  C 413.27 132.38 413.97 124.84 414.72 116.68
  Q 415.25 110.89 415.29 104.31
  Q 415.35 93.58 415.21 82.50
  C 415.20 81.57 416.12 80.74 416.14 79.52
  C 416.20 75.96 415.33 72.62 415.35 69.03
  Q 415.40 59.71 415.15 51.97
  Q 414.74 39.36 412.02 25.73
  C 410.59 18.56 405.95 9.21 396.93 12.29
  C 394.23 13.22 392.49 15.18 391.39 17.73
  Q 388.58 24.27 387.65 31.76
  C 387.18 35.51 386.44 39.35 386.33 43.12
  C 386.13 49.88 385.70 56.63 385.70 63.34
  C 385.71 81.52 385.30 98.46 386.31 115.83
  Q 386.54 119.72 387.05 123.54
  C 388.04 130.93 388.38 138.43 391.42 145.40
  Q 393.61 150.39 398.31 152.01
  Q 401.25 153.03 403.97 151.50
  Z"
/>
<path fill="#343534" d="
  M 840.90 157.66
  Q 840.50 157.80 840.07 157.76
  A 1.18 1.17 -20.4 0 1 839.32 157.42
  L 830.74 148.99
  Q 830.45 148.71 830.39 148.30
  Q 830.16 146.87 828.81 146.00
  A 1.08 1.06 14.7 0 1 828.33 145.19
  L 828.27 144.31
  Q 828.24 143.86 827.80 143.71
  Q 827.10 143.48 827.21 142.68
  A 0.77 0.76 24.5 0 0 826.94 141.97
  Q 826.80 141.85 826.66 141.74
  Q 826.57 141.67 826.52 141.57
  C 824.67 137.81 822.77 134.12 821.49 130.03
  Q 817.41 116.98 816.04 105.08
  C 814.65 92.90 814.06 81.13 814.63 69.34
  Q 814.82 65.64 815.26 62.17
  C 815.67 58.94 815.84 55.76 816.33 52.57
  C 818.05 41.29 821.24 30.76 827.04 21.04
  C 832.99 11.08 841.90 3.75 853.67 2.09
  Q 855.71 1.81 857.74 1.37
  Q 860.33 0.81 862.55 2.00
  Q 863.02 2.25 863.55 2.25
  C 864.84 2.24 867.57 1.98 868.68 2.60
  Q 868.96 2.77 869.13 3.03
  Q 869.43 3.51 869.97 3.33
  Q 871.91 2.66 873.30 4.10
  Q 873.73 4.56 874.31 4.31
  Q 874.78 4.11 875.29 4.13
  A 0.55 0.55 0.0 0 1 875.78 4.84
  L 875.66 5.23
  A 0.25 0.24 -89.8 0 0 875.96 5.54
  Q 876.75 5.29 877.58 5.42
  Q 878.27 5.53 878.32 4.84
  Q 878.43 3.56 879.93 3.31
  Q 882.09 2.96 883.62 3.67
  Q 884.51 4.08 885.00 5.48
  Q 885.26 6.25 885.53 6.99
  Q 885.81 7.74 885.79 8.53
  Q 885.63 15.34 885.79 21.69
  A 1.55 1.55 0.0 0 0 886.10 22.59
  Q 886.69 23.38 886.69 24.50
  Q 886.72 30.69 886.75 36.72
  Q 886.76 38.54 884.95 38.63
  L 882.21 38.77
  Q 881.71 38.80 881.34 38.45
  L 878.38 35.66
  A 0.64 0.63 -58.5 0 1 878.22 34.96
  Q 878.77 33.56 877.55 32.64
  Q 877.10 32.30 877.23 31.75
  Q 877.57 30.24 876.48 29.51
  Q 876.04 29.22 876.14 28.70
  L 876.42 27.24
  Q 876.54 26.61 875.91 26.75
  Q 875.76 26.78 875.62 26.75
  Q 875.34 26.69 875.25 26.42
  Q 875.12 25.98 875.21 25.52
  Q 875.33 24.97 874.79 24.79
  Q 873.93 24.51 874.11 23.60
  Q 874.25 22.90 873.51 22.74
  Q 873.37 22.71 873.30 22.59
  Q 873.07 22.22 873.24 21.81
  Q 873.57 21.03 872.74 20.82
  A 0.68 0.67 89.3 0 1 872.23 20.32
  Q 872.13 19.91 872.44 19.55
  A 0.16 0.16 0.0 0 0 872.41 19.32
  Q 869.36 16.89 867.00 13.97
  Q 866.64 13.53 866.07 13.56
  Q 865.40 13.61 864.91 13.16
  Q 864.51 12.79 863.96 12.76
  Q 861.51 12.65 858.87 12.65
  Q 856.00 12.66 853.95 14.20
  C 848.48 18.29 846.47 26.69 845.44 33.21
  Q 844.01 42.27 843.43 51.76
  C 842.38 68.93 842.72 85.96 842.73 103.29
  C 842.73 104.43 843.51 105.12 843.52 106.16
  C 843.61 115.63 844.68 125.85 846.55 135.31
  C 847.58 140.48 849.77 148.07 854.15 150.97
  Q 856.17 152.30 858.92 152.35
  C 862.06 152.41 864.66 152.31 867.44 150.75
  C 877.05 145.35 879.17 132.16 878.22 122.09
  Q 878.17 121.46 878.77 121.29
  Q 879.38 121.11 879.24 120.51
  Q 879.10 119.89 879.53 119.42
  L 881.20 117.55
  Q 881.57 117.14 882.11 117.17
  L 886.30 117.38
  Q 886.79 117.41 887.11 117.77
  Q 887.71 118.44 887.75 119.32
  Q 887.77 119.80 888.10 120.15
  Q 888.19 120.25 888.29 120.33
  Q 888.49 120.50 888.50 120.75
  C 889.16 132.04 887.97 145.34 880.59 153.95
  Q 877.40 157.67 871.93 160.31
  C 870.78 160.86 869.67 160.60 868.66 161.37
  A 1.37 1.34 -62.5 0 1 867.81 161.65
  C 865.01 161.61 862.96 162.98 860.18 162.80
  Q 856.79 162.57 853.03 162.81
  C 852.16 162.86 851.36 162.64 850.74 162.01
  Q 850.33 161.60 849.77 161.72
  Q 848.79 161.94 847.82 161.76
  Q 847.44 161.69 847.26 161.35
  Q 846.88 160.65 846.13 160.80
  Q 845.63 160.89 845.25 160.54
  Q 845.06 160.37 845.12 160.18
  Q 845.35 159.46 844.63 159.71
  Q 843.46 160.14 843.19 159.08
  Q 843.12 158.77 842.80 158.79
  L 841.82 158.83
  Q 841.18 158.86 841.09 158.22
  Q 841.06 158.07 841.13 157.93
  Q 841.35 157.51 840.90 157.66
  Z"
/>
<path fill="#343534" d="
  M 541.08 156.20
  Q 541.28 156.08 541.53 156.15
  A 0.54 0.53 14.8 0 1 541.89 156.76
  L 541.55 158.53
  Q 541.32 159.71 540.12 159.71
  L 507.72 159.74
  A 0.63 0.62 -81.3 0 1 507.12 158.92
  C 508.26 155.30 509.78 151.87 510.31 148.25
  Q 511.18 142.29 511.17 138.50
  Q 511.09 105.81 511.58 73.81
  C 511.60 72.31 511.25 70.95 511.35 69.46
  A 0.51 0.51 0.0 0 0 510.63 68.96
  Q 510.07 69.21 509.99 69.76
  Q 508.56 79.43 507.03 88.98
  Q 505.08 101.18 503.15 113.74
  Q 500.54 130.69 497.60 148.76
  Q 496.72 154.16 495.48 158.59
  Q 495.15 159.73 493.97 159.73
  L 478.75 159.71
  Q 477.95 159.71 478.17 158.94
  Q 478.30 158.47 477.91 158.12
  Q 477.38 157.63 477.36 156.92
  Q 477.26 154.09 476.74 150.98
  Q 470.32 112.32 465.01 75.29
  Q 464.94 74.85 464.51 74.79
  Q 464.30 74.76 464.12 74.86
  Q 463.78 75.06 463.75 75.45
  Q 463.26 81.07 463.40 88.63
  Q 464.00 121.52 463.84 140.89
  Q 463.78 147.28 464.71 152.29
  A 1.41 1.41 0.0 0 0 465.32 153.21
  Q 466.59 154.04 466.78 155.54
  Q 466.86 156.09 467.41 156.20
  Q 467.68 156.25 467.72 156.52
  C 468.04 158.37 467.38 159.73 465.47 159.72
  Q 455.92 159.67 446.79 159.77
  Q 446.30 159.78 446.28 159.28
  L 446.19 156.31
  A 1.28 1.27 -21.0 0 1 446.65 155.29
  Q 448.08 154.10 448.77 152.20
  Q 450.58 147.25 450.48 141.48
  Q 450.07 118.49 450.58 95.93
  Q 450.81 85.37 450.67 76.29
  Q 450.21 48.11 450.24 21.70
  Q 450.24 16.79 448.99 12.63
  Q 448.47 10.89 447.10 9.23
  Q 445.76 7.60 446.19 4.85
  Q 446.28 4.31 446.82 4.22
  Q 447.68 4.08 448.43 3.58
  Q 448.89 3.28 449.44 3.28
  L 476.73 3.28
  A 1.38 1.36 62.6 0 1 477.53 3.54
  C 478.54 4.23 479.85 4.24 480.47 5.27
  C 481.06 6.23 480.63 7.30 480.77 8.25
  Q 487.24 52.19 493.12 99.78
  Q 493.18 100.24 493.62 100.09
  Q 493.87 100.02 493.91 99.75
  Q 495.16 92.61 495.85 85.50
  Q 496.83 75.61 498.15 65.76
  Q 502.32 34.75 505.39 9.79
  C 505.53 8.59 506.07 7.77 506.14 6.66
  C 506.24 5.00 507.10 4.95 507.92 3.85
  Q 508.35 3.29 509.05 3.29
  Q 524.16 3.30 538.57 3.26
  C 539.89 3.26 540.51 4.32 541.33 5.13
  Q 542.12 5.92 541.74 7.16
  Q 541.42 8.21 540.35 8.74
  Q 539.93 8.95 539.84 9.41
  Q 539.44 11.45 538.09 13.04
  Q 537.74 13.45 537.74 13.98
  Q 537.65 76.94 537.81 149.25
  Q 537.82 151.53 540.37 154.38
  Q 540.70 154.75 540.71 155.24
  Q 540.71 155.53 540.59 155.78
  Q 540.12 156.82 541.08 156.20
  Z"
/>
<path fill="#343534" d="
  M 702.05 89.65
  Q 701.74 89.91 701.37 89.74
  Q 700.98 89.57 701.16 89.19
  Q 701.51 88.42 701.34 87.61
  Q 701.26 87.25 700.95 87.03
  Q 699.18 85.78 698.21 84.10
  Q 697.99 83.72 697.54 83.72
  L 681.05 83.72
  Q 680.70 83.71 680.70 84.06
  L 680.69 149.52
  A 0.83 0.83 0.0 0 0 681.52 150.35
  L 696.01 150.25
  Q 696.37 150.25 696.64 150.01
  Q 697.90 148.87 699.76 149.42
  Q 700.32 149.58 700.68 149.12
  Q 701.19 148.47 702.05 148.31
  A 1.90 1.81 -71.4 0 0 703.04 147.79
  L 706.88 143.91
  Q 707.28 143.51 707.31 142.95
  Q 707.36 142.15 708.07 141.84
  Q 708.69 141.57 708.28 141.02
  Q 708.19 140.90 708.15 140.73
  Q 708.08 140.43 708.38 140.36
  Q 709.85 140.02 709.27 138.16
  Q 709.09 137.59 709.59 137.27
  Q 710.64 136.57 710.28 135.37
  Q 710.11 134.80 710.55 134.40
  Q 711.58 133.47 711.24 131.89
  A 1.74 1.72 -27.3 0 1 711.77 130.26
  Q 712.44 129.65 712.14 128.75
  A 1.12 1.12 0.0 0 1 712.76 127.36
  Q 713.46 127.07 713.25 126.32
  Q 713.09 125.71 713.53 125.27
  L 715.02 123.78
  Q 715.45 123.34 716.07 123.31
  L 718.74 123.21
  A 1.92 1.91 -1.0 0 1 720.74 125.13
  Q 720.71 137.51 719.55 151.06
  C 719.47 151.97 718.81 152.22 718.79 153.05
  Q 718.72 155.97 718.70 158.94
  A 1.82 1.82 0.0 0 1 716.88 160.74
  Q 686.04 160.72 655.14 160.73
  C 653.40 160.73 652.37 161.08 650.73 160.11
  Q 650.31 159.86 650.30 159.36
  L 650.29 156.01
  Q 650.28 155.56 650.57 155.21
  Q 651.58 153.96 652.96 153.09
  Q 653.36 152.83 653.36 152.35
  L 653.35 150.97
  Q 653.35 150.53 653.65 150.21
  Q 654.29 149.54 654.29 148.00
  Q 654.30 91.00 654.43 34.00
  Q 654.45 23.37 653.81 15.37
  Q 653.54 12.01 650.60 8.65
  A 1.28 1.27 -66.6 0 1 650.28 7.83
  L 650.20 4.81
  Q 650.18 4.16 650.82 4.18
  Q 651.54 4.19 652.11 3.70
  Q 652.55 3.31 653.14 3.31
  Q 682.73 3.25 710.30 3.31
  C 711.61 3.31 712.16 3.99 713.33 4.27
  A 1.63 1.63 0.0 0 1 714.57 5.73
  Q 715.59 18.34 715.97 29.57
  C 716.02 30.95 716.81 31.82 716.74 33.13
  Q 716.71 33.73 716.21 34.08
  Q 715.28 34.74 715.85 35.76
  A 0.56 0.56 0.0 0 1 715.49 36.58
  C 714.01 36.92 711.27 37.13 710.31 35.63
  Q 709.79 34.82 709.00 34.25
  A 1.44 1.42 -75.3 0 1 708.42 33.25
  L 708.22 31.59
  Q 708.16 31.07 707.73 30.79
  Q 706.92 30.26 707.16 29.32
  Q 707.24 29.01 706.96 28.85
  Q 705.78 28.14 706.44 26.58
  A 1.37 1.37 0.0 0 0 705.73 24.80
  Q 704.89 24.42 705.20 23.72
  Q 705.46 23.13 704.86 22.87
  Q 703.82 22.42 704.40 21.39
  A 0.44 0.44 0.0 0 0 704.13 20.75
  Q 703.97 20.71 703.83 20.79
  Q 703.51 20.97 703.29 20.68
  Q 702.95 20.23 703.28 19.73
  Q 703.58 19.26 703.11 18.97
  Q 701.42 17.94 700.17 16.25
  Q 699.75 15.68 699.04 15.78
  Q 698.32 15.87 698.27 15.19
  A 0.50 0.49 88.1 0 0 697.78 14.72
  L 681.46 14.69
  A 0.76 0.76 0.0 0 0 680.69 15.45
  Q 680.71 42.11 680.69 70.60
  A 0.84 0.82 76.5 0 0 681.89 71.35
  Q 682.22 71.18 683.00 71.19
  Q 690.61 71.30 697.78 71.26
  Q 698.40 71.26 698.37 70.64
  Q 698.33 69.79 699.20 69.66
  Q 699.59 69.61 699.67 69.21
  Q 699.84 68.32 700.75 68.35
  Q 701.23 68.37 701.31 67.90
  Q 701.49 66.72 701.13 65.78
  Q 700.89 65.17 701.53 65.07
  Q 701.78 65.03 702.00 65.18
  Q 702.67 65.65 702.40 64.88
  Q 701.73 62.96 704.24 62.30
  A 1.75 1.47 34.1 0 1 704.72 62.25
  L 707.05 62.39
  A 1.79 1.79 0.0 0 1 708.73 64.18
  L 708.71 91.31
  A 1.04 1.03 78.4 0 1 708.10 92.24
  Q 705.42 93.44 702.66 92.19
  Q 702.14 91.95 702.20 91.38
  L 702.36 89.82
  Q 702.40 89.38 702.05 89.65
  Z"
/>
<path fill="#343534" d="
  M 757.05 152.13
  Q 757.26 152.04 757.47 152.20
  Q 757.67 152.34 757.75 152.57
  Q 757.94 153.16 757.54 153.73
  Q 757.33 154.04 757.70 154.10
  Q 758.99 154.30 759.69 155.64
  Q 759.90 156.02 759.79 156.44
  Q 759.57 157.28 759.83 158.10
  Q 760.03 158.71 759.40 158.81
  Q 758.48 158.96 758.29 159.88
  Q 758.12 160.73 757.25 160.73
  Q 742.61 160.70 728.56 160.78
  Q 727.19 160.78 726.00 160.37
  Q 725.41 160.16 725.38 159.53
  L 725.23 156.38
  Q 725.20 155.81 725.61 155.40
  Q 727.83 153.15 728.18 150.74
  Q 729.35 142.55 729.33 131.78
  Q 729.27 81.25 729.24 32.75
  C 729.24 26.33 729.24 19.71 727.90 13.19
  C 727.42 10.81 725.90 8.49 725.43 5.93
  Q 725.06 3.91 727.10 3.70
  Q 731.38 3.24 735.75 3.25
  Q 752.50 3.29 769.25 3.27
  Q 769.71 3.27 769.89 3.77
  Q 770.05 4.20 770.51 4.21
  L 777.02 4.33
  Q 777.47 4.34 777.74 4.71
  Q 777.82 4.81 777.87 4.93
  Q 777.98 5.16 778.23 5.17
  L 780.81 5.20
  Q 781.27 5.21 781.62 5.50
  Q 782.99 6.66 784.73 6.26
  Q 785.30 6.13 785.73 6.53
  Q 785.89 6.68 785.82 6.89
  Q 785.45 7.91 786.40 7.38
  Q 787.38 6.84 787.90 7.81
  Q 788.13 8.22 788.59 8.16
  Q 789.39 8.05 789.81 8.74
  Q 790.06 9.15 790.55 9.19
  Q 791.97 9.30 792.69 10.64
  A 1.14 1.12 -10.1 0 0 793.52 11.21
  C 795.39 11.46 798.01 14.80 799.37 16.18
  Q 799.74 16.55 799.68 17.06
  Q 799.63 17.55 800.05 17.82
  Q 801.84 18.97 801.75 20.67
  Q 801.72 21.05 802.07 21.18
  Q 802.94 21.52 802.77 22.48
  Q 802.72 22.75 802.79 23.02
  Q 802.82 23.17 802.97 23.21
  Q 803.31 23.30 803.43 23.64
  Q 809.00 39.48 804.74 55.35
  C 802.88 62.31 798.57 68.65 792.34 72.55
  Q 786.66 76.11 780.38 77.97
  Q 779.07 78.36 778.69 79.68
  Q 778.47 80.45 779.27 80.35
  C 779.95 80.27 780.59 80.23 781.23 80.51
  Q 786.52 82.80 788.14 83.85
  Q 796.21 89.14 799.84 98.14
  Q 802.25 104.09 803.29 111.93
  Q 804.90 124.02 806.19 134.99
  Q 806.88 140.89 808.13 146.83
  Q 808.71 149.58 810.39 151.53
  Q 810.68 151.87 810.69 152.32
  L 810.69 152.75
  Q 810.70 153.29 811.25 153.28
  L 814.78 153.20
  A 1.28 1.25 -21.9 0 1 815.72 153.59
  L 816.16 154.07
  Q 816.60 154.53 817.18 154.28
  Q 817.59 154.10 817.75 154.48
  Q 817.86 154.73 817.82 155.00
  Q 817.75 155.53 817.49 156.00
  Q 817.09 156.72 817.81 156.31
  Q 818.03 156.19 818.28 156.16
  Q 818.94 156.09 818.84 156.74
  Q 818.73 157.46 818.12 157.93
  Q 817.41 158.48 817.87 159.22
  Q 818.01 159.44 817.84 159.64
  Q 817.50 160.06 817.04 159.77
  Q 816.26 159.28 816.10 160.18
  A 0.79 0.79 0.0 0 1 815.06 160.79
  Q 813.83 160.36 812.96 161.27
  Q 812.56 161.69 811.98 161.69
  L 798.24 161.70
  A 1.99 1.96 -27.5 0 1 797.13 161.36
  C 796.44 160.89 795.80 160.65 794.94 160.80
  Q 793.91 160.98 793.22 160.34
  Q 792.77 159.93 792.19 159.72
  Q 787.40 157.95 785.43 155.54
  Q 780.29 149.23 778.73 140.49
  C 777.80 135.30 776.81 130.38 776.29 125.13
  Q 775.45 116.69 774.32 108.48
  C 774.08 106.75 774.49 105.01 773.53 103.48
  Q 773.25 103.03 773.25 102.50
  L 773.24 98.18
  Q 773.23 97.61 772.88 97.16
  Q 771.85 95.83 772.29 94.09
  Q 772.45 93.46 771.88 93.16
  Q 770.99 92.70 771.51 91.82
  Q 771.72 91.45 771.32 91.31
  Q 770.37 90.97 770.27 89.98
  Q 770.21 89.38 769.78 88.96
  L 767.75 86.99
  Q 767.37 86.63 767.17 86.14
  Q 766.87 85.45 766.15 85.76
  Q 765.38 86.10 765.14 85.30
  Q 765.07 85.07 764.90 84.90
  A 0.55 0.53 66.7 0 0 764.52 84.74
  L 756.26 84.66
  Q 755.71 84.65 755.71 85.20
  Q 755.71 117.24 755.70 149.25
  Q 755.70 149.88 756.26 150.10
  Q 756.72 150.29 756.78 150.79
  Q 756.84 151.26 756.63 151.66
  Q 756.18 152.51 757.05 152.13
  Z
  M 767.92 15.21
  Q 767.13 14.76 766.22 14.76
  L 756.47 14.66
  A 0.76 0.75 0.0 0 0 755.71 15.41
  L 755.71 72.77
  A 0.57 0.57 0.0 0 0 756.28 73.34
  L 767.01 73.25
  A 0.85 0.82 -64.7 0 0 767.56 73.04
  Q 768.41 72.30 769.71 72.29
  Q 770.05 72.29 770.14 71.96
  Q 770.20 71.77 770.23 71.58
  Q 770.33 70.91 770.96 71.15
  L 771.54 71.36
  Q 772.03 71.54 772.22 71.05
  C 772.86 69.46 774.51 68.59 775.42 66.93
  Q 777.39 63.33 778.08 60.15
  Q 779.75 52.51 780.18 42.54
  Q 780.29 40.05 779.71 37.62
  Q 778.90 34.23 779.38 30.34
  A 1.08 1.05 29.9 0 0 779.15 29.53
  Q 777.82 27.87 778.35 25.39
  A 0.51 0.51 0.0 0 0 777.78 24.78
  Q 777.44 24.83 777.31 24.55
  Q 777.04 24.03 777.21 23.47
  Q 777.39 22.84 776.74 22.76
  Q 775.98 22.65 776.29 21.95
  Q 776.65 21.14 775.73 20.84
  A 0.82 0.78 76.0 0 1 775.43 20.65
  L 771.21 16.46
  Q 771.10 16.34 771.07 16.18
  Q 771.03 16.01 771.11 15.90
  Q 771.49 15.36 770.86 15.55
  Q 769.34 16.01 767.92 15.21
  Z"
/>
<path fill="#343534" d="
  M 952.65 149.14
  Q 952.34 150.49 953.34 151.14
  Q 953.71 151.38 953.70 151.82
  L 953.69 152.22
  Q 953.68 152.55 953.91 152.79
  L 957.16 156.01
  A 2.14 2.13 47.4 0 1 957.03 159.16
  Q 956.34 159.74 955.84 160.56
  A 0.64 0.64 0.0 0 1 955.09 160.84
  Q 954.76 160.74 954.39 160.74
  Q 944.00 160.68 934.04 160.75
  Q 933.52 160.75 933.16 160.38
  L 931.69 158.88
  A 2.01 2.01 0.0 0 1 931.71 156.06
  L 936.55 151.23
  A 4.88 4.86 -17.5 0 0 937.90 148.65
  L 963.20 6.20
  A 1.13 1.12 69.3 0 1 963.41 5.73
  Q 964.05 4.89 963.94 3.96
  Q 963.87 3.31 964.53 3.30
  L 982.97 3.28
  Q 983.60 3.28 983.88 3.85
  Q 984.98 6.12 984.78 7.93
  Q 984.73 8.34 984.97 8.68
  Q 985.65 9.68 985.76 10.98
  Q 985.86 12.09 986.04 13.12
  Q 996.46 72.04 1007.21 132.56
  Q 1008.83 141.68 1010.40 148.75
  Q 1011.37 153.15 1014.31 155.11
  Q 1014.73 155.39 1014.72 155.89
  L 1014.68 158.89
  A 1.88 1.88 0.0 0 1 1012.80 160.74
  Q 997.64 160.71 982.73 160.75
  C 981.64 160.75 980.27 160.66 979.39 159.93
  Q 979.10 159.68 978.74 159.77
  Q 978.08 159.92 978.18 159.26
  Q 978.44 157.52 978.14 155.92
  Q 978.08 155.61 978.32 155.39
  L 980.84 153.05
  Q 981.20 152.72 981.16 152.23
  L 981.13 151.84
  Q 981.08 151.19 981.72 151.17
  Q 981.98 151.16 982.12 151.38
  Q 982.56 152.05 982.47 151.25
  Q 982.10 147.82 982.30 144.09
  Q 982.33 143.53 981.96 143.11
  Q 980.98 142.00 981.20 140.62
  Q 981.71 137.39 980.47 135.24
  Q 980.23 134.82 980.23 134.32
  L 980.27 130.25
  A 2.52 2.51 0.3 0 0 977.75 127.71
  L 955.93 127.73
  A 0.31 0.31 0.0 0 0 955.62 128.05
  C 955.72 130.30 956.44 133.64 954.88 135.38
  Q 954.46 135.86 954.59 136.49
  Q 955.25 139.53 954.17 141.96
  Q 953.59 143.28 953.63 144.70
  Q 953.69 146.29 953.78 148.00
  Q 953.80 148.39 953.58 148.72
  Q 953.40 148.96 953.19 148.87
  Q 952.76 148.68 952.65 149.14
  Z
  M 959.46 106.63
  C 959.26 107.89 958.59 108.58 958.69 109.99
  Q 958.88 112.54 958.66 114.69
  Q 958.60 115.30 959.21 115.30
  L 977.02 115.27
  Q 977.62 115.27 977.49 114.68
  Q 977.05 112.73 977.22 110.85
  Q 977.25 110.58 977.06 110.38
  Q 976.97 110.29 976.89 110.18
  Q 976.75 109.99 976.72 109.76
  Q 974.26 95.00 972.18 80.21
  C 971.30 73.95 970.26 67.81 969.57 61.51
  Q 969.02 56.52 968.26 51.49
  Q 968.19 51.01 967.71 50.91
  Q 967.20 50.80 967.14 51.33
  Q 966.73 55.30 966.08 59.72
  Q 964.98 67.18 964.10 74.24
  Q 962.40 87.84 959.46 106.63
  Z"
/>
<path fill="#343534" d="
  M 1137.79 157.65
  Q 1137.24 157.74 1136.68 157.65
  Q 1136.21 157.57 1135.95 157.16
  Q 1135.28 156.10 1134.09 155.76
  A 2.13 2.11 73.0 0 1 1133.22 155.29
  Q 1122.26 145.86 1116.72 130.87
  Q 1111.69 117.27 1110.50 104.37
  Q 1110.25 101.69 1109.81 99.35
  Q 1109.35 96.92 1109.33 94.32
  Q 1109.23 81.70 1109.29 69.26
  C 1109.38 52.18 1112.81 35.70 1121.54 21.11
  Q 1124.99 15.33 1129.26 11.64
  Q 1133.99 7.55 1140.79 5.28
  Q 1141.94 4.90 1142.75 4.32
  A 0.81 0.80 26.9 0 1 1143.22 4.17
  L 1145.52 4.21
  A 0.64 0.64 0.0 0 0 1146.11 3.85
  L 1146.25 3.57
  Q 1146.41 3.25 1146.77 3.25
  Q 1150.93 3.34 1155.21 3.23
  C 1156.08 3.21 1156.85 3.47 1157.44 4.12
  Q 1157.81 4.53 1158.32 4.35
  Q 1160.34 3.63 1161.40 5.35
  Q 1161.70 5.83 1162.11 5.44
  Q 1162.70 4.87 1163.44 5.16
  Q 1164.00 5.37 1163.81 5.93
  Q 1163.76 6.05 1163.72 6.17
  Q 1163.37 7.03 1164.13 6.49
  Q 1164.69 6.10 1165.28 6.09
  Q 1165.73 6.08 1165.87 6.66
  Q 1165.96 7.04 1165.66 7.30
  Q 1165.54 7.41 1165.62 7.57
  Q 1165.79 7.90 1166.05 7.63
  Q 1166.53 7.14 1167.26 7.07
  A 0.59 0.59 0.0 0 1 1167.83 7.95
  L 1167.66 8.25
  Q 1167.21 9.05 1168.06 8.49
  Q 1168.49 8.22 1168.98 8.19
  Q 1169.50 8.17 1169.84 8.57
  Q 1170.95 9.85 1172.12 11.07
  Q 1172.92 11.90 1173.89 12.25
  Q 1175.48 12.83 1176.53 14.40
  Q 1176.79 14.80 1176.73 15.28
  Q 1176.69 15.56 1176.59 15.82
  Q 1176.30 16.52 1177.05 16.23
  Q 1177.21 16.17 1177.37 16.22
  Q 1177.52 16.27 1177.63 16.39
  Q 1179.69 18.56 1180.18 19.34
  Q 1188.23 32.06 1190.74 45.28
  Q 1193.59 60.35 1193.66 69.76
  Q 1193.74 81.39 1193.74 92.25
  Q 1193.74 93.26 1193.19 94.06
  Q 1192.90 94.50 1192.89 95.02
  Q 1192.56 109.96 1187.86 125.21
  C 1184.60 135.79 1179.65 146.05 1171.62 153.49
  Q 1170.66 154.39 1169.48 154.93
  C 1168.41 155.43 1167.68 156.59 1166.61 157.28
  Q 1162.07 160.18 1157.73 160.66
  Q 1155.56 160.90 1152.99 161.52
  Q 1150.09 162.22 1147.31 160.92
  Q 1146.57 160.57 1143.88 160.64
  Q 1143.36 160.66 1143.03 160.26
  Q 1142.30 159.36 1141.24 159.74
  Q 1140.73 159.92 1140.29 159.62
  Q 1140.11 159.50 1140.17 159.30
  Q 1140.37 158.49 1139.56 158.70
  Q 1139.28 158.77 1139.00 158.83
  Q 1138.45 158.95 1138.14 158.48
  Q 1138.02 158.29 1138.12 158.09
  Q 1138.40 157.54 1137.79 157.65
  Z
  M 1154.79 150.27
  Q 1157.90 149.15 1159.36 145.69
  Q 1162.63 137.97 1163.65 129.62
  Q 1164.96 118.87 1165.75 107.34
  C 1166.64 94.33 1166.24 80.39 1166.31 67.08
  C 1166.37 57.12 1165.33 46.82 1164.26 36.77
  Q 1163.15 26.30 1159.32 18.97
  Q 1156.77 14.08 1151.95 13.70
  C 1149.71 13.52 1148.54 14.58 1146.51 14.92
  Q 1146.04 15.00 1145.69 15.33
  C 1144.43 16.53 1143.29 17.39 1142.59 19.08
  Q 1140.36 24.50 1139.40 30.07
  Q 1137.92 38.76 1137.23 47.70
  Q 1136.68 54.94 1136.69 66.04
  C 1136.71 81.03 1136.24 96.65 1137.19 111.47
  Q 1137.77 120.50 1138.87 128.93
  C 1139.60 134.57 1140.55 140.96 1143.32 145.92
  C 1144.95 148.82 1149.10 152.45 1152.69 151.06
  Q 1153.75 150.65 1154.79 150.27
  Z"
/>
<path fill="#343534" d="
  M 1293.18 137.13
  Q 1293.41 137.00 1293.70 137.50
  Q 1293.83 137.75 1293.83 138.03
  L 1293.84 138.55
  Q 1293.84 138.99 1294.23 139.17
  Q 1295.15 139.61 1294.59 140.59
  Q 1294.06 141.52 1295.09 141.19
  Q 1295.22 141.14 1295.36 141.17
  Q 1295.76 141.28 1295.79 141.70
  Q 1295.84 142.29 1295.59 142.86
  Q 1295.28 143.57 1296.00 143.32
  Q 1296.15 143.27 1296.32 143.30
  Q 1296.59 143.35 1296.78 143.55
  Q 1298.19 145.08 1299.61 146.49
  Q 1299.81 146.69 1299.91 146.97
  Q 1300.11 147.53 1300.67 147.26
  Q 1301.22 146.99 1301.68 147.40
  Q 1301.83 147.53 1301.83 147.73
  Q 1301.83 148.41 1302.50 148.31
  Q 1303.64 148.15 1304.30 149.04
  A 1.01 1.01 0.0 0 0 1305.38 149.42
  Q 1306.52 149.12 1307.23 149.92
  Q 1307.53 150.25 1307.98 150.25
  L 1316.13 150.29
  Q 1316.57 150.29 1316.86 149.96
  C 1317.91 148.74 1318.86 149.72 1319.98 149.20
  Q 1320.17 149.10 1320.18 148.86
  A 0.43 0.42 -7.8 0 1 1320.48 148.47
  Q 1325.88 146.86 1328.11 141.26
  Q 1330.54 135.11 1329.67 128.27
  C 1328.36 118.07 1323.86 110.03 1317.72 101.66
  Q 1308.96 89.71 1300.10 77.60
  Q 1293.56 68.67 1288.88 60.67
  C 1286.43 56.49 1284.64 51.73 1283.83 46.71
  Q 1282.02 35.42 1283.36 27.50
  Q 1283.68 25.60 1285.41 21.52
  Q 1285.54 21.23 1285.83 21.11
  Q 1286.01 21.04 1286.10 20.87
  Q 1286.19 20.70 1286.16 20.52
  Q 1285.98 19.50 1286.84 19.24
  Q 1287.40 19.07 1287.30 18.49
  L 1287.23 18.10
  A 0.99 0.98 63.5 0 1 1287.52 17.22
  Q 1291.37 13.55 1295.05 9.72
  Q 1295.62 9.12 1296.44 9.29
  Q 1297.03 9.41 1297.17 8.82
  Q 1297.33 8.13 1298.04 8.23
  Q 1298.54 8.31 1298.96 8.02
  Q 1299.14 7.91 1299.20 7.72
  Q 1299.41 7.12 1300.02 7.27
  Q 1300.85 7.46 1301.27 6.71
  Q 1301.59 6.14 1302.23 6.29
  Q 1302.92 6.45 1303.23 5.81
  Q 1303.56 5.16 1304.28 5.28
  Q 1305.95 5.55 1307.17 4.66
  Q 1307.75 4.24 1308.46 4.25
  Q 1310.06 4.27 1311.65 3.84
  C 1314.67 3.03 1321.43 2.82 1324.41 3.90
  Q 1326.31 4.58 1328.60 4.25
  Q 1329.34 4.14 1329.79 4.77
  A 1.13 1.13 0.0 0 0 1330.67 5.22
  Q 1332.51 5.26 1334.43 5.44
  Q 1335.10 5.51 1335.46 6.01
  Q 1335.89 6.63 1336.57 6.31
  Q 1337.50 5.87 1338.14 6.68
  Q 1338.47 7.10 1338.91 6.80
  Q 1340.14 5.98 1340.98 4.72
  A 1.04 1.04 0.0 0 1 1341.83 4.25
  L 1344.22 4.20
  Q 1344.68 4.19 1344.83 4.62
  Q 1345.00 5.14 1345.49 5.37
  Q 1346.83 5.98 1346.75 7.45
  Q 1346.44 12.74 1347.28 17.29
  Q 1348.06 21.43 1347.65 33.78
  A 1.08 1.07 -66.0 0 0 1347.94 34.54
  Q 1348.88 35.51 1348.84 37.04
  Q 1348.82 37.90 1348.03 37.61
  Q 1347.47 37.41 1347.60 37.99
  L 1347.82 39.02
  Q 1347.98 39.75 1347.23 39.74
  L 1342.52 39.68
  Q 1341.68 39.67 1341.52 38.84
  Q 1341.40 38.17 1340.79 37.84
  Q 1340.29 37.57 1340.32 37.00
  L 1340.40 35.48
  Q 1340.43 34.90 1339.87 34.76
  Q 1338.86 34.51 1339.21 33.47
  Q 1339.40 32.94 1338.85 32.78
  Q 1338.70 32.73 1338.55 32.70
  A 0.58 0.57 4.6 0 1 1338.09 32.17
  Q 1338.07 31.65 1338.26 31.18
  Q 1338.44 30.71 1338.10 30.34
  Q 1336.98 29.13 1337.22 27.43
  Q 1337.28 26.99 1336.86 26.85
  Q 1335.75 26.49 1336.29 25.38
  Q 1336.53 24.89 1335.98 24.82
  Q 1334.98 24.70 1335.19 23.68
  Q 1335.32 23.03 1334.69 22.82
  Q 1334.15 22.64 1334.24 22.16
  Q 1334.37 21.53 1333.92 21.08
  L 1329.16 16.30
  Q 1328.83 15.97 1328.36 15.89
  Q 1327.60 15.76 1327.13 15.17
  A 1.02 1.02 0.0 0 0 1326.27 14.78
  Q 1324.94 14.85 1323.78 14.07
  A 2.16 2.08 -23.8 0 0 1322.85 13.73
  Q 1316.16 13.02 1309.47 16.82
  Q 1308.01 17.65 1307.59 19.27
  C 1307.38 20.10 1306.30 20.59 1305.91 21.70
  Q 1303.72 27.91 1306.12 34.27
  Q 1308.85 41.47 1312.89 47.26
  Q 1324.44 63.87 1335.21 78.38
  C 1340.82 85.94 1346.29 94.13 1349.91 102.94
  C 1352.74 109.83 1353.19 116.63 1353.27 124.09
  Q 1353.33 129.83 1352.37 134.24
  Q 1348.67 151.12 1332.31 158.00
  Q 1329.56 159.15 1326.37 159.90
  Q 1325.84 160.02 1325.53 160.46
  Q 1325.40 160.64 1325.20 160.73
  Q 1324.99 160.83 1324.76 160.82
  Q 1322.53 160.73 1320.26 160.72
  Q 1319.76 160.72 1319.38 161.03
  Q 1318.66 161.62 1318.27 161.64
  Q 1315.79 161.73 1313.00 161.78
  C 1312.05 161.80 1311.38 161.51 1310.66 160.92
  A 1.31 1.30 64.3 0 0 1309.84 160.63
  Q 1307.48 160.66 1305.16 160.80
  A 1.90 1.87 53.0 0 1 1304.42 160.69
  Q 1304.10 160.57 1304.23 160.26
  Q 1304.41 159.83 1303.96 159.79
  Q 1302.45 159.64 1301.19 159.81
  Q 1300.66 159.89 1300.28 159.52
  Q 1300.07 159.32 1300.22 159.08
  Q 1300.59 158.48 1299.88 158.64
  L 1299.04 158.82
  Q 1298.41 158.96 1298.17 158.37
  Q 1297.91 157.71 1297.22 157.75
  Q 1296.48 157.78 1296.21 157.10
  Q 1295.93 156.41 1295.29 156.70
  Q 1294.77 156.92 1294.34 156.57
  Q 1294.11 156.38 1294.19 156.22
  Q 1294.49 155.60 1293.81 155.66
  Q 1292.81 155.75 1291.85 155.70
  Q 1291.38 155.67 1291.06 156.02
  L 1288.73 158.55
  Q 1288.38 158.93 1287.89 158.81
  Q 1287.19 158.64 1286.41 158.58
  Q 1285.56 158.51 1285.93 159.24
  Q 1285.97 159.32 1285.96 159.41
  Q 1285.83 160.49 1285.35 159.52
  Q 1284.87 158.58 1283.72 158.66
  Q 1282.92 158.72 1283.16 157.96
  Q 1283.60 156.53 1282.68 155.61
  Q 1282.28 155.21 1282.28 154.64
  Q 1282.30 145.60 1282.21 134.95
  Q 1282.20 134.23 1281.70 133.73
  Q 1281.30 133.32 1281.30 132.75
  L 1281.23 122.14
  A 0.47 0.46 81.1 0 0 1280.63 121.70
  L 1280.35 121.79
  Q 1279.63 122.01 1279.66 122.77
  L 1279.81 126.49
  A 1.59 1.56 61.8 0 1 1279.53 127.45
  Q 1278.45 128.98 1278.74 130.95
  Q 1278.83 131.57 1278.31 131.91
  Q 1277.53 132.42 1277.67 133.38
  Q 1277.74 133.95 1277.48 134.47
  C 1275.97 137.36 1274.59 140.79 1272.74 143.29
  Q 1265.47 153.12 1253.48 156.74
  Q 1253.02 156.88 1252.50 156.87
  Q 1252.00 156.86 1251.66 157.26
  Q 1251.26 157.72 1250.66 157.71
  Q 1248.93 157.69 1247.35 158.17
  C 1244.52 159.02 1241.02 158.81 1238.14 158.85
  Q 1237.64 158.86 1237.20 159.10
  Q 1236.08 159.75 1234.85 159.74
  Q 1219.46 159.65 1202.96 159.74
  Q 1202.62 159.75 1202.33 159.55
  Q 1202.11 159.40 1202.14 159.20
  Q 1202.20 158.70 1201.71 158.70
  L 1198.83 158.69
  Q 1198.23 158.69 1198.24 158.08
  L 1198.32 155.03
  Q 1198.34 154.50 1198.77 154.18
  Q 1199.73 153.46 1200.15 152.49
  Q 1200.70 151.23 1201.35 149.96
  Q 1202.05 148.62 1202.11 147.36
  Q 1202.29 143.45 1202.29 139.81
  Q 1202.22 86.58 1202.34 29.09
  Q 1202.35 20.55 1200.92 13.90
  Q 1200.54 12.14 1198.70 10.67
  A 1.19 1.16 -67.6 0 1 1198.28 9.63
  Q 1198.45 8.20 1198.13 6.72
  Q 1198.03 6.22 1198.54 6.18
  Q 1199.05 6.15 1199.62 6.31
  Q 1200.32 6.51 1200.18 5.81
  Q 1200.15 5.65 1200.27 5.52
  Q 1200.47 5.28 1200.78 5.28
  Q 1216.52 5.32 1232.25 5.33
  Q 1242.39 5.34 1252.17 7.86
  Q 1253.80 8.29 1255.24 9.01
  Q 1256.76 9.76 1258.25 10.37
  Q 1258.68 10.55 1258.99 10.90
  Q 1259.39 11.35 1260.01 11.30
  Q 1260.44 11.27 1260.68 11.62
  Q 1261.15 12.32 1262.00 12.29
  Q 1262.60 12.27 1262.94 12.78
  Q 1263.81 14.10 1265.22 14.39
  A 0.86 0.81 71.7 0 1 1265.64 14.62
  L 1269.08 17.92
  Q 1269.46 18.28 1269.58 18.80
  C 1269.85 19.98 1270.84 20.46 1271.44 21.52
  Q 1275.77 29.19 1276.09 37.21
  Q 1276.25 41.37 1276.12 45.71
  C 1275.82 56.54 1270.35 63.74 1262.45 70.47
  A 1.03 1.02 -65.1 0 1 1261.78 70.72
  Q 1261.07 70.71 1260.76 71.31
  Q 1259.85 73.05 1258.25 72.77
  Q 1257.88 72.71 1257.91 73.08
  Q 1257.94 73.53 1257.54 73.84
  A 0.41 0.41 0.0 0 1 1256.93 73.72
  Q 1256.78 73.47 1256.53 73.57
  Q 1256.25 73.67 1256.15 73.94
  Q 1255.66 75.19 1254.29 74.69
  Q 1253.85 74.53 1253.36 74.59
  Q 1251.46 74.81 1253.02 75.92
  Q 1253.56 76.30 1253.78 76.82
  Q 1254.01 77.40 1254.63 77.32
  Q 1255.49 77.21 1256.29 77.38
  Q 1256.77 77.49 1256.98 77.94
  Q 1257.25 78.52 1257.82 78.25
  Q 1258.33 78.02 1258.72 78.41
  Q 1258.99 78.68 1258.88 79.06
  Q 1258.65 79.88 1259.37 79.42
  Q 1260.39 78.76 1260.92 79.86
  Q 1261.13 80.29 1261.61 80.24
  L 1261.96 80.21
  Q 1262.55 80.15 1262.81 80.69
  Q 1263.13 81.38 1263.86 81.28
  Q 1264.46 81.19 1264.83 81.67
  Q 1266.12 83.35 1267.82 84.16
  Q 1269.24 84.84 1270.12 85.93
  Q 1277.80 95.43 1279.30 103.76
  Q 1279.71 106.03 1280.15 107.98
  Q 1280.69 110.41 1280.72 112.20
  Q 1280.79 116.56 1280.67 120.70
  Q 1280.64 121.53 1281.44 121.31
  Q 1281.99 121.17 1282.16 120.61
  Q 1282.32 120.05 1282.90 120.14
  Q 1284.50 120.38 1286.11 120.22
  Q 1287.11 120.12 1287.90 120.70
  Q 1289.16 121.62 1288.58 122.88
  Q 1288.18 123.75 1288.96 123.19
  Q 1289.12 123.07 1289.30 123.11
  Q 1289.79 123.23 1289.77 123.73
  L 1289.68 125.96
  A 1.05 1.03 -66.1 0 0 1289.97 126.73
  Q 1291.18 128.01 1290.70 129.79
  Q 1290.56 130.31 1290.97 130.66
  Q 1291.90 131.46 1291.66 132.71
  Q 1291.54 133.31 1291.99 133.73
  Q 1293.20 134.85 1292.65 136.70
  Q 1292.39 137.57 1293.18 137.13
  Z
  M 1246.30 64.44
  Q 1246.49 64.17 1246.81 64.18
  A 0.51 0.51 0.0 0 0 1247.28 63.45
  Q 1246.88 62.61 1247.70 62.22
  A 0.97 0.97 0.0 0 0 1248.25 61.30
  Q 1248.18 59.97 1248.57 58.76
  Q 1249.44 56.04 1249.80 51.86
  Q 1250.80 40.21 1249.61 31.85
  C 1248.57 24.53 1245.26 17.88 1237.39 16.66
  Q 1235.27 16.34 1233.23 15.89
  Q 1231.50 15.52 1229.22 15.67
  Q 1228.70 15.70 1228.70 16.22
  L 1228.70 71.75
  Q 1228.70 72.30 1229.25 72.30
  L 1237.10 72.30
  Q 1237.54 72.30 1237.80 71.94
  Q 1238.57 70.89 1239.90 71.30
  Q 1240.41 71.45 1240.79 71.08
  Q 1243.54 68.32 1246.27 65.61
  Q 1246.37 65.51 1246.33 65.39
  Q 1246.28 65.26 1246.23 65.13
  Q 1246.07 64.76 1246.30 64.44
  Z
  M 1237.22 83.05
  L 1236.67 82.63
  Q 1236.30 82.35 1235.83 82.40
  Q 1232.80 82.76 1229.58 82.39
  A 0.96 0.96 0.0 0 0 1228.51 83.35
  L 1228.57 147.83
  Q 1228.57 148.41 1229.14 148.45
  Q 1234.17 148.78 1238.89 147.90
  C 1249.47 145.94 1252.51 134.26 1252.98 125.24
  Q 1253.19 121.32 1253.56 117.04
  Q 1253.92 112.90 1252.56 101.17
  Q 1251.36 90.96 1242.94 84.82
  Q 1240.94 83.37 1238.36 83.42
  Q 1237.73 83.43 1237.22 83.05
  Z"
/>
<path fill="#343534" d="
  M 550.02 159.58
  Q 549.46 159.75 548.82 159.82
  Q 548.06 159.90 548.17 159.15
  Q 548.34 158.00 548.09 156.85
  Q 547.97 156.31 548.48 156.10
  Q 548.81 155.97 549.07 156.19
  Q 549.62 156.66 549.38 155.98
  Q 548.71 154.07 550.83 153.28
  Q 551.42 153.06 551.33 152.44
  L 551.28 152.14
  Q 551.21 151.68 551.55 151.38
  Q 552.29 150.69 552.29 149.70
  Q 552.31 82.26 552.28 14.66
  Q 552.28 13.84 551.75 13.17
  Q 551.45 12.79 551.41 12.31
  L 551.38 11.95
  Q 551.34 11.44 550.98 11.09
  C 549.98 10.12 548.49 9.23 548.18 7.81
  Q 547.75 5.89 548.98 4.66
  Q 549.36 4.27 549.90 4.27
  L 580.78 4.29
  A 1.91 1.91 0.0 0 1 582.69 6.17
  Q 582.70 6.99 582.95 7.73
  Q 583.26 8.65 583.40 9.60
  Q 589.79 54.40 595.07 95.47
  Q 595.20 96.44 595.72 97.27
  Q 596.60 98.67 596.83 97.04
  Q 598.02 88.66 598.90 81.01
  Q 601.93 54.72 604.90 33.76
  Q 605.74 27.83 606.21 23.68
  Q 606.61 20.16 607.24 16.34
  C 607.86 12.53 608.03 8.68 609.16 4.73
  Q 609.29 4.28 609.76 4.28
  L 643.25 4.28
  Q 643.76 4.28 643.81 4.78
  Q 644.14 7.90 642.69 9.46
  Q 641.73 10.48 641.27 12.07
  Q 639.80 17.09 639.78 22.00
  Q 639.57 86.82 639.82 147.74
  A 1.62 1.58 28.4 0 0 640.10 148.64
  Q 640.96 149.93 640.76 151.43
  A 3.22 2.96 16.2 0 0 642.69 154.61
  Q 643.62 155.01 643.67 156.02
  Q 643.74 157.75 643.69 159.46
  A 0.90 0.88 78.5 0 1 643.19 160.23
  Q 642.12 160.76 640.79 160.75
  Q 626.99 160.70 613.14 160.75
  C 611.76 160.76 611.26 160.20 610.05 160.00
  Q 609.53 159.92 609.40 159.41
  C 608.85 157.32 610.81 154.65 611.71 152.79
  C 613.21 149.71 612.84 145.55 612.89 142.24
  Q 613.41 110.00 613.34 77.77
  Q 613.34 75.74 613.13 73.64
  Q 613.07 73.08 612.51 73.15
  Q 612.33 73.17 612.18 73.31
  Q 612.06 73.42 612.04 73.58
  Q 605.52 114.93 598.60 157.63
  Q 598.08 160.83 594.84 160.77
  Q 589.18 160.67 583.99 160.77
  A 3.53 3.27 0.9 0 1 580.39 157.33
  C 580.47 155.94 579.44 153.88 579.20 152.34
  Q 575.65 129.90 571.63 104.32
  Q 570.67 98.22 570.00 93.23
  Q 568.94 85.41 567.28 75.98
  Q 567.05 74.62 567.14 73.46
  A 0.51 0.51 0.0 0 0 566.43 72.95
  Q 565.84 73.19 565.80 73.92
  C 565.06 86.87 565.85 99.79 565.80 112.69
  Q 565.72 129.90 566.19 147.72
  Q 566.25 149.76 566.97 152.59
  Q 567.09 153.10 567.47 153.47
  L 569.37 155.30
  Q 569.73 155.64 569.72 156.14
  L 569.69 158.58
  Q 569.67 160.71 567.54 160.72
  L 550.67 160.77
  Q 550.20 160.78 550.13 160.31
  Q 550.11 160.12 550.26 159.95
  Q 550.80 159.35 550.02 159.58
  Z"
/>
<path fill="#343534" d="
  M 895.93 13.28
  Q 895.28 12.87 895.36 12.07
  Q 895.41 11.49 894.99 11.09
  C 893.90 10.05 892.43 9.25 892.14 7.66
  Q 891.82 5.89 892.93 4.70
  Q 893.32 4.28 893.89 4.28
  L 926.04 4.27
  A 0.65 0.65 0.0 0 1 926.67 4.77
  Q 927.45 7.97 925.38 9.77
  Q 925.07 10.04 924.92 10.42
  Q 924.19 12.23 923.53 14.11
  Q 922.96 15.72 922.89 17.57
  Q 922.74 21.55 922.73 25.25
  Q 922.65 79.13 922.86 146.69
  C 922.87 148.52 923.75 149.52 923.80 151.24
  Q 923.82 151.81 924.25 152.18
  Q 924.71 152.58 924.78 153.18
  Q 924.84 153.73 925.25 154.10
  L 926.48 155.25
  Q 926.88 155.62 926.85 156.17
  L 926.63 159.23
  A 1.63 1.62 1.9 0 1 925.02 160.73
  L 894.97 160.74
  Q 894.45 160.74 894.17 160.31
  Q 893.67 159.54 892.73 159.72
  A 0.46 0.46 0.0 0 1 892.18 159.30
  C 891.99 156.79 893.74 154.56 894.95 152.49
  Q 896.00 150.70 896.16 147.78
  Q 896.76 136.86 896.53 125.95
  Q 896.32 115.79 896.31 106.75
  Q 896.26 60.67 896.32 14.01
  Q 896.32 13.53 895.93 13.28
  Z"
/>
<path fill="#343534" d="
  M 1079.36 131.98
  Q 1079.24 130.99 1079.21 129.85
  A 0.53 0.52 -13.9 0 1 1079.51 129.36
  Q 1079.82 129.21 1080.14 129.37
  A 0.10 0.10 0.0 0 0 1080.28 129.28
  L 1080.24 126.70
  A 0.85 0.84 82.8 0 1 1080.88 125.86
  Q 1081.82 125.63 1081.29 124.78
  Q 1080.88 124.14 1081.64 124.15
  Q 1082.28 124.15 1082.89 124.37
  Q 1083.64 124.64 1083.27 123.93
  Q 1083.17 123.73 1083.18 123.49
  A 0.47 0.46 9.8 0 1 1083.78 123.07
  Q 1084.52 123.31 1085.39 123.28
  A 3.24 3.23 -0.9 0 1 1088.72 126.50
  L 1088.72 130.18
  Q 1088.72 130.48 1088.52 130.71
  Q 1088.34 130.91 1088.16 130.81
  Q 1087.75 130.61 1087.75 131.06
  Q 1087.65 137.10 1087.75 142.56
  Q 1087.76 143.44 1087.07 144.22
  Q 1086.73 144.59 1086.73 145.09
  L 1086.74 156.36
  Q 1086.74 156.74 1086.38 156.86
  Q 1086.22 156.91 1086.05 156.77
  Q 1085.26 156.09 1085.57 157.09
  Q 1086.24 159.20 1084.89 160.43
  Q 1084.53 160.76 1084.03 160.76
  Q 1052.13 160.69 1020.25 160.75
  Q 1019.31 160.75 1018.00 159.38
  C 1016.86 158.18 1016.62 156.31 1018.34 155.52
  A 1.59 1.57 -10.2 0 0 1019.27 154.20
  Q 1019.36 153.19 1020.25 152.63
  A 1.84 1.81 73.9 0 0 1021.10 151.06
  C 1021.04 145.60 1021.34 140.12 1021.32 134.62
  Q 1021.16 74.29 1021.30 13.86
  A 0.65 0.63 -75.9 0 0 1020.98 13.30
  L 1020.72 13.15
  Q 1020.35 12.93 1020.40 12.51
  Q 1020.58 10.88 1019.06 10.32
  A 1.14 1.13 -89.0 0 1 1018.38 9.61
  Q 1018.12 8.80 1018.28 8.06
  Q 1018.46 7.29 1017.78 7.69
  Q 1017.22 8.01 1017.21 6.54
  A 2.27 2.26 0.0 0 1 1019.48 4.28
  L 1051.25 4.28
  Q 1052.06 4.28 1051.83 5.06
  Q 1051.60 5.85 1052.36 6.21
  Q 1053.11 6.57 1052.84 7.35
  Q 1052.78 7.54 1052.61 7.66
  Q 1052.21 7.93 1051.90 7.58
  Q 1051.65 7.29 1051.65 6.92
  Q 1051.65 6.84 1051.59 6.89
  Q 1051.50 6.96 1051.56 6.90
  Q 1051.58 6.88 1051.58 6.90
  Q 1051.78 7.85 1051.83 8.86
  Q 1051.86 9.44 1051.44 9.84
  L 1049.00 12.17
  Q 1048.70 12.46 1048.70 12.88
  L 1048.69 148.60
  A 0.72 0.72 0.0 0 0 1049.41 149.32
  L 1067.03 149.32
  Q 1067.48 149.32 1067.76 148.97
  Q 1068.26 148.36 1069.03 148.27
  Q 1069.55 148.21 1069.92 147.84
  L 1074.75 143.05
  Q 1075.22 142.59 1075.16 141.94
  Q 1075.11 141.27 1075.86 141.32
  Q 1076.70 141.37 1076.40 140.59
  Q 1075.89 139.22 1077.12 138.68
  Q 1077.56 138.49 1077.38 138.04
  Q 1076.75 136.51 1078.08 135.71
  Q 1078.50 135.46 1078.43 134.98
  L 1078.14 132.85
  Q 1078.08 132.34 1078.55 132.15
  Q 1078.76 132.06 1078.91 132.21
  Q 1079.46 132.74 1079.36 131.98
  Z"
/>
<path fill="#343534" d="
  M 142.42 150.10
  Q 142.15 117.15 142.35 84.23
  Q 142.35 83.72 141.84 83.72
  L 119.18 83.72
  Q 118.72 83.72 118.72 84.18
  Q 118.72 115.54 118.75 146.64
  Q 118.76 148.35 118.54 150.01
  Q 118.43 150.84 118.98 150.20
  Q 119.11 150.04 119.34 150.10
  Q 119.81 150.22 119.86 150.70
  Q 119.90 151.08 119.79 151.46
  Q 119.61 152.03 120.15 152.28
  Q 121.03 152.70 121.68 153.42
  Q 121.94 153.71 121.85 154.10
  Q 121.65 154.94 122.42 155.38
  Q 122.93 155.68 122.85 156.26
  Q 122.66 157.56 121.95 158.48
  Q 121.56 158.97 120.95 158.82
  L 120.25 158.65
  Q 119.77 158.54 119.46 158.93
  Q 118.85 159.71 118.00 159.71
  Q 105.33 159.67 92.25 159.75
  Q 91.35 159.76 89.33 158.46
  C 88.16 157.72 88.36 157.08 88.22 155.90
  Q 88.13 155.15 88.89 155.23
  Q 89.06 155.25 89.21 155.16
  Q 89.49 154.99 89.37 154.68
  Q 89.26 154.41 89.23 154.13
  Q 89.17 153.65 89.50 153.31
  L 90.89 151.89
  Q 91.29 151.48 91.34 150.91
  Q 91.38 150.31 91.86 149.95
  Q 92.32 149.60 92.32 149.03
  L 92.30 15.49
  Q 92.30 14.93 91.76 14.84
  Q 91.23 14.76 91.29 14.23
  Q 91.35 13.62 90.92 13.17
  L 89.53 11.72
  Q 89.19 11.37 89.23 10.87
  Q 89.25 10.67 89.32 10.47
  Q 89.64 9.63 88.78 9.89
  Q 88.63 9.93 88.49 9.88
  Q 87.95 9.69 88.13 9.16
  Q 88.48 8.04 88.10 6.91
  Q 87.86 6.18 88.63 6.23
  Q 89.26 6.28 89.84 6.40
  Q 90.72 6.58 90.20 5.85
  Q 90.11 5.72 90.17 5.56
  Q 90.26 5.29 90.54 5.29
  L 119.84 5.29
  Q 120.66 5.29 121.13 5.97
  Q 121.54 6.56 122.13 6.95
  A 1.87 1.87 0.0 0 1 122.40 9.85
  L 120.07 12.11
  A 1.43 1.42 70.5 0 0 119.66 12.98
  Q 119.58 13.79 119.02 14.31
  Q 118.74 14.57 118.74 14.97
  L 118.72 70.76
  A 0.53 0.53 0.0 0 0 119.25 71.29
  L 141.71 71.26
  A 0.59 0.59 0.0 0 0 142.30 70.67
  L 142.28 15.96
  Q 142.28 15.42 141.86 15.09
  Q 141.40 14.73 141.38 14.14
  A 1.19 1.18 27.2 0 0 141.17 13.50
  Q 140.50 12.52 139.53 11.82
  Q 139.12 11.52 139.25 11.02
  Q 139.32 10.74 139.39 10.44
  Q 139.58 9.68 138.82 9.86
  Q 138.68 9.90 138.53 9.88
  A 0.51 0.51 0.0 0 1 138.13 9.20
  Q 138.56 8.00 138.09 6.77
  Q 137.86 6.16 138.51 6.11
  Q 138.70 6.10 138.84 6.18
  Q 139.41 6.56 139.80 6.03
  Q 140.40 5.24 141.40 5.25
  Q 154.15 5.35 169.50 5.27
  Q 170.46 5.26 171.20 5.88
  Q 172.85 7.23 172.92 8.81
  Q 172.94 9.31 172.58 9.66
  L 170.18 12.07
  Q 169.78 12.47 169.70 13.02
  Q 169.60 13.66 169.10 14.06
  Q 168.69 14.38 168.69 14.90
  Q 168.69 75.42 168.75 134.25
  Q 168.76 141.62 169.07 148.58
  Q 169.19 151.15 171.30 153.32
  Q 171.67 153.70 171.59 154.23
  Q 171.48 154.93 172.22 155.13
  A 0.96 0.96 0.0 0 1 172.91 156.21
  Q 172.40 159.18 170.14 158.66
  Q 169.68 158.56 169.33 158.87
  C 168.64 159.48 168.12 159.82 167.13 159.80
  Q 154.40 159.58 142.26 159.77
  Q 141.39 159.78 138.56 157.86
  Q 138.06 157.52 138.24 156.94
  Q 138.39 156.46 138.21 156.00
  Q 138.00 155.43 138.55 155.17
  Q 138.80 155.04 139.03 155.22
  Q 139.77 155.77 139.40 154.92
  Q 138.63 153.17 140.92 152.17
  Q 141.44 151.94 141.28 151.39
  L 141.19 151.07
  Q 141.08 150.67 141.40 150.41
  Q 141.73 150.14 141.93 150.31
  Q 142.42 150.75 142.42 150.10
  Z"
/>
<path fill="#343534" d="
  M 75.71 28.72
  Q 75.52 28.83 75.37 28.68
  Q 75.08 28.39 75.21 28.00
  L 75.44 27.28
  A 0.81 0.80 -63.3 0 0 75.15 26.38
  Q 74.16 25.67 74.26 24.36
  Q 74.29 23.94 73.89 23.82
  Q 72.76 23.48 73.30 22.40
  Q 73.58 21.85 72.96 21.80
  Q 71.96 21.72 72.24 20.73
  A 0.66 0.64 -67.1 0 0 71.95 19.99
  Q 70.95 19.40 70.31 18.35
  Q 69.97 17.81 69.33 17.82
  L 68.74 17.84
  Q 68.09 17.86 68.13 17.20
  Q 68.14 17.07 68.18 16.94
  Q 68.34 16.45 67.84 16.61
  L 67.31 16.77
  Q 66.79 16.94 66.36 16.61
  Q 66.04 16.38 66.16 16.19
  Q 66.49 15.65 65.85 15.67
  Q 60.99 15.80 56.30 15.63
  Q 55.70 15.60 55.70 16.21
  L 55.70 148.05
  Q 55.70 148.59 56.07 148.97
  Q 57.03 149.93 56.65 151.35
  Q 56.47 152.03 57.11 152.32
  Q 60.39 153.88 59.63 157.28
  Q 59.52 157.76 59.14 158.08
  Q 57.01 159.79 54.68 159.77
  Q 42.85 159.66 30.18 159.73
  Q 29.12 159.73 28.53 158.88
  Q 28.20 158.42 27.72 158.71
  Q 26.90 159.21 25.69 157.90
  A 1.83 1.82 27.3 0 1 25.21 156.42
  Q 25.45 154.43 27.13 154.31
  Q 27.62 154.27 27.43 153.82
  Q 26.70 152.10 28.56 151.47
  Q 29.26 151.23 29.26 150.48
  L 29.27 16.33
  A 0.67 0.67 0.0 0 0 28.58 15.66
  L 21.75 15.80
  A 0.59 0.58 24.8 0 0 21.38 15.93
  Q 20.00 16.97 18.15 16.81
  Q 17.74 16.77 17.66 17.17
  Q 17.63 17.30 17.63 17.42
  Q 17.63 17.54 17.55 17.62
  Q 15.59 19.58 13.11 21.95
  Q 12.60 22.44 12.81 23.14
  Q 12.95 23.58 12.55 23.83
  Q 12.41 23.92 12.25 23.90
  Q 11.52 23.83 11.78 24.51
  Q 12.13 25.43 11.29 25.78
  Q 10.83 25.97 10.79 26.47
  L 10.64 28.12
  A 1.01 1.00 76.0 0 1 10.21 28.84
  Q 9.37 29.39 9.82 30.40
  Q 10.07 30.95 9.76 31.45
  Q 9.52 31.84 9.08 31.70
  Q 8.44 31.50 8.60 32.15
  Q 8.88 33.26 8.60 34.30
  A 1.87 1.81 -10.9 0 1 7.91 35.29
  Q 6.79 36.11 6.12 37.26
  Q 5.82 37.79 5.22 37.72
  Q 3.75 37.56 2.24 37.85
  Q 1.28 38.04 1.28 37.05
  L 1.29 20.22
  Q 1.29 19.69 1.66 19.32
  Q 1.88 19.09 2.05 18.82
  Q 2.25 18.51 2.25 18.15
  Q 2.37 13.03 2.18 7.74
  Q 2.16 7.17 2.73 7.27
  Q 3.39 7.39 3.42 6.73
  C 3.45 5.93 3.93 5.31 4.77 5.31
  Q 43.05 5.31 81.43 5.28
  Q 81.83 5.28 81.86 5.68
  L 81.88 6.03
  Q 81.90 6.27 82.13 6.31
  C 83.04 6.49 83.68 7.15 83.70 8.09
  Q 83.80 12.02 83.67 15.82
  Q 83.66 16.29 83.96 16.65
  Q 84.83 17.71 84.80 18.99
  Q 84.67 24.19 84.72 29.79
  Q 84.73 30.28 85.08 30.63
  Q 85.64 31.19 85.65 31.95
  Q 85.66 33.52 85.86 35.20
  Q 85.92 35.69 85.46 35.86
  Q 85.28 35.94 85.11 35.82
  Q 84.46 35.35 84.59 36.15
  Q 84.68 36.69 84.89 37.15
  Q 85.15 37.73 84.51 37.72
  L 80.98 37.68
  Q 80.30 37.68 79.93 37.11
  Q 79.49 36.43 78.77 36.11
  Q 78.06 35.79 78.19 35.03
  Q 78.29 34.36 77.82 33.96
  Q 77.53 33.71 77.34 33.38
  Q 76.00 31.14 76.34 29.16
  Q 76.49 28.29 75.71 28.72
  Z"
/>
<path fill="#343534" d="
  M 241.37 131.48
  Q 240.73 129.21 242.01 127.73
  Q 242.40 127.26 242.41 126.66
  Q 242.43 125.85 243.20 125.58
  A 0.35 0.34 -14.9 0 0 243.42 125.21
  Q 243.16 123.33 245.17 123.34
  Q 247.26 123.35 249.32 123.18
  Q 249.96 123.13 249.83 123.76
  L 249.62 124.82
  Q 249.50 125.39 250.07 125.25
  Q 250.23 125.21 250.39 125.26
  Q 250.91 125.43 250.81 125.96
  Q 250.57 127.25 250.81 128.61
  Q 250.93 129.28 250.47 129.77
  L 250.03 130.22
  A 1.18 1.16 -23.8 0 0 249.71 131.02
  Q 249.70 136.10 249.74 141.53
  Q 249.75 142.60 248.97 143.29
  A 1.08 1.06 -22.5 0 0 248.61 144.13
  Q 248.80 149.33 248.68 155.40
  Q 248.67 155.72 248.37 155.82
  Q 248.23 155.87 248.10 155.80
  A 0.22 0.21 15.3 0 0 247.78 155.98
  L 247.75 158.27
  Q 247.74 159.04 246.99 158.83
  Q 246.22 158.61 245.29 158.65
  Q 244.39 158.70 244.64 159.56
  A 0.13 0.12 -8.6 0 1 244.52 159.72
  L 185.17 159.71
  Q 184.65 159.70 184.32 159.29
  Q 183.47 158.22 182.01 158.85
  A 0.50 0.49 -17.4 0 1 181.33 158.50
  Q 180.66 155.34 182.22 153.70
  C 185.51 150.21 185.36 140.53 185.34 135.56
  Q 185.19 86.83 185.32 33.44
  Q 185.35 23.57 184.27 15.88
  Q 184.02 14.13 183.16 12.68
  C 182.36 11.35 181.39 10.77 181.18 9.05
  Q 180.92 7.02 181.82 5.82
  Q 182.20 5.31 182.84 5.31
  L 240.97 5.31
  A 2.79 2.79 0.0 0 1 243.71 7.58
  Q 245.04 14.67 244.78 23.04
  C 244.72 24.74 245.83 25.69 245.79 27.40
  Q 245.67 31.81 245.68 36.01
  A 1.56 1.55 -8.8 0 1 244.58 37.51
  Q 240.79 38.70 238.36 35.65
  A 0.83 0.82 37.1 0 1 238.24 34.80
  Q 238.49 34.20 237.89 34.11
  A 0.81 0.81 0.0 0 1 237.20 33.22
  L 237.31 32.30
  A 1.31 1.30 27.9 0 0 237.00 31.31
  Q 236.04 30.19 236.31 28.66
  Q 236.44 27.93 235.72 27.73
  Q 234.91 27.50 235.22 26.76
  Q 235.45 26.20 235.18 25.66
  L 232.94 21.21
  Q 232.72 20.75 232.33 20.41
  Q 230.68 18.95 229.32 17.32
  C 228.73 16.61 227.91 16.43 227.06 16.70
  Q 226.58 16.85 226.26 16.47
  Q 226.11 16.30 226.19 16.14
  Q 226.42 15.68 225.92 15.69
  Q 218.46 15.74 211.27 15.69
  Q 210.72 15.68 210.72 16.23
  L 210.72 71.75
  Q 210.72 72.29 211.25 72.29
  L 226.50 72.29
  Q 227.15 72.29 227.16 71.64
  Q 227.16 71.48 227.27 71.35
  Q 227.53 71.05 227.91 71.15
  L 228.48 71.29
  Q 229.03 71.42 229.15 70.86
  Q 229.27 70.30 229.82 70.12
  A 0.63 0.62 -9.3 0 0 230.27 69.51
  Q 230.27 69.22 230.16 68.96
  A 0.60 0.58 64.6 0 1 230.42 68.20
  Q 230.82 67.99 231.16 68.32
  Q 231.77 68.89 231.56 68.08
  Q 231.45 67.65 231.25 67.27
  Q 230.91 66.64 231.50 66.25
  Q 231.71 66.11 231.91 66.24
  Q 232.61 66.69 232.41 65.88
  Q 232.31 65.48 232.20 65.10
  Q 232.04 64.53 232.50 64.16
  Q 233.39 63.45 234.12 62.64
  A 1.82 1.80 52.4 0 1 237.07 63.04
  Q 237.36 63.60 238.01 63.79
  Q 238.71 64.00 238.71 64.73
  L 238.74 91.25
  Q 238.74 91.81 238.27 92.12
  Q 236.67 93.16 233.92 92.63
  Q 231.63 92.19 232.36 90.25
  Q 232.66 89.46 231.85 89.71
  Q 231.72 89.75 231.61 89.82
  Q 231.47 89.91 231.38 89.77
  Q 230.94 89.09 231.32 88.36
  Q 231.59 87.84 231.01 87.81
  Q 229.92 87.75 230.15 86.67
  Q 230.29 86.02 229.67 85.79
  Q 229.15 85.58 229.17 85.03
  Q 229.23 83.83 228.39 84.69
  Q 228.30 84.78 228.18 84.82
  Q 227.33 85.12 227.12 84.31
  Q 227.11 84.25 227.14 84.21
  Q 227.48 83.68 226.84 83.69
  Q 218.97 83.82 211.15 83.61
  Q 210.72 83.60 210.72 84.03
  L 210.72 147.95
  Q 210.72 148.28 211.05 148.28
  L 229.85 148.28
  Q 230.39 148.28 230.21 147.77
  Q 230.14 147.59 230.35 147.43
  Q 230.63 147.21 231.00 147.25
  L 231.50 147.31
  Q 232.02 147.37 232.15 146.86
  Q 232.36 146.03 233.22 146.26
  A 0.71 0.71 0.0 0 0 234.01 145.95
  Q 234.62 144.95 235.70 144.26
  Q 236.13 143.98 236.19 143.46
  Q 236.23 143.19 236.11 142.93
  A 0.52 0.51 58.8 0 1 236.26 142.30
  Q 236.68 141.98 237.03 142.24
  Q 237.72 142.74 237.49 142.00
  L 237.22 141.12
  Q 237.09 140.71 237.32 140.34
  Q 237.44 140.14 237.63 140.18
  Q 238.49 140.32 238.22 139.49
  Q 237.93 138.63 238.76 138.31
  Q 239.16 138.15 239.19 137.73
  L 239.32 135.75
  A 0.90 0.89 76.5 0 1 239.75 135.04
  Q 240.97 134.31 240.22 133.15
  Q 239.92 132.69 240.25 132.25
  Q 240.43 132.02 240.70 132.11
  Q 241.64 132.44 241.37 131.48
  Z"
/>
<path fill="#343534" d="
  M 1414.38 138.91
  Q 1414.26 138.00 1414.11 137.08
  Q 1414.03 136.54 1414.52 136.30
  Q 1414.77 136.18 1414.99 136.32
  Q 1415.71 136.78 1415.42 135.98
  Q 1415.08 135.02 1415.15 133.95
  Q 1415.20 133.17 1415.96 133.36
  Q 1416.19 133.42 1416.25 132.86
  Q 1416.29 132.53 1416.24 132.20
  Q 1415.89 129.82 1417.19 128.59
  Q 1417.56 128.23 1417.33 127.77
  Q 1416.66 126.47 1417.97 125.90
  Q 1418.27 125.77 1418.23 125.45
  Q 1418.05 124.06 1419.57 123.33
  A 0.63 0.62 -55.7 0 1 1419.93 123.26
  L 1422.01 123.44
  A 0.23 0.23 0.0 0 0 1422.21 123.06
  Q 1421.90 122.70 1422.26 122.31
  Q 1422.61 121.93 1422.78 122.41
  L 1422.90 122.75
  Q 1423.06 123.18 1423.51 123.14
  Q 1424.59 123.06 1425.38 124.05
  Q 1425.86 124.66 1425.81 125.52
  Q 1425.62 129.32 1425.75 132.56
  Q 1425.79 133.54 1425.00 134.22
  Q 1424.66 134.52 1424.66 134.97
  Q 1424.71 140.70 1424.75 145.44
  Q 1424.75 146.49 1424.03 147.36
  A 1.40 1.36 66.1 0 0 1423.71 148.22
  L 1423.67 156.99
  A 1.76 1.76 0.0 0 1 1421.46 158.68
  Q 1420.29 158.37 1419.75 159.30
  Q 1419.51 159.71 1419.03 159.71
  L 1361.18 159.71
  Q 1360.63 159.71 1360.26 159.29
  Q 1359.45 158.38 1358.16 158.66
  Q 1357.49 158.81 1357.00 158.33
  C 1355.74 157.12 1356.11 155.00 1357.26 153.82
  Q 1359.56 151.45 1359.88 147.81
  Q 1361.09 133.81 1360.69 121.28
  Q 1360.39 111.94 1360.35 103.00
  Q 1360.22 66.25 1360.31 28.51
  Q 1360.32 22.88 1359.92 17.75
  Q 1359.65 14.22 1357.29 11.05
  Q 1356.05 9.39 1356.10 6.78
  Q 1356.11 6.15 1356.74 6.25
  L 1357.75 6.41
  Q 1358.37 6.50 1358.14 5.88
  Q 1358.09 5.75 1358.13 5.62
  Q 1358.23 5.26 1358.60 5.26
  Q 1387.15 5.37 1415.81 5.26
  Q 1416.75 5.26 1417.24 6.09
  Q 1417.59 6.68 1418.15 6.27
  Q 1418.27 6.18 1418.44 6.20
  A 0.46 0.45 -86.2 0 1 1418.82 6.64
  Q 1418.83 7.29 1418.57 7.89
  Q 1418.31 8.49 1418.90 8.22
  Q 1419.10 8.13 1419.35 8.15
  A 0.37 0.37 0.0 0 1 1419.71 8.52
  L 1419.69 20.04
  Q 1419.69 20.46 1419.97 20.77
  Q 1420.88 21.79 1420.82 23.24
  Q 1420.52 30.28 1420.83 37.23
  Q 1420.86 37.81 1420.27 37.78
  Q 1418.26 37.68 1416.18 37.74
  C 1414.93 37.78 1414.33 36.86 1414.33 35.70
  Q 1414.33 35.20 1413.87 34.98
  Q 1413.24 34.68 1413.29 34.03
  Q 1413.34 33.42 1412.87 33.02
  Q 1411.78 32.11 1412.36 30.90
  Q 1412.60 30.41 1412.10 30.19
  Q 1410.55 29.49 1411.49 28.05
  A 0.46 0.46 0.0 0 0 1411.35 27.41
  Q 1409.56 26.28 1410.41 24.08
  Q 1410.55 23.72 1410.17 23.67
  Q 1408.39 23.48 1408.26 21.84
  Q 1408.24 21.49 1408.00 21.24
  L 1404.15 17.33
  Q 1403.93 17.11 1404.20 16.95
  Q 1404.39 16.83 1404.34 16.71
  Q 1404.25 16.48 1404.01 16.55
  Q 1402.09 17.15 1400.85 16.13
  Q 1400.41 15.77 1399.84 15.77
  L 1387.26 15.70
  Q 1386.72 15.69 1386.72 16.24
  L 1386.72 71.75
  Q 1386.72 72.29 1387.25 72.29
  L 1401.71 72.29
  Q 1402.42 72.29 1402.22 71.61
  Q 1402.18 71.48 1402.25 71.36
  Q 1402.48 70.95 1402.92 71.12
  L 1403.50 71.34
  Q 1404.07 71.55 1404.24 70.98
  Q 1404.51 70.09 1405.31 69.44
  Q 1405.52 69.26 1405.79 69.22
  Q 1406.16 69.15 1406.27 69.38
  Q 1406.57 70.03 1406.47 69.32
  Q 1406.28 68.03 1406.10 66.80
  A 0.59 0.59 0.0 0 1 1406.59 66.14
  Q 1406.85 66.09 1407.05 66.29
  Q 1407.85 67.09 1407.54 66.01
  Q 1407.42 65.61 1407.22 65.23
  Q 1406.96 64.73 1407.37 64.35
  L 1409.39 62.43
  Q 1409.80 62.05 1410.34 62.14
  Q 1411.39 62.30 1412.13 62.95
  Q 1412.52 63.29 1413.04 63.30
  Q 1413.20 63.31 1413.35 63.28
  Q 1413.71 63.21 1413.71 63.58
  L 1413.71 91.33
  Q 1413.71 92.00 1413.10 92.27
  Q 1410.46 93.44 1407.67 92.14
  A 0.78 0.78 0.0 0 1 1407.27 91.17
  Q 1407.80 89.76 1406.62 88.89
  Q 1406.14 88.52 1406.13 87.92
  Q 1406.13 87.78 1406.15 87.64
  A 0.74 0.74 0.0 0 0 1405.85 86.94
  Q 1404.25 85.76 1403.18 84.20
  Q 1402.85 83.72 1402.26 83.72
  L 1387.05 83.72
  Q 1386.72 83.72 1386.72 84.05
  L 1386.72 147.95
  Q 1386.72 148.29 1387.06 148.29
  L 1405.54 148.28
  Q 1406.13 148.28 1406.25 147.70
  Q 1406.39 147.02 1407.15 147.18
  Q 1407.60 147.28 1407.92 146.95
  L 1411.52 143.27
  A 0.40 0.39 -47.7 0 1 1412.06 143.24
  Q 1412.23 143.38 1412.43 143.34
  Q 1412.64 143.31 1412.54 143.12
  Q 1412.25 142.58 1412.15 141.95
  Q 1412.07 141.42 1412.55 141.20
  Q 1412.79 141.08 1413.00 141.23
  Q 1413.55 141.64 1413.49 140.96
  Q 1413.46 140.60 1413.29 140.28
  Q 1413.01 139.76 1413.44 139.35
  Q 1413.64 139.16 1413.81 139.27
  Q 1414.49 139.72 1414.38 138.91
  Z"
/>
<path fill="#343534" d="
  M 1461.56 151.42
  Q 1461.71 151.36 1461.82 151.25
  Q 1462.00 151.08 1462.25 151.16
  Q 1462.50 151.24 1462.68 151.43
  A 0.50 0.50 0.0 0 1 1462.67 152.10
  Q 1462.54 152.23 1462.56 152.41
  Q 1462.60 152.64 1462.80 152.76
  Q 1464.83 153.94 1464.90 156.24
  Q 1464.92 156.88 1464.28 156.86
  Q 1463.96 156.85 1463.68 156.69
  Q 1463.15 156.37 1463.43 156.92
  Q 1463.74 157.52 1463.85 158.25
  Q 1463.94 158.87 1463.32 158.81
  Q 1462.40 158.72 1461.35 158.61
  Q 1460.67 158.53 1460.88 159.21
  Q 1460.95 159.43 1460.68 159.59
  Q 1460.43 159.74 1460.14 159.74
  L 1434.95 159.70
  Q 1434.45 159.70 1434.19 159.27
  Q 1433.66 158.39 1432.50 158.69
  A 1.54 1.52 -30.8 0 1 1431.08 158.34
  Q 1429.92 157.26 1430.17 155.16
  Q 1430.27 154.35 1430.87 153.83
  Q 1431.95 152.90 1432.93 151.98
  A 0.91 0.90 62.2 0 0 1433.19 151.13
  Q 1433.05 150.47 1433.64 150.23
  Q 1434.27 149.97 1434.27 149.28
  Q 1434.29 81.59 1434.27 15.31
  Q 1434.27 14.76 1433.72 14.71
  Q 1433.19 14.65 1433.15 14.11
  Q 1433.14 13.97 1433.20 13.84
  Q 1433.36 13.46 1433.06 13.16
  L 1430.46 10.62
  Q 1430.10 10.26 1430.19 9.77
  Q 1430.49 8.23 1430.13 6.69
  Q 1430.02 6.23 1430.49 6.19
  Q 1431.05 6.15 1431.65 6.31
  Q 1432.32 6.50 1432.18 5.83
  Q 1432.15 5.67 1432.25 5.55
  Q 1432.47 5.27 1432.82 5.28
  Q 1452.52 5.34 1473.20 5.29
  Q 1474.56 5.29 1475.38 6.02
  Q 1475.74 6.35 1476.24 6.32
  Q 1479.00 6.19 1481.81 6.30
  C 1482.45 6.33 1482.96 6.49 1483.33 7.04
  A 0.78 0.76 -26.3 0 0 1484.24 7.34
  C 1486.46 6.50 1486.75 8.31 1488.47 8.24
  Q 1488.75 8.23 1489.01 8.35
  Q 1494.03 10.54 1497.63 12.98
  Q 1506.80 19.20 1509.00 32.06
  Q 1511.11 44.34 1509.09 54.20
  Q 1506.97 64.54 1497.29 72.57
  A 0.65 0.64 27.3 0 1 1496.80 72.72
  Q 1496.57 72.69 1496.37 72.77
  Q 1495.96 72.94 1495.76 73.33
  Q 1495.43 73.98 1494.72 73.83
  A 0.86 0.86 0.0 0 0 1493.91 74.09
  L 1492.59 75.54
  A 0.96 0.96 0.0 0 1 1491.45 75.75
  Q 1490.82 75.43 1490.80 76.13
  Q 1490.78 76.68 1490.23 76.67
  L 1488.25 76.66
  Q 1487.60 76.65 1487.76 77.28
  Q 1487.81 77.49 1487.66 77.62
  Q 1487.25 77.97 1486.75 77.78
  Q 1485.26 77.22 1484.67 78.43
  Q 1484.53 78.70 1484.22 78.71
  L 1481.80 78.72
  Q 1481.66 78.72 1481.65 78.86
  L 1481.61 80.24
  Q 1481.61 80.37 1481.74 80.36
  L 1484.02 80.29
  Q 1484.49 80.27 1484.77 80.64
  Q 1485.53 81.60 1486.80 81.23
  Q 1487.78 80.95 1487.86 81.97
  A 0.40 0.39 -15.2 0 0 1488.43 82.29
  Q 1489.55 81.73 1489.85 82.89
  Q 1489.98 83.40 1490.50 83.29
  L 1490.97 83.20
  Q 1491.58 83.07 1491.82 83.65
  Q 1492.07 84.27 1492.77 84.16
  Q 1493.36 84.08 1493.77 84.50
  L 1500.39 91.32
  Q 1500.76 91.70 1500.73 92.23
  Q 1500.69 92.73 1501.03 93.08
  Q 1501.35 93.41 1501.58 93.81
  Q 1505.57 100.58 1507.13 112.00
  Q 1508.94 125.18 1510.40 137.33
  C 1510.70 139.87 1511.34 142.41 1511.73 144.95
  Q 1512.04 146.98 1512.89 148.37
  Q 1513.60 149.54 1513.80 150.92
  Q 1513.89 151.53 1514.48 151.34
  Q 1515.43 151.03 1516.06 151.77
  Q 1516.40 152.16 1516.91 152.19
  L 1520.09 152.35
  A 1.71 1.71 0.0 0 1 1521.72 154.08
  L 1521.69 157.10
  Q 1521.68 157.58 1521.32 157.88
  Q 1518.51 160.26 1515.02 159.76
  A 1.37 1.35 31.9 0 0 1514.05 159.98
  Q 1513.87 160.09 1513.78 160.28
  Q 1513.56 160.75 1513.04 160.74
  Q 1509.95 160.68 1506.88 160.76
  Q 1506.44 160.77 1505.97 160.76
  Q 1505.03 160.73 1505.13 159.92
  A 0.10 0.10 0.0 0 0 1505.04 159.81
  Q 1502.49 159.70 1499.98 159.82
  Q 1499.32 159.86 1499.21 159.21
  A 0.65 0.64 -6.9 0 0 1498.53 158.68
  L 1496.88 158.77
  A 0.71 0.71 0.0 0 1 1496.18 158.33
  Q 1496.09 158.14 1495.94 158.00
  A 0.89 0.86 56.5 0 0 1495.09 157.81
  Q 1494.25 158.07 1494.14 157.22
  Q 1494.06 156.58 1493.43 156.69
  Q 1493.29 156.71 1493.16 156.74
  Q 1492.76 156.84 1492.47 156.56
  L 1487.64 151.86
  Q 1487.21 151.44 1487.19 150.83
  L 1487.18 150.56
  Q 1487.17 149.99 1486.66 149.75
  Q 1486.03 149.45 1486.15 148.79
  Q 1486.26 148.24 1485.81 147.90
  Q 1485.69 147.80 1485.54 147.70
  Q 1485.38 147.58 1485.30 147.39
  Q 1483.73 143.54 1483.17 140.48
  Q 1481.15 129.48 1479.91 117.50
  C 1479.24 111.03 1478.28 104.85 1477.47 98.55
  Q 1477.05 95.34 1476.08 92.83
  Q 1475.17 90.48 1473.88 88.09
  Q 1473.19 86.81 1471.77 86.67
  Q 1471.19 86.61 1470.89 86.11
  Q 1470.54 85.55 1469.94 85.67
  Q 1469.46 85.76 1469.22 85.34
  Q 1469.12 85.16 1469.18 85.02
  Q 1469.34 84.65 1468.92 84.67
  Q 1464.93 84.89 1461.27 84.56
  Q 1460.73 84.51 1460.73 85.05
  Q 1460.69 114.63 1460.72 148.30
  Q 1460.72 149.00 1461.28 149.16
  Q 1461.80 149.30 1461.80 149.84
  Q 1461.80 150.56 1461.42 151.25
  Q 1461.25 151.55 1461.56 151.42
  Z
  M 1474.22 17.67
  Q 1474.03 17.48 1474.14 17.24
  Q 1474.43 16.63 1473.75 16.67
  C 1472.33 16.76 1470.89 17.28 1469.78 16.01
  A 0.88 0.87 -20.3 0 0 1469.12 15.71
  L 1460.95 15.68
  A 0.25 0.25 0.0 0 0 1460.70 15.93
  L 1460.71 73.68
  A 0.63 0.63 0.0 0 0 1461.35 74.31
  L 1469.92 74.23
  Q 1470.44 74.23 1470.87 73.92
  Q 1471.99 73.11 1473.44 73.10
  Q 1473.99 73.09 1474.30 72.65
  Q 1474.64 72.18 1475.23 72.20
  Q 1475.80 72.21 1476.14 71.76
  Q 1477.42 70.07 1479.16 68.99
  Q 1479.54 68.77 1479.37 68.36
  L 1479.22 67.98
  Q 1478.99 67.42 1479.56 67.20
  Q 1479.84 67.09 1480.10 67.27
  Q 1480.57 67.59 1480.46 67.04
  L 1480.26 65.91
  Q 1480.20 65.60 1480.46 65.41
  Q 1480.60 65.31 1480.77 65.27
  A 0.61 0.60 74.2 0 0 1481.20 64.49
  Q 1480.93 63.65 1481.68 63.21
  Q 1482.25 62.87 1482.23 62.21
  C 1482.17 60.20 1483.08 58.68 1483.29 56.76
  C 1484.41 46.61 1484.99 37.24 1482.37 27.42
  Q 1482.10 26.42 1481.60 25.48
  Q 1481.09 24.52 1480.61 23.43
  Q 1480.03 22.12 1478.96 21.05
  Q 1477.33 19.42 1475.66 17.78
  Q 1475.28 17.41 1474.84 17.72
  Q 1474.51 17.95 1474.22 17.67
  Z"
/>
<path fill="#343534" d="
  M 1638.97 83.62
  Q 1630.98 83.87 1623.16 83.62
  Q 1622.73 83.60 1622.73 84.03
  L 1622.73 147.96
  Q 1622.73 148.29 1623.06 148.29
  L 1641.51 148.28
  Q 1642.06 148.28 1642.13 147.73
  Q 1642.15 147.54 1642.28 147.40
  Q 1642.57 147.09 1642.98 147.18
  Q 1643.38 147.26 1643.79 147.45
  Q 1644.53 147.77 1644.14 147.06
  Q 1644.05 146.90 1644.19 146.65
  Q 1644.24 146.55 1644.32 146.47
  Q 1645.97 144.68 1647.83 142.96
  Q 1648.17 142.65 1648.22 142.19
  Q 1648.36 140.78 1649.83 140.12
  Q 1650.36 139.88 1650.29 139.29
  L 1650.16 138.20
  A 0.77 0.77 0.0 0 1 1650.68 137.37
  Q 1651.68 137.02 1651.27 135.92
  Q 1650.91 134.96 1651.61 134.21
  Q 1652.64 133.11 1652.17 131.27
  A 0.81 0.77 -37.1 0 1 1652.27 130.66
  Q 1652.66 130.05 1653.00 130.36
  A 0.18 0.18 0.0 0 0 1653.30 130.21
  L 1653.21 127.98
  Q 1653.18 127.25 1653.91 127.20
  Q 1654.58 127.16 1654.32 126.60
  Q 1654.01 125.91 1654.51 125.34
  L 1655.73 123.95
  Q 1656.22 123.40 1656.95 123.40
  Q 1657.84 123.40 1658.21 122.67
  Q 1658.49 122.12 1659.00 122.48
  Q 1659.17 122.61 1659.11 122.77
  Q 1658.80 123.64 1659.72 123.42
  Q 1660.40 123.26 1660.98 123.15
  Q 1661.69 123.01 1661.70 123.74
  Q 1661.81 132.52 1661.54 135.32
  Q 1660.79 142.99 1660.64 150.60
  C 1660.62 151.47 1660.36 151.80 1659.95 152.49
  A 1.80 1.80 0.0 0 0 1659.71 153.46
  Q 1659.75 154.99 1659.72 156.64
  C 1659.70 157.90 1658.67 159.04 1657.33 158.65
  Q 1656.84 158.50 1656.46 158.84
  Q 1655.42 159.75 1653.98 159.75
  Q 1627.04 159.65 1598.42 159.75
  Q 1596.90 159.76 1595.58 158.95
  Q 1595.19 158.71 1594.73 158.73
  Q 1592.21 158.87 1592.21 155.98
  Q 1592.21 155.35 1592.80 155.20
  Q 1593.24 155.09 1593.30 154.65
  Q 1593.33 154.46 1593.27 154.28
  Q 1593.05 153.71 1593.51 153.29
  Q 1595.98 150.99 1596.05 148.93
  Q 1596.19 144.48 1596.30 140.51
  Q 1596.41 136.22 1596.38 132.01
  Q 1595.93 76.02 1596.32 20.75
  Q 1596.36 15.36 1594.65 12.55
  Q 1594.24 11.87 1593.99 11.16
  Q 1593.43 9.52 1591.74 9.72
  Q 1591.26 9.77 1590.92 10.13
  C 1588.27 12.93 1585.67 14.63 1584.85 18.75
  C 1582.56 30.27 1580.80 42.43 1578.67 53.74
  Q 1575.82 68.88 1573.17 83.99
  Q 1566.70 120.88 1560.15 156.22
  Q 1559.95 157.29 1559.50 158.26
  Q 1559.28 158.72 1558.79 158.82
  Q 1550.04 160.58 1541.02 158.78
  Q 1540.51 158.69 1540.41 158.18
  Q 1537.92 146.07 1535.56 132.77
  Q 1529.21 97.04 1522.86 62.09
  C 1520.37 48.37 1518.37 34.50 1515.64 20.88
  Q 1514.62 15.81 1511.26 10.91
  C 1510.32 9.54 1510.28 8.40 1510.14 6.82
  Q 1510.07 6.11 1510.77 6.26
  Q 1511.62 6.45 1512.13 5.81
  A 1.40 1.40 0.0 0 1 1513.22 5.29
  Q 1527.02 5.37 1542.90 5.25
  C 1544.19 5.24 1544.83 5.66 1546.00 6.03
  Q 1546.51 6.19 1546.64 6.70
  Q 1547.64 10.67 1544.40 12.72
  A 1.17 1.15 -15.4 0 0 1543.86 13.66
  Q 1543.83 14.49 1543.10 14.78
  Q 1542.70 14.94 1542.69 15.37
  Q 1542.65 17.96 1543.00 20.08
  Q 1547.76 49.63 1552.21 78.74
  Q 1554.05 90.83 1555.97 105.57
  A 0.58 0.57 82.4 0 0 1556.61 106.07
  Q 1557.11 106.02 1557.16 105.45
  Q 1557.31 103.66 1557.59 101.72
  Q 1561.95 71.87 1566.39 42.06
  Q 1567.30 35.96 1568.11 29.90
  Q 1568.93 23.76 1570.08 17.75
  Q 1570.34 16.35 1570.25 14.97
  Q 1570.22 14.47 1569.88 14.11
  L 1566.49 10.52
  Q 1566.15 10.16 1566.23 9.68
  Q 1566.46 8.20 1566.13 6.71
  Q 1566.02 6.22 1566.53 6.18
  Q 1567.05 6.15 1567.63 6.31
  Q 1568.32 6.51 1568.18 5.82
  Q 1568.16 5.69 1568.23 5.57
  Q 1568.44 5.24 1568.82 5.25
  Q 1578.77 5.40 1588.70 5.22
  C 1589.72 5.20 1590.48 6.08 1590.87 6.90
  Q 1591.07 7.32 1591.54 7.35
  L 1592.56 7.40
  Q 1593.04 7.43 1593.16 6.95
  Q 1593.35 6.16 1594.15 5.57
  Q 1594.50 5.30 1594.95 5.30
  L 1653.28 5.30
  Q 1653.99 5.30 1654.24 5.97
  Q 1654.54 6.77 1655.28 7.12
  Q 1655.69 7.32 1655.70 7.78
  L 1655.82 14.84
  A 1.47 1.46 -63.9 0 0 1656.10 15.67
  Q 1656.78 16.64 1656.77 17.82
  Q 1656.70 23.63 1656.65 28.79
  Q 1656.65 29.26 1656.98 29.60
  C 1657.36 29.98 1657.66 30.38 1657.67 30.94
  Q 1657.73 33.00 1657.83 35.34
  Q 1657.86 35.99 1657.22 35.87
  L 1656.87 35.80
  A 0.30 0.30 0.0 0 0 1656.53 36.17
  L 1656.82 37.24
  Q 1657.02 37.97 1656.28 37.83
  Q 1654.81 37.56 1653.36 37.72
  Q 1651.75 37.90 1651.38 36.34
  Q 1651.27 35.89 1650.82 35.89
  Q 1650.63 35.90 1650.46 35.82
  A 0.48 0.46 -88.9 0 1 1650.20 35.54
  Q 1650.02 34.98 1650.21 34.40
  Q 1650.36 33.96 1649.91 33.83
  Q 1648.74 33.50 1649.19 32.30
  Q 1649.48 31.52 1648.67 31.69
  Q 1648.51 31.72 1648.39 31.62
  Q 1648.13 31.41 1648.19 31.09
  L 1648.49 29.27
  A 0.47 0.47 0.0 0 0 1647.95 28.74
  Q 1647.81 28.77 1647.67 28.76
  Q 1647.12 28.71 1647.17 28.17
  L 1647.34 26.12
  Q 1647.40 25.39 1646.78 25.77
  Q 1646.54 25.91 1646.36 25.74
  Q 1646.13 25.53 1646.15 25.22
  L 1646.18 24.42
  Q 1646.20 23.95 1645.76 23.79
  Q 1644.75 23.40 1645.31 22.37
  Q 1645.57 21.88 1645.02 21.80
  Q 1643.69 21.59 1644.24 20.31
  Q 1644.52 19.65 1643.81 19.59
  Q 1642.56 19.48 1642.38 18.22
  Q 1642.29 17.57 1641.67 17.77
  Q 1640.62 18.12 1640.13 17.20
  A 0.77 0.75 -12.2 0 0 1639.49 16.80
  L 1638.00 16.74
  Q 1637.46 16.73 1637.23 16.24
  Q 1636.96 15.66 1636.34 15.67
  Q 1629.72 15.76 1623.28 15.67
  A 0.54 0.54 0.0 0 0 1622.73 16.21
  L 1622.73 71.79
  A 0.54 0.54 0.0 0 0 1623.27 72.33
  L 1637.51 72.26
  Q 1638.06 72.26 1638.26 71.75
  Q 1638.55 71.00 1639.39 71.17
  Q 1639.88 71.26 1640.14 70.85
  Q 1640.82 69.80 1641.92 69.06
  Q 1642.30 68.81 1642.28 68.36
  Q 1642.27 68.20 1642.20 68.07
  Q 1642.05 67.81 1642.21 67.55
  Q 1642.48 67.12 1642.95 67.26
  Q 1643.74 67.49 1643.47 66.71
  L 1643.23 66.00
  Q 1643.03 65.44 1643.56 65.17
  Q 1643.69 65.10 1643.82 65.15
  Q 1644.72 65.50 1644.39 64.60
  Q 1644.26 64.22 1644.15 63.82
  Q 1643.95 63.03 1644.76 63.11
  Q 1645.09 63.15 1645.41 63.29
  Q 1646.27 63.68 1646.13 62.76
  Q 1646.11 62.59 1646.26 62.40
  Q 1646.42 62.21 1646.67 62.17
  Q 1648.19 61.95 1649.35 62.94
  Q 1649.71 63.24 1649.71 63.72
  L 1649.74 92.35
  Q 1649.74 93.01 1649.09 92.86
  Q 1647.78 92.57 1646.46 92.73
  A 1.91 1.90 59.0 0 1 1645.16 92.40
  Q 1642.98 90.84 1643.30 88.53
  Q 1643.39 87.92 1642.80 87.69
  Q 1640.73 86.89 1641.27 85.19
  Q 1641.50 84.50 1640.79 84.69
  L 1640.21 84.84
  Q 1639.64 84.99 1639.26 84.54
  Q 1639.05 84.30 1639.21 84.14
  Q 1639.70 83.60 1638.97 83.62
  Z"
/>
<path fill="#343534" d="
  M 1754.80 158.96
  Q 1754.89 159.08 1754.90 159.23
  Q 1754.91 159.76 1754.38 159.75
  L 1751.22 159.69
  Q 1750.67 159.68 1750.23 160.03
  L 1749.57 160.55
  Q 1749.20 160.84 1748.73 160.83
  Q 1746.31 160.74 1743.99 160.72
  Q 1742.59 160.71 1740.12 160.05
  Q 1738.19 159.54 1736.08 159.69
  Q 1735.57 159.72 1735.21 159.38
  C 1734.45 158.66 1733.46 158.84 1732.52 158.48
  Q 1725.49 155.79 1722.25 148.47
  Q 1719.62 142.55 1718.76 136.76
  Q 1716.80 123.67 1715.66 112.02
  Q 1715.25 107.87 1713.42 96.20
  Q 1713.23 94.98 1712.70 93.80
  C 1712.22 92.70 1712.51 91.82 1711.88 90.84
  Q 1710.15 88.16 1707.93 85.93
  A 1.07 1.05 -27.4 0 0 1706.99 85.64
  Q 1705.71 85.87 1704.82 85.07
  Q 1704.49 84.77 1704.04 84.76
  L 1697.50 84.67
  Q 1696.73 84.66 1696.73 85.43
  Q 1696.67 114.12 1696.64 142.75
  Q 1696.63 145.26 1696.81 147.62
  Q 1696.84 148.00 1697.18 148.16
  Q 1698.06 148.61 1697.72 149.63
  A 1.48 1.48 0.0 0 0 1698.56 151.48
  Q 1700.03 152.08 1699.68 153.53
  Q 1699.53 154.15 1700.17 154.20
  Q 1700.30 154.21 1700.43 154.26
  Q 1700.71 154.36 1700.68 154.65
  C 1700.56 156.02 1701.17 157.18 1699.98 158.31
  Q 1699.24 159.02 1698.37 158.66
  Q 1697.68 158.37 1697.21 158.96
  Q 1696.55 159.81 1695.47 159.79
  Q 1683.07 159.60 1671.22 159.79
  Q 1670.69 159.80 1670.27 159.47
  Q 1670.00 159.26 1669.84 158.96
  A 0.67 0.67 0.0 0 0 1669.12 158.63
  L 1667.77 158.90
  Q 1667.03 159.05 1667.27 158.32
  Q 1667.45 157.78 1667.33 157.23
  Q 1667.22 156.77 1666.76 156.78
  Q 1666.25 156.79 1666.11 156.31
  Q 1665.96 155.78 1666.36 155.41
  L 1667.77 154.08
  Q 1668.06 153.80 1668.18 153.41
  Q 1668.61 151.93 1669.83 151.08
  Q 1670.27 150.78 1670.27 150.25
  Q 1670.32 83.60 1670.27 17.18
  Q 1670.27 14.32 1669.28 12.74
  Q 1668.28 11.14 1666.45 9.76
  A 1.02 1.01 19.6 0 1 1666.04 8.91
  Q 1666.06 8.31 1666.67 8.16
  Q 1667.22 8.02 1667.20 7.46
  Q 1667.15 6.36 1668.23 5.54
  Q 1668.53 5.31 1668.91 5.31
  Q 1688.56 5.19 1707.49 5.42
  Q 1713.59 5.49 1721.66 7.44
  C 1732.14 9.96 1740.55 16.48 1743.96 26.58
  Q 1747.43 36.87 1746.43 48.00
  Q 1744.51 69.29 1724.57 77.09
  Q 1723.15 77.65 1721.49 77.79
  Q 1721.01 77.83 1720.69 78.18
  Q 1719.75 79.21 1718.30 78.68
  A 0.63 0.63 0.0 0 0 1717.45 79.23
  L 1717.43 79.55
  Q 1717.39 80.29 1718.13 80.32
  C 1719.29 80.36 1720.38 80.10 1721.48 80.62
  C 1723.81 81.74 1726.26 82.52 1728.44 83.97
  C 1738.02 90.37 1741.47 99.06 1743.14 109.90
  Q 1744.65 119.68 1746.42 134.54
  C 1746.76 137.36 1747.55 140.24 1747.74 143.16
  C 1747.85 144.82 1748.83 145.79 1748.90 147.46
  Q 1748.92 147.91 1749.29 148.15
  Q 1750.33 148.84 1749.54 149.91
  Q 1749.23 150.34 1749.76 150.33
  Q 1751.13 150.32 1751.69 151.69
  Q 1751.90 152.19 1752.43 152.20
  L 1756.47 152.33
  A 1.09 1.08 84.8 0 1 1757.49 153.19
  Q 1757.82 154.72 1757.87 156.36
  Q 1757.90 157.31 1757.27 158.04
  Q 1756.30 159.18 1755.12 158.58
  Q 1754.10 158.06 1754.80 158.96
  Z
  M 1710.15 72.61
  Q 1710.54 72.01 1711.18 72.14
  Q 1711.79 72.27 1712.17 71.77
  Q 1713.75 69.66 1716.00 68.22
  Q 1716.59 67.85 1716.27 67.23
  Q 1715.88 66.51 1716.71 66.29
  Q 1717.30 66.13 1717.18 65.53
  Q 1717.13 65.25 1717.18 64.97
  Q 1717.27 64.55 1717.61 64.28
  Q 1718.62 63.47 1718.26 62.01
  Q 1718.19 61.74 1718.34 61.51
  Q 1718.42 61.39 1718.54 61.31
  Q 1718.96 61.07 1719.03 60.59
  Q 1720.48 50.94 1720.50 41.54
  Q 1720.52 34.61 1718.98 28.36
  C 1717.56 22.58 1713.32 16.75 1707.03 16.64
  A 1.00 0.99 -21.5 0 1 1706.35 16.35
  L 1706.12 16.11
  Q 1705.76 15.74 1705.24 15.74
  L 1697.51 15.67
  A 0.81 0.81 0.0 0 0 1696.69 16.48
  L 1696.70 73.54
  A 0.88 0.87 88.2 0 0 1697.63 74.42
  Q 1702.19 74.13 1707.10 74.40
  Q 1707.89 74.44 1707.34 73.86
  Q 1707.25 73.76 1707.26 73.62
  Q 1707.31 73.02 1707.91 73.10
  L 1710.41 73.43
  Q 1710.57 73.45 1710.53 73.28
  Q 1710.50 73.15 1710.35 73.12
  Q 1709.90 73.00 1710.15 72.61
  Z"
/>
</svg>
