<?xml version="1.0" encoding="UTF-8" standalone="no"?>
<!DOCTYPE svg PUBLIC "-//W3C//DTD SVG 1.1//EN" "http://www.w3.org/Graphics/SVG/1.1/DTD/svg11.dtd">
<svg xmlns="http://www.w3.org/2000/svg" version="1.1" viewBox="0.00 0.00 121.00 154.00">
<path fill="#970000" d="
  M 121.00 21.14
  L 121.00 32.65
  L 112.98 32.80
  Q 112.50 32.80 112.50 33.28
  L 112.52 106.21
  Q 112.52 106.84 112.08 107.29
  L 98.71 121.01
  A 2.08 2.07 21.9 0 1 97.22 121.64
  L 73.63 121.64
  A 0.48 0.48 0.0 0 0 73.15 122.12
  L 73.14 137.80
  A 0.67 0.66 -90.0 0 0 73.80 138.47
  L 81.54 138.50
  Q 82.07 138.51 82.07 139.03
  L 82.05 153.25
  A 0.30 0.29 -0.0 0 1 81.75 153.54
  L 40.28 153.54
  A 0.39 0.39 0.0 0 1 39.89 153.15
  L 39.87 139.06
  Q 39.87 138.49 40.44 138.49
  L 48.06 138.47
  A 0.78 0.78 0.0 0 0 48.84 137.69
  L 48.83 122.24
  Q 48.83 121.64 48.24 121.64
  L 24.44 121.64
  A 1.64 1.64 0.0 0 1 23.28 121.16
  L 9.74 107.37
  Q 9.33 106.95 9.33 106.37
  L 9.33 33.23
  A 0.56 0.56 0.0 0 0 8.80 32.67
  L 0.00 32.25
  L 0.00 31.52
  L 0.12 21.99
  A 0.84 0.84 0.0 0 1 0.96 21.16
  L 39.65 21.15
  A 0.41 0.40 90.0 0 1 40.05 21.56
  L 40.04 32.07
  Q 40.04 32.68 39.43 32.68
  L 32.82 32.67
  Q 32.05 32.67 32.05 33.43
  L 32.05 95.76
  A 0.71 0.71 0.0 0 0 32.76 96.47
  L 48.50 96.46
  A 0.34 0.33 -0.9 0 0 48.83 96.13
  L 48.83 13.26
  Q 48.83 12.44 48.01 12.44
  L 40.50 12.44
  A 0.69 0.69 0.0 0 1 39.81 11.75
  L 39.82 1.44
  Q 39.82 0.70 40.56 0.70
  L 81.50 0.71
  Q 82.04 0.71 82.04 1.25
  L 82.06 11.82
  Q 82.06 12.44 81.43 12.44
  L 73.98 12.44
  Q 73.15 12.44 73.15 13.27
  L 73.15 96.05
  A 0.40 0.40 0.0 0 0 73.55 96.45
  L 89.25 96.45
  A 0.45 0.45 0.0 0 0 89.70 96.00
  L 89.68 33.18
  A 0.50 0.50 0.0 0 0 89.18 32.68
  L 82.30 32.67
  A 0.62 0.61 90.0 0 1 81.69 32.05
  L 81.69 21.77
  Q 81.69 21.18 82.29 21.18
  L 121.00 21.14
  Z"
/>
</svg>
