<?xml version="1.0" encoding="UTF-8" standalone="no"?>
<!DOCTYPE svg PUBLIC "-//W3C//DTD SVG 1.1//EN" "http://www.w3.org/Graphics/SVG/1.1/DTD/svg11.dtd">
<svg xmlns="http://www.w3.org/2000/svg" version="1.1" viewBox="0.00 0.00 900.00 342.00">
<g stroke-width="2.00" fill="none" stroke-linecap="butt">
<path stroke="#80a3bd" vector-effect="non-scaling-stroke" d="
  M 132.03 117.51
  L 146.06 117.52
  A 0.34 0.34 0.0 0 0 146.40 117.19
  L 146.45 113.76
  A 0.44 0.44 0.0 0 0 146.01 113.31
  L 101.66 113.32
  Q 101.15 113.32 101.14 113.84
  L 101.11 116.93
  Q 101.10 117.52 101.68 117.52
  L 114.74 117.51
  Q 115.31 117.51 115.32 118.08
  Q 115.41 158.59 115.27 196.68
  Q 115.23 205.41 112.10 212.35
  Q 109.31 218.56 101.38 220.27
  C 93.89 221.88 85.25 220.58 85.44 210.80
  Q 85.51 207.04 84.75 202.92
  C 83.92 198.41 79.40 196.63 75.47 197.68
  Q 69.38 199.30 68.93 206.26
  Q 67.90 222.23 83.81 224.89
  Q 96.51 227.02 109.17 224.29
  C 126.72 220.50 131.55 206.55 131.55 190.24
  Q 131.54 154.34 131.53 118.01
  Q 131.53 117.51 132.03 117.51"
/>
<path stroke="#80a3bd" vector-effect="non-scaling-stroke" d="
  M 206.68 176.90
  C 223.40 176.88 248.48 178.55 258.03 161.07
  C 262.38 153.12 262.29 141.38 260.10 132.45
  C 257.65 122.43 249.19 116.99 239.45 115.04
  Q 229.78 113.10 217.91 113.24
  Q 197.37 113.47 177.26 113.25
  A 0.55 0.54 0.5 0 0 176.70 113.79
  L 176.70 116.98
  Q 176.70 117.51 177.23 117.51
  L 189.23 117.52
  A 0.43 0.42 0.0 0 1 189.66 117.94
  Q 189.57 161.24 189.67 205.73
  C 189.69 211.71 188.40 216.69 181.77 218.34
  Q 178.26 219.22 174.64 219.28
  Q 174.16 219.28 174.17 219.76
  L 174.23 222.45
  Q 174.24 222.90 174.70 222.90
  L 221.21 222.90
  Q 221.82 222.90 221.83 222.29
  L 221.87 219.98
  Q 221.89 219.28 221.19 219.28
  C 213.63 219.23 206.50 217.43 206.16 208.21
  Q 205.79 198.14 206.00 177.56
  Q 206.01 176.90 206.68 176.90"
/>
<path stroke="#80a3bd" vector-effect="non-scaling-stroke" d="
  M 385.00 130.26
  Q 385.22 130.62 385.22 131.04
  Q 385.18 169.41 385.17 207.84
  C 385.17 216.26 380.00 219.03 372.47 219.21
  A 0.81 0.80 89.3 0 0 371.69 220.02
  L 371.69 222.05
  A 0.86 0.85 0.0 0 0 372.55 222.90
  L 414.56 222.89
  Q 415.00 222.89 415.01 222.44
  L 415.03 219.99
  Q 415.03 219.42 414.47 219.36
  C 405.98 218.36 401.42 216.39 401.41 206.85
  Q 401.38 163.02 401.39 118.13
  Q 401.39 117.58 401.94 117.57
  L 412.21 117.31
  A 0.55 0.55 0.0 0 0 412.74 116.78
  L 412.79 113.98
  A 0.56 0.56 0.0 0 0 412.23 113.41
  L 385.03 113.42
  Q 384.66 113.42 384.53 113.76
  Q 367.36 156.67 351.38 196.38
  Q 351.22 196.77 351.03 196.99
  A 0.79 0.79 0.0 0 1 349.69 196.80
  L 314.29 113.95
  A 0.92 0.90 78.0 0 0 313.46 113.40
  L 283.45 113.44
  Q 282.83 113.44 282.84 114.05
  L 282.86 116.64
  Q 282.87 117.30 283.52 117.30
  L 295.77 117.32
  A 0.56 0.56 0.0 0 1 296.33 117.88
  Q 296.31 162.97 296.35 203.75
  C 296.36 213.19 294.37 219.25 283.53 219.25
  A 0.70 0.70 0.0 0 0 282.83 219.96
  L 282.85 222.50
  Q 282.86 222.90 283.25 222.90
  L 313.31 222.91
  Q 313.78 222.91 313.79 222.44
  L 313.87 219.76
  Q 313.88 219.37 313.48 219.35
  C 301.21 218.69 301.43 210.84 301.42 201.26
  Q 301.40 166.99 301.35 130.64
  Q 301.35 130.23 301.30 129.82
  Q 301.23 129.14 301.75 128.78
  A 0.90 0.89 -28.3 0 1 303.07 129.17
  L 342.86 222.08
  A 1.11 1.10 86.0 0 0 343.59 222.72
  Q 346.67 223.60 347.54 221.46
  Q 365.85 175.96 384.29 130.31
  A 0.40 0.40 0.0 0 1 385.00 130.26"
/>
<path stroke="#80a3bd" vector-effect="non-scaling-stroke" d="
  M 643.19 157.93
  Q 642.85 157.09 643.74 157.25
  Q 650.24 158.40 655.36 155.53
  C 659.94 152.96 662.11 147.62 659.61 142.71
  Q 657.06 137.70 651.51 139.57
  C 645.06 141.74 648.94 152.49 640.73 151.48
  Q 638.69 151.23 637.12 149.94
  Q 630.91 144.83 621.36 143.25
  C 602.09 140.07 584.41 148.17 581.80 169.04
  Q 580.71 177.66 583.95 186.37
  C 586.83 194.14 594.04 198.33 601.96 199.80
  Q 602.54 199.91 602.46 200.49
  Q 602.39 200.98 601.91 201.06
  C 593.05 202.47 581.17 205.83 579.83 215.80
  C 578.29 227.18 586.77 231.42 596.14 233.11
  C 606.13 234.91 616.41 234.63 626.25 234.93
  Q 631.71 235.09 637.02 237.14
  C 645.91 240.56 646.19 251.14 639.92 257.03
  C 632.51 263.99 619.91 264.96 609.42 264.24
  C 600.99 263.67 589.83 260.71 591.32 249.85
  C 591.80 246.33 591.96 243.91 589.36 241.79
  C 584.34 237.68 578.78 242.95 578.19 248.05
  C 576.96 258.59 583.13 264.28 592.60 266.83
  Q 611.85 272.00 630.53 267.26
  C 643.63 263.94 653.12 253.80 652.71 239.61
  C 652.38 228.02 645.07 220.13 633.83 218.66
  Q 622.13 217.14 608.00 217.16
  C 603.69 217.16 598.20 217.05 594.42 215.64
  Q 590.44 214.15 591.66 209.35
  C 592.71 205.21 600.06 203.47 603.77 202.84
  C 619.45 200.19 641.86 197.83 645.23 177.95
  Q 647.03 167.38 643.19 157.93"
/>
<path stroke="#80a3bd" vector-effect="non-scaling-stroke" d="
  M 497.18 185.01
  C 497.65 163.51 487.56 145.85 464.99 142.87
  C 444.81 140.20 428.13 151.58 423.95 171.61
  C 420.43 188.47 422.82 208.28 437.24 218.94
  C 450.20 228.52 469.95 228.50 482.68 218.59
  C 493.12 210.46 496.90 197.77 497.18 185.01"
/>
<path stroke="#80a3bd" vector-effect="non-scaling-stroke" d="
  M 710.57 176.73
  C 696.12 177.53 671.16 180.94 665.88 197.59
  C 660.68 213.97 674.06 227.52 690.26 225.04
  Q 701.97 223.24 711.29 212.93
  A 0.42 0.41 -31.2 0 1 712.00 213.10
  C 714.65 223.07 724.96 226.37 734.26 223.27
  C 741.33 220.91 744.32 213.80 744.55 206.58
  Q 744.56 206.22 744.20 206.21
  L 742.29 206.17
  Q 741.56 206.16 741.46 206.88
  C 740.85 211.46 737.99 215.61 732.68 214.50
  Q 729.12 213.75 728.63 210.08
  Q 728.04 205.57 727.99 201.03
  Q 727.82 185.16 728.01 168.15
  Q 728.12 158.99 726.64 155.11
  Q 723.53 146.95 714.68 144.56
  Q 699.58 140.49 683.50 144.45
  C 675.40 146.44 667.14 152.63 667.34 161.88
  C 667.42 165.48 670.00 168.04 673.49 168.33
  Q 681.17 168.98 682.35 160.06
  C 683.21 153.56 686.13 148.85 693.26 147.91
  C 703.82 146.52 711.21 150.93 711.33 162.20
  Q 711.41 169.39 711.37 175.88
  Q 711.37 176.69 710.57 176.73"
/>
<path stroke="#80a3bd" vector-effect="non-scaling-stroke" d="
  M 759.24 149.56
  Q 759.20 176.44 759.24 205.70
  C 759.24 209.24 758.59 214.14 755.24 216.18
  C 752.97 217.56 750.27 217.45 747.70 217.97
  Q 747.21 218.06 747.21 218.56
  L 747.25 222.32
  Q 747.26 222.88 747.82 222.88
  L 785.47 222.90
  Q 785.83 222.90 785.83 222.53
  L 785.85 218.29
  Q 785.85 217.81 785.38 217.75
  C 781.92 217.31 778.63 216.75 777.26 213.01
  Q 776.01 209.55 775.94 205.83
  Q 775.67 190.24 776.00 174.59
  Q 776.16 166.59 778.12 162.30
  Q 783.17 151.20 796.67 152.28
  Q 803.72 152.84 805.60 159.33
  Q 807.68 166.50 807.56 175.29
  Q 807.33 192.37 807.61 208.86
  C 807.71 214.45 804.67 217.50 799.08 217.54
  Q 798.12 217.55 798.13 218.50
  L 798.13 222.26
  Q 798.13 222.90 798.76 222.90
  L 835.03 222.89
  A 0.43 0.42 -0.0 0 0 835.46 222.47
  L 835.47 218.46
  Q 835.47 217.95 834.96 217.88
  C 831.21 217.37 827.66 217.12 825.70 213.30
  Q 823.47 208.96 823.54 203.63
  Q 823.76 185.59 823.65 164.93
  C 823.53 140.67 793.07 137.44 780.14 152.57
  Q 777.76 155.36 775.74 158.47
  A 0.69 0.68 38.6 0 1 774.69 158.58
  Q 774.27 158.17 774.17 157.60
  Q 773.02 151.27 771.81 144.96
  Q 771.69 144.34 771.07 144.34
  L 747.91 144.32
  Q 747.14 144.32 747.15 145.09
  L 747.19 148.00
  Q 747.20 148.81 748.00 148.81
  L 758.53 148.85
  Q 759.24 148.86 759.24 149.56"
/>
<path stroke="#80a3bd" vector-effect="non-scaling-stroke" d="
  M 519.23 149.50
  Q 519.27 176.36 519.22 204.58
  C 519.22 208.00 518.82 214.31 515.47 216.27
  Q 511.90 218.36 505.51 218.07
  Q 504.83 218.04 504.84 218.72
  L 504.87 222.32
  A 0.58 0.57 0.0 0 0 505.45 222.89
  L 549.29 222.89
  A 0.44 0.44 0.0 0 0 549.73 222.46
  L 549.81 218.54
  Q 549.82 218.19 549.46 218.17
  Q 547.25 218.07 544.96 217.98
  C 537.89 217.69 535.56 212.95 535.54 206.37
  Q 535.49 191.81 535.39 177.54
  Q 535.35 170.65 536.80 166.87
  C 538.99 161.20 543.75 155.25 550.16 154.59
  C 559.23 153.65 560.00 168.81 569.76 162.76
  Q 572.15 161.28 572.64 158.39
  C 573.80 151.45 569.27 146.05 562.69 144.47
  Q 557.18 143.14 551.24 144.44
  C 542.90 146.25 538.65 152.60 535.43 160.04
  A 0.45 0.44 45.3 0 1 534.61 160.03
  Q 534.03 158.63 533.82 157.09
  Q 533.01 151.00 531.91 145.28
  Q 531.78 144.63 531.12 144.63
  L 505.43 144.51
  Q 504.87 144.51 504.87 145.07
  L 504.83 148.21
  A 0.64 0.64 0.0 0 0 505.47 148.85
  L 518.53 148.80
  Q 519.23 148.80 519.23 149.50"
/>
<path stroke="#80a3bd" vector-effect="non-scaling-stroke" d="
  M 161.34 217.06
  A 8.98 8.98 0.0 0 0 152.36 208.08
  A 8.98 8.98 0.0 0 0 143.38 217.06
  A 8.98 8.98 0.0 0 0 152.36 226.04
  A 8.98 8.98 0.0 0 0 161.34 217.06"
/>
<path stroke="#80a3bd" vector-effect="non-scaling-stroke" d="
  M 261.43 217.06
  A 8.98 8.98 0.0 0 0 252.45 208.08
  A 8.98 8.98 0.0 0 0 243.47 217.06
  A 8.98 8.98 0.0 0 0 252.45 226.04
  A 8.98 8.98 0.0 0 0 261.43 217.06"
/>
<path stroke="#80a3bd" vector-effect="non-scaling-stroke" d="
  M 205.87 118.10
  L 206.05 172.12
  A 0.22 0.22 0.0 0 0 206.28 172.34
  L 221.18 172.29
  A 24.92 23.12 -0.2 0 0 246.01 149.08
  L 245.99 140.86
  A 24.92 23.12 -0.2 0 0 220.98 117.83
  L 206.09 117.88
  A 0.22 0.22 0.0 0 0 205.87 118.10"
/>
<path stroke="#80a3bd" vector-effect="non-scaling-stroke" d="
  M 605.64 195.11
  Q 611.21 197.40 618.77 196.03
  C 625.60 194.80 628.15 188.10 629.00 181.92
  C 630.72 169.36 631.08 144.29 611.13 147.26
  C 597.09 149.35 597.02 169.91 597.95 180.52
  C 598.44 186.02 600.16 192.85 605.64 195.11"
/>
<path stroke="#80a3bd" vector-effect="non-scaling-stroke" d="
  M 440.49 202.18
  C 441.29 210.98 444.61 218.90 454.09 220.76
  C 467.94 223.47 476.93 217.43 478.62 203.20
  Q 480.48 187.48 479.49 169.73
  C 478.66 154.72 472.57 146.29 456.59 147.89
  C 445.16 149.04 441.70 158.46 440.76 168.39
  Q 439.05 186.42 440.49 202.18"
/>
<path stroke="#80a3bd" vector-effect="non-scaling-stroke" d="
  M 686.67 215.36
  C 695.13 219.91 704.78 213.17 710.93 207.26
  Q 711.35 206.85 711.35 206.26
  L 711.37 182.25
  Q 711.37 181.52 710.64 181.57
  C 698.81 182.37 681.72 188.77 680.72 202.40
  C 680.36 207.26 682.13 212.93 686.67 215.36"
/>
</g>
<path fill="#00477b" d="
  M 0.00 0.00
  L 900.00 0.00
  L 900.00 342.00
  L 0.00 342.00
  L 0.00 0.00
  Z
  M 132.03 117.51
  L 146.06 117.52
  A 0.34 0.34 0.0 0 0 146.40 117.19
  L 146.45 113.76
  A 0.44 0.44 0.0 0 0 146.01 113.31
  L 101.66 113.32
  Q 101.15 113.32 101.14 113.84
  L 101.11 116.93
  Q 101.10 117.52 101.68 117.52
  L 114.74 117.51
  Q 115.31 117.51 115.32 118.08
  Q 115.41 158.59 115.27 196.68
  Q 115.23 205.41 112.10 212.35
  Q 109.31 218.56 101.38 220.27
  C 93.89 221.88 85.25 220.58 85.44 210.80
  Q 85.51 207.04 84.75 202.92
  C 83.92 198.41 79.40 196.63 75.47 197.68
  Q 69.38 199.30 68.93 206.26
  Q 67.90 222.23 83.81 224.89
  Q 96.51 227.02 109.17 224.29
  C 126.72 220.50 131.55 206.55 131.55 190.24
  Q 131.54 154.34 131.53 118.01
  Q 131.53 117.51 132.03 117.51
  Z
  M 206.68 176.90
  C 223.40 176.88 248.48 178.55 258.03 161.07
  C 262.38 153.12 262.29 141.38 260.10 132.45
  C 257.65 122.43 249.19 116.99 239.45 115.04
  Q 229.78 113.10 217.91 113.24
  Q 197.37 113.47 177.26 113.25
  A 0.55 0.54 0.5 0 0 176.70 113.79
  L 176.70 116.98
  Q 176.70 117.51 177.23 117.51
  L 189.23 117.52
  A 0.43 0.42 0.0 0 1 189.66 117.94
  Q 189.57 161.24 189.67 205.73
  C 189.69 211.71 188.40 216.69 181.77 218.34
  Q 178.26 219.22 174.64 219.28
  Q 174.16 219.28 174.17 219.76
  L 174.23 222.45
  Q 174.24 222.90 174.70 222.90
  L 221.21 222.90
  Q 221.82 222.90 221.83 222.29
  L 221.87 219.98
  Q 221.89 219.28 221.19 219.28
  C 213.63 219.23 206.50 217.43 206.16 208.21
  Q 205.79 198.14 206.00 177.56
  Q 206.01 176.90 206.68 176.90
  Z
  M 385.00 130.26
  Q 385.22 130.62 385.22 131.04
  Q 385.18 169.41 385.17 207.84
  C 385.17 216.26 380.00 219.03 372.47 219.21
  A 0.81 0.80 89.3 0 0 371.69 220.02
  L 371.69 222.05
  A 0.86 0.85 0.0 0 0 372.55 222.90
  L 414.56 222.89
  Q 415.00 222.89 415.01 222.44
  L 415.03 219.99
  Q 415.03 219.42 414.47 219.36
  C 405.98 218.36 401.42 216.39 401.41 206.85
  Q 401.38 163.02 401.39 118.13
  Q 401.39 117.58 401.94 117.57
  L 412.21 117.31
  A 0.55 0.55 0.0 0 0 412.74 116.78
  L 412.79 113.98
  A 0.56 0.56 0.0 0 0 412.23 113.41
  L 385.03 113.42
  Q 384.66 113.42 384.53 113.76
  Q 367.36 156.67 351.38 196.38
  Q 351.22 196.77 351.03 196.99
  A 0.79 0.79 0.0 0 1 349.69 196.80
  L 314.29 113.95
  A 0.92 0.90 78.0 0 0 313.46 113.40
  L 283.45 113.44
  Q 282.83 113.44 282.84 114.05
  L 282.86 116.64
  Q 282.87 117.30 283.52 117.30
  L 295.77 117.32
  A 0.56 0.56 0.0 0 1 296.33 117.88
  Q 296.31 162.97 296.35 203.75
  C 296.36 213.19 294.37 219.25 283.53 219.25
  A 0.70 0.70 0.0 0 0 282.83 219.96
  L 282.85 222.50
  Q 282.86 222.90 283.25 222.90
  L 313.31 222.91
  Q 313.78 222.91 313.79 222.44
  L 313.87 219.76
  Q 313.88 219.37 313.48 219.35
  C 301.21 218.69 301.43 210.84 301.42 201.26
  Q 301.40 166.99 301.35 130.64
  Q 301.35 130.23 301.30 129.82
  Q 301.23 129.14 301.75 128.78
  A 0.90 0.89 -28.3 0 1 303.07 129.17
  L 342.86 222.08
  A 1.11 1.10 86.0 0 0 343.59 222.72
  Q 346.67 223.60 347.54 221.46
  Q 365.85 175.96 384.29 130.31
  A 0.40 0.40 0.0 0 1 385.00 130.26
  Z
  M 643.19 157.93
  Q 642.85 157.09 643.74 157.25
  Q 650.24 158.40 655.36 155.53
  C 659.94 152.96 662.11 147.62 659.61 142.71
  Q 657.06 137.70 651.51 139.57
  C 645.06 141.74 648.94 152.49 640.73 151.48
  Q 638.69 151.23 637.12 149.94
  Q 630.91 144.83 621.36 143.25
  C 602.09 140.07 584.41 148.17 581.80 169.04
  Q 580.71 177.66 583.95 186.37
  C 586.83 194.14 594.04 198.33 601.96 199.80
  Q 602.54 199.91 602.46 200.49
  Q 602.39 200.98 601.91 201.06
  C 593.05 202.47 581.17 205.83 579.83 215.80
  C 578.29 227.18 586.77 231.42 596.14 233.11
  C 606.13 234.91 616.41 234.63 626.25 234.93
  Q 631.71 235.09 637.02 237.14
  C 645.91 240.56 646.19 251.14 639.92 257.03
  C 632.51 263.99 619.91 264.96 609.42 264.24
  C 600.99 263.67 589.83 260.71 591.32 249.85
  C 591.80 246.33 591.96 243.91 589.36 241.79
  C 584.34 237.68 578.78 242.95 578.19 248.05
  C 576.96 258.59 583.13 264.28 592.60 266.83
  Q 611.85 272.00 630.53 267.26
  C 643.63 263.94 653.12 253.80 652.71 239.61
  C 652.38 228.02 645.07 220.13 633.83 218.66
  Q 622.13 217.14 608.00 217.16
  C 603.69 217.16 598.20 217.05 594.42 215.64
  Q 590.44 214.15 591.66 209.35
  C 592.71 205.21 600.06 203.47 603.77 202.84
  C 619.45 200.19 641.86 197.83 645.23 177.95
  Q 647.03 167.38 643.19 157.93
  Z
  M 497.18 185.01
  C 497.65 163.51 487.56 145.85 464.99 142.87
  C 444.81 140.20 428.13 151.58 423.95 171.61
  C 420.43 188.47 422.82 208.28 437.24 218.94
  C 450.20 228.52 469.95 228.50 482.68 218.59
  C 493.12 210.46 496.90 197.77 497.18 185.01
  Z
  M 710.57 176.73
  C 696.12 177.53 671.16 180.94 665.88 197.59
  C 660.68 213.97 674.06 227.52 690.26 225.04
  Q 701.97 223.24 711.29 212.93
  A 0.42 0.41 -31.2 0 1 712.00 213.10
  C 714.65 223.07 724.96 226.37 734.26 223.27
  C 741.33 220.91 744.32 213.80 744.55 206.58
  Q 744.56 206.22 744.20 206.21
  L 742.29 206.17
  Q 741.56 206.16 741.46 206.88
  C 740.85 211.46 737.99 215.61 732.68 214.50
  Q 729.12 213.75 728.63 210.08
  Q 728.04 205.57 727.99 201.03
  Q 727.82 185.16 728.01 168.15
  Q 728.12 158.99 726.64 155.11
  Q 723.53 146.95 714.68 144.56
  Q 699.58 140.49 683.50 144.45
  C 675.40 146.44 667.14 152.63 667.34 161.88
  C 667.42 165.48 670.00 168.04 673.49 168.33
  Q 681.17 168.98 682.35 160.06
  C 683.21 153.56 686.13 148.85 693.26 147.91
  C 703.82 146.52 711.21 150.93 711.33 162.20
  Q 711.41 169.39 711.37 175.88
  Q 711.37 176.69 710.57 176.73
  Z
  M 759.24 149.56
  Q 759.20 176.44 759.24 205.70
  C 759.24 209.24 758.59 214.14 755.24 216.18
  C 752.97 217.56 750.27 217.45 747.70 217.97
  Q 747.21 218.06 747.21 218.56
  L 747.25 222.32
  Q 747.26 222.88 747.82 222.88
  L 785.47 222.90
  Q 785.83 222.90 785.83 222.53
  L 785.85 218.29
  Q 785.85 217.81 785.38 217.75
  C 781.92 217.31 778.63 216.75 777.26 213.01
  Q 776.01 209.55 775.94 205.83
  Q 775.67 190.24 776.00 174.59
  Q 776.16 166.59 778.12 162.30
  Q 783.17 151.20 796.67 152.28
  Q 803.72 152.84 805.60 159.33
  Q 807.68 166.50 807.56 175.29
  Q 807.33 192.37 807.61 208.86
  C 807.71 214.45 804.67 217.50 799.08 217.54
  Q 798.12 217.55 798.13 218.50
  L 798.13 222.26
  Q 798.13 222.90 798.76 222.90
  L 835.03 222.89
  A 0.43 0.42 -0.0 0 0 835.46 222.47
  L 835.47 218.46
  Q 835.47 217.95 834.96 217.88
  C 831.21 217.37 827.66 217.12 825.70 213.30
  Q 823.47 208.96 823.54 203.63
  Q 823.76 185.59 823.65 164.93
  C 823.53 140.67 793.07 137.44 780.14 152.57
  Q 777.76 155.36 775.74 158.47
  A 0.69 0.68 38.6 0 1 774.69 158.58
  Q 774.27 158.17 774.17 157.60
  Q 773.02 151.27 771.81 144.96
  Q 771.69 144.34 771.07 144.34
  L 747.91 144.32
  Q 747.14 144.32 747.15 145.09
  L 747.19 148.00
  Q 747.20 148.81 748.00 148.81
  L 758.53 148.85
  Q 759.24 148.86 759.24 149.56
  Z
  M 519.23 149.50
  Q 519.27 176.36 519.22 204.58
  C 519.22 208.00 518.82 214.31 515.47 216.27
  Q 511.90 218.36 505.51 218.07
  Q 504.83 218.04 504.84 218.72
  L 504.87 222.32
  A 0.58 0.57 0.0 0 0 505.45 222.89
  L 549.29 222.89
  A 0.44 0.44 0.0 0 0 549.73 222.46
  L 549.81 218.54
  Q 549.82 218.19 549.46 218.17
  Q 547.25 218.07 544.96 217.98
  C 537.89 217.69 535.56 212.95 535.54 206.37
  Q 535.49 191.81 535.39 177.54
  Q 535.35 170.65 536.80 166.87
  C 538.99 161.20 543.75 155.25 550.16 154.59
  C 559.23 153.65 560.00 168.81 569.76 162.76
  Q 572.15 161.28 572.64 158.39
  C 573.80 151.45 569.27 146.05 562.69 144.47
  Q 557.18 143.14 551.24 144.44
  C 542.90 146.25 538.65 152.60 535.43 160.04
  A 0.45 0.44 45.3 0 1 534.61 160.03
  Q 534.03 158.63 533.82 157.09
  Q 533.01 151.00 531.91 145.28
  Q 531.78 144.63 531.12 144.63
  L 505.43 144.51
  Q 504.87 144.51 504.87 145.07
  L 504.83 148.21
  A 0.64 0.64 0.0 0 0 505.47 148.85
  L 518.53 148.80
  Q 519.23 148.80 519.23 149.50
  Z
  M 161.34 217.06
  A 8.98 8.98 0.0 0 0 152.36 208.08
  A 8.98 8.98 0.0 0 0 143.38 217.06
  A 8.98 8.98 0.0 0 0 152.36 226.04
  A 8.98 8.98 0.0 0 0 161.34 217.06
  Z
  M 261.43 217.06
  A 8.98 8.98 0.0 0 0 252.45 208.08
  A 8.98 8.98 0.0 0 0 243.47 217.06
  A 8.98 8.98 0.0 0 0 252.45 226.04
  A 8.98 8.98 0.0 0 0 261.43 217.06
  Z"
/>
<path fill="#ffffff" d="
  M 131.53 118.01
  Q 131.54 154.34 131.55 190.24
  C 131.55 206.55 126.72 220.50 109.17 224.29
  Q 96.51 227.02 83.81 224.89
  Q 67.90 222.23 68.93 206.26
  Q 69.38 199.30 75.47 197.68
  C 79.40 196.63 83.92 198.41 84.75 202.92
  Q 85.51 207.04 85.44 210.80
  C 85.25 220.58 93.89 221.88 101.38 220.27
  Q 109.31 218.56 112.10 212.35
  Q 115.23 205.41 115.27 196.68
  Q 115.41 158.59 115.32 118.08
  Q 115.31 117.51 114.74 117.51
  L 101.68 117.52
  Q 101.10 117.52 101.11 116.93
  L 101.14 113.84
  Q 101.15 113.32 101.66 113.32
  L 146.01 113.31
  A 0.44 0.44 0.0 0 1 146.45 113.76
  L 146.40 117.19
  A 0.34 0.34 0.0 0 1 146.06 117.52
  L 132.03 117.51
  Q 131.53 117.51 131.53 118.01
  Z"
/>
<path fill="#ffffff" d="
  M 206.00 177.56
  Q 205.79 198.14 206.16 208.21
  C 206.50 217.43 213.63 219.23 221.19 219.28
  Q 221.89 219.28 221.87 219.98
  L 221.83 222.29
  Q 221.82 222.90 221.21 222.90
  L 174.70 222.90
  Q 174.24 222.90 174.23 222.45
  L 174.17 219.76
  Q 174.16 219.28 174.64 219.28
  Q 178.26 219.22 181.77 218.34
  C 188.40 216.69 189.69 211.71 189.67 205.73
  Q 189.57 161.24 189.66 117.94
  A 0.43 0.42 0.0 0 0 189.23 117.52
  L 177.23 117.51
  Q 176.70 117.51 176.70 116.98
  L 176.70 113.79
  A 0.55 0.54 0.5 0 1 177.26 113.25
  Q 197.37 113.47 217.91 113.24
  Q 229.78 113.10 239.45 115.04
  C 249.19 116.99 257.65 122.43 260.10 132.45
  C 262.29 141.38 262.38 153.12 258.03 161.07
  C 248.48 178.55 223.40 176.88 206.68 176.90
  Q 206.01 176.90 206.00 177.56
  Z
  M 205.87 118.10
  L 206.05 172.12
  A 0.22 0.22 0.0 0 0 206.28 172.34
  L 221.18 172.29
  A 24.92 23.12 -0.2 0 0 246.01 149.08
  L 245.99 140.86
  A 24.92 23.12 -0.2 0 0 220.98 117.83
  L 206.09 117.88
  A 0.22 0.22 0.0 0 0 205.87 118.10
  Z"
/>
<path fill="#ffffff" d="
  M 385.00 130.26
  A 0.40 0.40 0.0 0 0 384.29 130.31
  Q 365.85 175.96 347.54 221.46
  Q 346.67 223.60 343.59 222.72
  A 1.11 1.10 86.0 0 1 342.86 222.08
  L 303.07 129.17
  A 0.90 0.89 -28.3 0 0 301.75 128.78
  Q 301.23 129.14 301.30 129.82
  Q 301.35 130.23 301.35 130.64
  Q 301.40 166.99 301.42 201.26
  C 301.43 210.84 301.21 218.69 313.48 219.35
  Q 313.88 219.37 313.87 219.76
  L 313.79 222.44
  Q 313.78 222.91 313.31 222.91
  L 283.25 222.90
  Q 282.86 222.90 282.85 222.50
  L 282.83 219.96
  A 0.70 0.70 0.0 0 1 283.53 219.25
  C 294.37 219.25 296.36 213.19 296.35 203.75
  Q 296.31 162.97 296.33 117.88
  A 0.56 0.56 0.0 0 0 295.77 117.32
  L 283.52 117.30
  Q 282.87 117.30 282.86 116.64
  L 282.84 114.05
  Q 282.83 113.44 283.45 113.44
  L 313.46 113.40
  A 0.92 0.90 78.0 0 1 314.29 113.95
  L 349.69 196.80
  A 0.79 0.79 0.0 0 0 351.03 196.99
  Q 351.22 196.77 351.38 196.38
  Q 367.36 156.67 384.53 113.76
  Q 384.66 113.42 385.03 113.42
  L 412.23 113.41
  A 0.56 0.56 0.0 0 1 412.79 113.98
  L 412.74 116.78
  A 0.55 0.55 0.0 0 1 412.21 117.31
  L 401.94 117.57
  Q 401.39 117.58 401.39 118.13
  Q 401.38 163.02 401.41 206.85
  C 401.42 216.39 405.98 218.36 414.47 219.36
  Q 415.03 219.42 415.03 219.99
  L 415.01 222.44
  Q 415.00 222.89 414.56 222.89
  L 372.55 222.90
  A 0.86 0.85 0.0 0 1 371.69 222.05
  L 371.69 220.02
  A 0.81 0.80 89.3 0 1 372.47 219.21
  C 380.00 219.03 385.17 216.26 385.17 207.84
  Q 385.18 169.41 385.22 131.04
  Q 385.22 130.62 385.00 130.26
  Z"
/>
<path fill="#00477b" d="
  M 205.87 118.10
  A 0.22 0.22 0.0 0 1 206.09 117.88
  L 220.98 117.83
  A 24.92 23.12 -0.2 0 1 245.99 140.86
  L 246.01 149.08
  A 24.92 23.12 -0.2 0 1 221.18 172.29
  L 206.28 172.34
  A 0.22 0.22 0.0 0 1 206.05 172.12
  L 205.87 118.10
  Z"
/>
<path fill="#ffffff" d="
  M 643.19 157.93
  Q 647.03 167.38 645.23 177.95
  C 641.86 197.83 619.45 200.19 603.77 202.84
  C 600.06 203.47 592.71 205.21 591.66 209.35
  Q 590.44 214.15 594.42 215.64
  C 598.20 217.05 603.69 217.16 608.00 217.16
  Q 622.13 217.14 633.83 218.66
  C 645.07 220.13 652.38 228.02 652.71 239.61
  C 653.12 253.80 643.63 263.94 630.53 267.26
  Q 611.85 272.00 592.60 266.83
  C 583.13 264.28 576.96 258.59 578.19 248.05
  C 578.78 242.95 584.34 237.68 589.36 241.79
  C 591.96 243.91 591.80 246.33 591.32 249.85
  C 589.83 260.71 600.99 263.67 609.42 264.24
  C 619.91 264.96 632.51 263.99 639.92 257.03
  C 646.19 251.14 645.91 240.56 637.02 237.14
  Q 631.71 235.09 626.25 234.93
  C 616.41 234.63 606.13 234.91 596.14 233.11
  C 586.77 231.42 578.29 227.18 579.83 215.80
  C 581.17 205.83 593.05 202.47 601.91 201.06
  Q 602.39 200.98 602.46 200.49
  Q 602.54 199.91 601.96 199.80
  C 594.04 198.33 586.83 194.14 583.95 186.37
  Q 580.71 177.66 581.80 169.04
  C 584.41 148.17 602.09 140.07 621.36 143.25
  Q 630.91 144.83 637.12 149.94
  Q 638.69 151.23 640.73 151.48
  C 648.94 152.49 645.06 141.74 651.51 139.57
  Q 657.06 137.70 659.61 142.71
  C 662.11 147.62 659.94 152.96 655.36 155.53
  Q 650.24 158.40 643.74 157.25
  Q 642.85 157.09 643.19 157.93
  Z
  M 605.64 195.11
  Q 611.21 197.40 618.77 196.03
  C 625.60 194.80 628.15 188.10 629.00 181.92
  C 630.72 169.36 631.08 144.29 611.13 147.26
  C 597.09 149.35 597.02 169.91 597.95 180.52
  C 598.44 186.02 600.16 192.85 605.64 195.11
  Z"
/>
<path fill="#ffffff" d="
  M 464.99 142.87
  C 487.56 145.85 497.65 163.51 497.18 185.01
  C 496.90 197.77 493.12 210.46 482.68 218.59
  C 469.95 228.50 450.20 228.52 437.24 218.94
  C 422.82 208.28 420.43 188.47 423.95 171.61
  C 428.13 151.58 444.81 140.20 464.99 142.87
  Z
  M 440.49 202.18
  C 441.29 210.98 444.61 218.90 454.09 220.76
  C 467.94 223.47 476.93 217.43 478.62 203.20
  Q 480.48 187.48 479.49 169.73
  C 478.66 154.72 472.57 146.29 456.59 147.89
  C 445.16 149.04 441.70 158.46 440.76 168.39
  Q 439.05 186.42 440.49 202.18
  Z"
/>
<path fill="#ffffff" d="
  M 711.37 175.88
  Q 711.41 169.39 711.33 162.20
  C 711.21 150.93 703.82 146.52 693.26 147.91
  C 686.13 148.85 683.21 153.56 682.35 160.06
  Q 681.17 168.98 673.49 168.33
  C 670.00 168.04 667.42 165.48 667.34 161.88
  C 667.14 152.63 675.40 146.44 683.50 144.45
  Q 699.58 140.49 714.68 144.56
  Q 723.53 146.95 726.64 155.11
  Q 728.12 158.99 728.01 168.15
  Q 727.82 185.16 727.99 201.03
  Q 728.04 205.57 728.63 210.08
  Q 729.12 213.75 732.68 214.50
  C 737.99 215.61 740.85 211.46 741.46 206.88
  Q 741.56 206.16 742.29 206.17
  L 744.20 206.21
  Q 744.56 206.22 744.55 206.58
  C 744.32 213.80 741.33 220.91 734.26 223.27
  C 724.96 226.37 714.65 223.07 712.00 213.10
  A 0.42 0.41 -31.2 0 0 711.29 212.93
  Q 701.97 223.24 690.26 225.04
  C 674.06 227.52 660.68 213.97 665.88 197.59
  C 671.16 180.94 696.12 177.53 710.57 176.73
  Q 711.37 176.69 711.37 175.88
  Z
  M 686.67 215.36
  C 695.13 219.91 704.78 213.17 710.93 207.26
  Q 711.35 206.85 711.35 206.26
  L 711.37 182.25
  Q 711.37 181.52 710.64 181.57
  C 698.81 182.37 681.72 188.77 680.72 202.40
  C 680.36 207.26 682.13 212.93 686.67 215.36
  Z"
/>
<path fill="#ffffff" d="
  M 758.53 148.85
  L 748.00 148.81
  Q 747.20 148.81 747.19 148.00
  L 747.15 145.09
  Q 747.14 144.32 747.91 144.32
  L 771.07 144.34
  Q 771.69 144.34 771.81 144.96
  Q 773.02 151.27 774.17 157.60
  Q 774.27 158.17 774.69 158.58
  A 0.69 0.68 38.6 0 0 775.74 158.47
  Q 777.76 155.36 780.14 152.57
  C 793.07 137.44 823.53 140.67 823.65 164.93
  Q 823.76 185.59 823.54 203.63
  Q 823.47 208.96 825.70 213.30
  C 827.66 217.12 831.21 217.37 834.96 217.88
  Q 835.47 217.95 835.47 218.46
  L 835.46 222.47
  A 0.43 0.42 0.0 0 1 835.03 222.89
  L 798.76 222.90
  Q 798.13 222.90 798.13 222.26
  L 798.13 218.50
  Q 798.12 217.55 799.08 217.54
  C 804.67 217.50 807.71 214.45 807.61 208.86
  Q 807.33 192.37 807.56 175.29
  Q 807.68 166.50 805.60 159.33
  Q 803.72 152.84 796.67 152.28
  Q 783.17 151.20 778.12 162.30
  Q 776.16 166.59 776.00 174.59
  Q 775.67 190.24 775.94 205.83
  Q 776.01 209.55 777.26 213.01
  C 778.63 216.75 781.92 217.31 785.38 217.75
  Q 785.85 217.81 785.85 218.29
  L 785.83 222.53
  Q 785.83 222.90 785.47 222.90
  L 747.82 222.88
  Q 747.26 222.88 747.25 222.32
  L 747.21 218.56
  Q 747.21 218.06 747.70 217.97
  C 750.27 217.45 752.97 217.56 755.24 216.18
  C 758.59 214.14 759.24 209.24 759.24 205.70
  Q 759.20 176.44 759.24 149.56
  Q 759.24 148.86 758.53 148.85
  Z"
/>
<path fill="#ffffff" d="
  M 518.53 148.80
  L 505.47 148.85
  A 0.64 0.64 0.0 0 1 504.83 148.21
  L 504.87 145.07
  Q 504.87 144.51 505.43 144.51
  L 531.12 144.63
  Q 531.78 144.63 531.91 145.28
  Q 533.01 151.00 533.82 157.09
  Q 534.03 158.63 534.61 160.03
  A 0.45 0.44 45.3 0 0 535.43 160.04
  C 538.65 152.60 542.90 146.25 551.24 144.44
  Q 557.18 143.14 562.69 144.47
  C 569.27 146.05 573.80 151.45 572.64 158.39
  Q 572.15 161.28 569.76 162.76
  C 560.00 168.81 559.23 153.65 550.16 154.59
  C 543.75 155.25 538.99 161.20 536.80 166.87
  Q 535.35 170.65 535.39 177.54
  Q 535.49 191.81 535.54 206.37
  C 535.56 212.95 537.89 217.69 544.96 217.98
  Q 547.25 218.07 549.46 218.17
  Q 549.82 218.19 549.81 218.54
  L 549.73 222.46
  A 0.44 0.44 0.0 0 1 549.29 222.89
  L 505.45 222.89
  A 0.58 0.57 -0.0 0 1 504.87 222.32
  L 504.84 218.72
  Q 504.83 218.04 505.51 218.07
  Q 511.90 218.36 515.47 216.27
  C 518.82 214.31 519.22 208.00 519.22 204.58
  Q 519.27 176.36 519.23 149.50
  Q 519.23 148.80 518.53 148.80
  Z"
/>
<path fill="#00477b" d="
  M 605.64 195.11
  C 600.16 192.85 598.44 186.02 597.95 180.52
  C 597.02 169.91 597.09 149.35 611.13 147.26
  C 631.08 144.29 630.72 169.36 629.00 181.92
  C 628.15 188.10 625.60 194.80 618.77 196.03
  Q 611.21 197.40 605.64 195.11
  Z"
/>
<path fill="#00477b" d="
  M 454.09 220.76
  C 444.61 218.90 441.29 210.98 440.49 202.18
  Q 439.05 186.42 440.76 168.39
  C 441.70 158.46 445.16 149.04 456.59 147.89
  C 472.57 146.29 478.66 154.72 479.49 169.73
  Q 480.48 187.48 478.62 203.20
  C 476.93 217.43 467.94 223.47 454.09 220.76
  Z"
/>
<path fill="#00477b" d="
  M 710.93 207.26
  C 704.78 213.17 695.13 219.91 686.67 215.36
  C 682.13 212.93 680.36 207.26 680.72 202.40
  C 681.72 188.77 698.81 182.37 710.64 181.57
  Q 711.37 181.52 711.37 182.25
  L 711.35 206.26
  Q 711.35 206.85 710.93 207.26
  Z"
/>
<circle fill="#ffffff" cx="152.36" cy="217.06" r="8.98"/>
<circle fill="#ffffff" cx="252.45" cy="217.06" r="8.98"/>
</svg>
